SplineFontDB: 3.2
FontName: notosanssinhala
FullName: notosanssinhala
FamilyName: notosanssinhala
Weight: Regular
Copyright: Copyright 2022 The Noto Project Authors (https://github.com/notofonts/sinhala)
Version: 2.006
ItalicAngle: 0
UnderlinePosition: -125
UnderlineWidth: 50
Ascent: 800
Descent: 200
InvalidEm: 0
sfntRevision: 0x00020189
LayerCount: 2
Layer: 0 1 "Back" 1
Layer: 1 1 "Fore" 0
XUID: [1021 238 -758118090 9961796]
StyleMap: 0x0040
FSType: 0
OS2Version: 4
OS2_WeightWidthSlopeOnly: 0
OS2_UseTypoMetrics: 1
CreationTime: 1461059370
ModificationTime: 1738533400
PfmFamily: 81
TTFWeight: 400
TTFWidth: 5
LineGap: 0
VLineGap: 0
Panose: 0 0 0 0 0 0 0 0 0 0
OS2TypoAscent: 1011
OS2TypoAOffset: 0
OS2TypoDescent: -293
OS2TypoDOffset: 0
OS2TypoLinegap: 0
OS2WinAscent: 1011
OS2WinAOffset: 0
OS2WinDescent: 293
OS2WinDOffset: 0
HheadAscent: 1011
HheadAOffset: 0
HheadDescent: -293
HheadDOffset: 0
OS2SubXSize: 650
OS2SubYSize: 600
OS2SubXOff: 0
OS2SubYOff: 75
OS2SupXSize: 650
OS2SupYSize: 600
OS2SupXOff: 0
OS2SupYOff: 350
OS2StrikeYSize: 50
OS2StrikeYPos: 322
OS2CapHeight: 612
OS2XHeight: 536
OS2Vendor: 'GOOG'
OS2CodePages: 00000093.00000000
OS2UnicodeRanges: 80008003.02002040.00000200.00000000
Lookup: 4 0 0 "Ligature Substitution lookup 0" { "Ligature Substitution lookup 0 subtable"  } []
Lookup: 4 0 0 "Ligature Substitution lookup 1" { "Ligature Substitution lookup 1 subtable"  } []
Lookup: 2 0 0 "Multiple Substitution lookup 2" { "Multiple Substitution lookup 2 subtable"  } []
Lookup: 4 0 0 "Ligature Substitution lookup 3" { "Ligature Substitution lookup 3 subtable"  } []
Lookup: 2 0 0 "Multiple Substitution lookup 4" { "Multiple Substitution lookup 4 subtable"  } []
Lookup: 1 0 0 "Single Substitution lookup 5" { "Single Substitution lookup 5 subtable"  } []
Lookup: 1 0 0 "Single Substitution lookup 6" { "Single Substitution lookup 6 subtable"  } []
Lookup: 1 0 0 "Single Substitution lookup 7" { "Single Substitution lookup 7 subtable"  } []

StartChar: .notdef
Encoding: 1114112 -1 0
Width: 600
Flags: W
LayerCount: 2
Fore
SplineSet
505 714 m 1,0,-1
 505 0 l 1,1,-1
 94 0 l 1,2,-1
 94 714 l 1,3,-1
 505 714 l 1,0,-1
454 663 m 1,4,-1
 145 663 l 1,5,-1
 145 51 l 1,6,-1
 454 51 l 1,7,-1
 454 663 l 1,4,-1
EndSplineSet
EndChar

StartChar: anusvarasinh
Encoding: 3458 3458 4
Width: 470
Flags: W
LayerCount: 2
Fore
SplineSet
34 266 m 0,0,1
 34 323 34 323 59 368 c 128,-1,2
 84 413 84 413 130 439.5 c 128,-1,3
 176 466 176 466 237 466 c 256,4,5
 298 466 298 466 342.5 439.5 c 128,-1,6
 387 413 387 413 411.5 368 c 128,-1,7
 436 323 436 323 436 266 c 0,8,9
 436 208 436 208 411 163 c 128,-1,10
 386 118 386 118 341 92 c 128,-1,11
 296 66 296 66 234 66 c 0,12,13
 173 66 173 66 128 92 c 128,-1,14
 83 118 83 118 58.5 163 c 128,-1,15
 34 208 34 208 34 266 c 0,0,1
107 268 m 0,16,17
 107 210 107 210 139 172.5 c 128,-1,18
 171 135 171 135 234 135 c 0,19,20
 298 135 298 135 330.5 172.5 c 128,-1,21
 363 210 363 210 363 269 c 0,22,23
 363 326 363 326 329.5 361.5 c 128,-1,24
 296 397 296 397 234 397 c 0,25,26
 173 397 173 397 140 360.5 c 128,-1,27
 107 324 107 324 107 268 c 0,16,17
EndSplineSet
EndChar

StartChar: visargasinh
Encoding: 3459 3459 5
Width: 318
Flags: W
LayerCount: 2
Fore
SplineSet
288 424 m 0,0,1
 288 367 288 367 253 333.5 c 128,-1,2
 218 300 218 300 160 300 c 0,3,4
 96 300 96 300 63 335.5 c 128,-1,5
 30 371 30 371 30 421 c 0,6,7
 30 474 30 474 65 509 c 128,-1,8
 100 544 100 544 158 544 c 0,9,10
 217 544 217 544 252.5 511.5 c 128,-1,11
 288 479 288 479 288 424 c 0,0,1
224 423 m 0,12,13
 224 449 224 449 207.5 466.5 c 128,-1,14
 191 484 191 484 159 484 c 0,15,16
 130 484 130 484 112 467.5 c 128,-1,17
 94 451 94 451 94 420 c 0,18,19
 94 398 94 398 109 379 c 128,-1,20
 124 360 124 360 157 360 c 0,21,22
 186 360 186 360 205 376 c 128,-1,23
 224 392 224 392 224 423 c 0,12,13
288 124 m 0,24,25
 288 67 288 67 253 33.5 c 128,-1,26
 218 0 218 0 160 0 c 0,27,28
 96 0 96 0 63 35 c 128,-1,29
 30 70 30 70 30 121 c 0,30,31
 30 174 30 174 65 209 c 128,-1,32
 100 244 100 244 158 244 c 0,33,34
 217 244 217 244 252.5 211 c 128,-1,35
 288 178 288 178 288 124 c 0,24,25
224 124 m 0,36,37
 224 149 224 149 207.5 166.5 c 128,-1,38
 191 184 191 184 159 184 c 0,39,40
 130 184 130 184 112 167.5 c 128,-1,41
 94 151 94 151 94 120 c 0,42,43
 94 98 94 98 109 79 c 128,-1,44
 124 60 124 60 157 60 c 0,45,46
 186 60 186 60 205 76.5 c 128,-1,47
 224 93 224 93 224 124 c 0,36,37
EndSplineSet
EndChar

StartChar: asinh
Encoding: 3461 3461 6
Width: 708
Flags: W
LayerCount: 2
Fore
SplineSet
344 -11 m 0,0,1
 251 -11 251 -11 182 16.5 c 128,-1,2
 113 44 113 44 74.5 98.5 c 128,-1,3
 36 153 36 153 36 233 c 0,4,5
 36 300 36 300 65.5 345 c 128,-1,6
 95 390 95 390 143 415 c 0,7,8
 172 430 172 430 204.5 439 c 128,-1,9
 237 448 237 448 281.5 451.5 c 128,-1,10
 326 455 326 455 389 455 c 2,11,-1
 456 455 l 1,12,13
 453 502 453 502 426.5 524 c 128,-1,14
 400 546 400 546 359 546 c 0,15,16
 320 546 320 546 300 531.5 c 128,-1,17
 280 517 280 517 280 492 c 0,18,19
 280 488 280 488 280.5 484 c 128,-1,20
 281 480 281 480 281 477 c 2,21,-1
 210 468 l 1,22,23
 209 477 209 477 208.5 485 c 128,-1,24
 208 493 208 493 208 499 c 0,25,26
 208 554 208 554 247 583 c 128,-1,27
 286 612 286 612 354 612 c 0,28,29
 392 612 392 612 422.5 600 c 128,-1,30
 453 588 453 588 474 564.5 c 128,-1,31
 495 541 495 541 506 507.5 c 128,-1,32
 517 474 517 474 517 430 c 2,33,-1
 517 389 l 1,34,-1
 396 389 l 2,35,36
 326 389 326 389 284.5 385 c 128,-1,37
 243 381 243 381 218 373 c 128,-1,38
 193 365 193 365 172 352 c 0,39,40
 143 334 143 334 127.5 303.5 c 128,-1,41
 112 273 112 273 112 229 c 256,42,43
 112 185 112 185 135 146.5 c 128,-1,44
 158 108 158 108 210.5 84 c 128,-1,45
 263 60 263 60 352 60 c 0,46,47
 387 60 387 60 419 61.5 c 128,-1,48
 451 63 451 63 482 70 c 2,49,-1
 502 72 l 2,50,51
 527 77 527 77 550 86.5 c 128,-1,52
 573 96 573 96 598 109 c 1,53,-1
 624 42 l 1,54,55
 578 21 578 21 529.5 9.5 c 128,-1,56
 481 -2 481 -2 434 -6.5 c 128,-1,57
 387 -11 387 -11 344 -11 c 0,0,1
456 -202 m 1,58,-1
 456 393 l 1,59,60
 461 439 461 439 475 478 c 128,-1,61
 489 517 489 517 513 550.5 c 128,-1,62
 537 584 537 584 571 613 c 1,63,-1
 626 569 l 1,64,65
 612 558 612 558 600 547 c 128,-1,66
 588 536 588 536 578 526 c 0,67,68
 556 503 556 503 545 481.5 c 128,-1,69
 534 460 534 460 530 437.5 c 128,-1,70
 526 415 526 415 526 389 c 2,71,-1
 526 -202 l 1,72,-1
 456 -202 l 1,58,-1
566 275 m 0,73,74
 544 275 544 275 514 283 c 128,-1,75
 484 291 484 291 463 310 c 1,76,-1
 478 366 l 1,77,78
 504 350 504 350 524 345.5 c 128,-1,79
 544 341 544 341 562 341 c 0,80,81
 595 341 595 341 608 352 c 128,-1,82
 621 363 621 363 621 384 c 0,83,84
 621 403 621 403 613.5 418.5 c 128,-1,85
 606 434 606 434 592 456 c 0,86,87
 576 480 576 480 569 497.5 c 128,-1,88
 562 515 562 515 562 536 c 1,89,-1
 626 569 l 1,90,91
 623 564 623 564 621.5 560 c 128,-1,92
 620 556 620 556 620 548 c 0,93,94
 620 537 620 537 627 523 c 128,-1,95
 634 509 634 509 653 479 c 0,96,97
 671 452 671 452 682 427.5 c 128,-1,98
 693 403 693 403 693 376 c 0,99,100
 693 348 693 348 681 325 c 128,-1,101
 669 302 669 302 641.5 288.5 c 128,-1,102
 614 275 614 275 566 275 c 0,73,74
EndSplineSet
EndChar

StartChar: isinh
Encoding: 3465 3465 10
Width: 763
Flags: W
LayerCount: 2
Fore
SplineSet
275 73 m 0,0,1
 206 73 206 73 151.5 100.5 c 128,-1,2
 97 128 97 128 65.5 182.5 c 128,-1,3
 34 237 34 237 34 319 c 0,4,5
 34 393 34 393 61.5 447.5 c 128,-1,6
 89 502 89 502 137 539 c 128,-1,7
 185 576 185 576 247.5 594 c 128,-1,8
 310 612 310 612 381 612 c 0,9,10
 498 612 498 612 575 572.5 c 128,-1,11
 652 533 652 533 689.5 463 c 128,-1,12
 727 393 727 393 727 301 c 0,13,14
 727 235 727 235 708 180 c 128,-1,15
 689 125 689 125 649 84.5 c 128,-1,16
 609 44 609 44 546.5 22 c 128,-1,17
 484 0 484 0 398 0 c 1,18,-1
 399 68 l 1,19,20
 484 68 484 68 540 95 c 128,-1,21
 596 122 596 122 624.5 174 c 128,-1,22
 653 226 653 226 653 299 c 0,23,24
 653 364 653 364 626 419.5 c 128,-1,25
 599 475 599 475 539 509.5 c 128,-1,26
 479 544 479 544 381 544 c 0,27,28
 310 544 310 544 247 521.5 c 128,-1,29
 184 499 184 499 145.5 449 c 128,-1,30
 107 399 107 399 107 316 c 0,31,32
 107 252 107 252 129.5 213.5 c 128,-1,33
 152 175 152 175 192 157.5 c 128,-1,34
 232 140 232 140 282 140 c 0,35,36
 314 140 314 140 346.5 149 c 128,-1,37
 379 158 379 158 403 184 c 128,-1,38
 427 210 427 210 433 261 c 2,39,-1
 434 271 l 1,40,41
 434 316 434 316 413.5 340.5 c 128,-1,42
 393 365 393 365 357 365 c 0,43,44
 334 365 334 365 315.5 355 c 128,-1,45
 297 345 297 345 297 317 c 0,46,47
 297 295 297 295 313.5 282 c 128,-1,48
 330 269 330 269 353 269 c 0,49,50
 385 269 385 269 408 278 c 128,-1,51
 431 287 431 287 458 308 c 1,52,-1
 454 250 l 1,53,54
 437 231 437 231 406.5 218.5 c 128,-1,55
 376 206 376 206 343 206 c 0,56,57
 285 206 285 206 255.5 238 c 128,-1,58
 226 270 226 270 226 319 c 0,59,60
 226 348 226 348 240 373.5 c 128,-1,61
 254 399 254 399 283.5 415 c 128,-1,62
 313 431 313 431 359 431 c 0,63,64
 392 431 392 431 425.5 416.5 c 128,-1,65
 459 402 459 402 481 367.5 c 128,-1,66
 503 333 503 333 503 272 c 0,67,68
 503 206 503 206 473 161.5 c 128,-1,69
 443 117 443 117 391.5 95 c 128,-1,70
 340 73 340 73 275 73 c 0,0,1
378 -217 m 0,71,72
 304 -217 304 -217 261.5 -191.5 c 128,-1,73
 219 -166 219 -166 202 -126 c 128,-1,74
 185 -86 185 -86 185 -43 c 0,75,76
 185 -30 185 -30 186.5 -19.5 c 128,-1,77
 188 -9 188 -9 189 0 c 1,78,-1
 259 -5 l 1,79,80
 258 -15 258 -15 257.5 -24 c 128,-1,81
 257 -33 257 -33 257 -40 c 0,82,83
 257 -65 257 -65 265 -90 c 128,-1,84
 273 -115 273 -115 299 -131.5 c 128,-1,85
 325 -148 325 -148 379 -148 c 0,86,87
 424 -148 424 -148 452 -135.5 c 128,-1,88
 480 -123 480 -123 493 -101 c 128,-1,89
 506 -79 506 -79 506 -51 c 0,90,91
 506 -24 506 -24 500.5 -0.5 c 128,-1,92
 495 23 495 23 483 43 c 1,93,-1
 497 62 l 1,94,-1
 554 65 l 1,95,96
 565 44 565 44 572 14 c 128,-1,97
 579 -16 579 -16 579 -53 c 0,98,99
 579 -96 579 -96 560 -133.5 c 128,-1,100
 541 -171 541 -171 497.5 -194 c 128,-1,101
 454 -217 454 -217 378 -217 c 0,71,72
EndSplineSet
EndChar

StartChar: iisinh
Encoding: 3466 3466 11
Width: 702
Flags: W
LayerCount: 2
Fore
SplineSet
341 -11 m 0,0,1
 245 -11 245 -11 176.5 23 c 128,-1,2
 108 57 108 57 72 121.5 c 128,-1,3
 36 186 36 186 36 277 c 0,4,5
 36 339 36 339 54.5 386.5 c 128,-1,6
 73 434 73 434 106.5 469.5 c 128,-1,7
 140 505 140 505 186.5 531.5 c 128,-1,8
 233 558 233 558 289 579 c 1,9,10
 329 602 329 602 363.5 631 c 128,-1,11
 398 660 398 660 435 702 c 128,-1,12
 472 744 472 744 518 805 c 1,13,-1
 578 766 l 1,14,15
 530 700 530 700 492.5 659 c 128,-1,16
 455 618 455 618 421 592 c 128,-1,17
 387 566 387 566 348 543 c 1,18,-1
 320 521 l 1,19,20
 235 493 235 493 189 455 c 128,-1,21
 143 417 143 417 126 372.5 c 128,-1,22
 109 328 109 328 109 279 c 0,23,24
 109 215 109 215 133.5 165.5 c 128,-1,25
 158 116 158 116 210 88 c 128,-1,26
 262 60 262 60 343 60 c 0,27,28
 430 60 430 60 485 89 c 128,-1,29
 540 118 540 118 566.5 168 c 128,-1,30
 593 218 593 218 593 281 c 0,31,32
 593 352 593 352 563 402.5 c 128,-1,33
 533 453 533 453 478.5 479.5 c 128,-1,34
 424 506 424 506 349 506 c 0,35,36
 329 506 329 506 305.5 503.5 c 128,-1,37
 282 501 282 501 258.5 496.5 c 128,-1,38
 235 492 235 492 214 485 c 1,39,-1
 289 555 l 2,40,41
 300 560 300 560 312 562 c 128,-1,42
 324 564 324 564 338.5 565 c 128,-1,43
 353 566 353 566 373 566 c 0,44,45
 458 566 458 566 524 534 c 128,-1,46
 590 502 590 502 628 439 c 128,-1,47
 666 376 666 376 666 283 c 256,48,49
 666 190 666 190 626 124 c 128,-1,50
 586 58 586 58 513.5 23.5 c 128,-1,51
 441 -11 441 -11 341 -11 c 0,0,1
375 717 m 0,52,53
 375 675 375 675 349.5 650.5 c 128,-1,54
 324 626 324 626 282 626 c 0,55,56
 235 626 235 626 211 652 c 128,-1,57
 187 678 187 678 187 715 c 0,58,59
 187 753 187 753 212.5 779 c 128,-1,60
 238 805 238 805 281 805 c 256,61,62
 324 805 324 805 349.5 781.5 c 128,-1,63
 375 758 375 758 375 717 c 0,52,53
323 716 m 0,64,65
 323 733 323 733 312.5 744.5 c 128,-1,66
 302 756 302 756 282 756 c 0,67,68
 263 756 263 756 251.5 745 c 128,-1,69
 240 734 240 734 240 714 c 0,70,71
 240 701 240 701 249.5 688.5 c 128,-1,72
 259 676 259 676 281 676 c 0,73,74
 300 676 300 676 311.5 686.5 c 128,-1,75
 323 697 323 697 323 716 c 0,64,65
710 622 m 0,76,77
 710 580 710 580 684.5 555.5 c 128,-1,78
 659 531 659 531 617 531 c 0,79,80
 570 531 570 531 546 557 c 128,-1,81
 522 583 522 583 522 620 c 0,82,83
 522 658 522 658 547.5 684 c 128,-1,84
 573 710 573 710 616 710 c 256,85,86
 659 710 659 710 684.5 686 c 128,-1,87
 710 662 710 662 710 622 c 0,76,77
658 622 m 0,88,89
 658 638 658 638 647.5 649.5 c 128,-1,90
 637 661 637 661 617 661 c 0,91,92
 598 661 598 661 586.5 650 c 128,-1,93
 575 639 575 639 575 619 c 0,94,95
 575 606 575 606 584 593.5 c 128,-1,96
 593 581 593 581 615 581 c 0,97,98
 634 581 634 581 646 592 c 128,-1,99
 658 603 658 603 658 622 c 0,88,89
EndSplineSet
EndChar

StartChar: usinh
Encoding: 3467 3467 12
Width: 706
Flags: W
LayerCount: 2
Fore
SplineSet
384 -211 m 0,0,1
 286 -211 286 -211 218.5 -185 c 128,-1,2
 151 -159 151 -159 109.5 -113 c 128,-1,3
 68 -67 68 -67 49.5 -8.5 c 128,-1,4
 31 50 31 50 31 114 c 0,5,6
 31 200 31 200 58 260 c 128,-1,7
 85 320 85 320 133 360 c 0,8,9
 175 394 175 394 227.5 415 c 128,-1,10
 280 436 280 436 348.5 445.5 c 128,-1,11
 417 455 417 455 506 455 c 2,12,-1
 584 455 l 1,13,14
 581 502 581 502 554 524 c 128,-1,15
 527 546 527 546 479 546 c 0,16,17
 434 546 434 546 417 531.5 c 128,-1,18
 400 517 400 517 400 492 c 0,19,20
 400 488 400 488 400.5 484 c 128,-1,21
 401 480 401 480 401 477 c 2,22,-1
 330 468 l 1,23,24
 329 477 329 477 328.5 485 c 128,-1,25
 328 493 328 493 328 499 c 0,26,27
 328 554 328 554 366.5 583 c 128,-1,28
 405 612 405 612 475 612 c 0,29,30
 535 612 535 612 575 591.5 c 128,-1,31
 615 571 615 571 635 530.5 c 128,-1,32
 655 490 655 490 655 430 c 2,33,-1
 655 389 l 1,34,-1
 542 389 l 2,35,36
 399 389 399 389 312.5 369.5 c 128,-1,37
 226 350 226 350 175 301 c 0,38,39
 141 269 141 269 123.5 222.5 c 128,-1,40
 106 176 106 176 106 111 c 0,41,42
 106 36 106 36 136.5 -20.5 c 128,-1,43
 167 -77 167 -77 228.5 -108.5 c 128,-1,44
 290 -140 290 -140 382 -140 c 0,45,46
 450 -140 450 -140 506.5 -120 c 128,-1,47
 563 -100 563 -100 597.5 -58 c 128,-1,48
 632 -16 632 -16 632 51 c 0,49,50
 632 56 632 56 632 63 c 128,-1,51
 632 70 632 70 631 77 c 1,52,-1
 704 81 l 1,53,54
 705 75 705 75 705.5 66 c 128,-1,55
 706 57 706 57 706 46 c 0,56,57
 706 -39 706 -39 662 -96 c 128,-1,58
 618 -153 618 -153 545 -182 c 128,-1,59
 472 -211 472 -211 384 -211 c 0,0,1
EndSplineSet
EndChar

StartChar: rvocalicsinh
Encoding: 3469 3469 14
Width: 1261
Flags: W
LayerCount: 2
Fore
SplineSet
576 -11 m 0,0,1
 531 -11 531 -11 499.5 1 c 128,-1,2
 468 13 468 13 445.5 33 c 128,-1,3
 423 53 423 53 406 77 c 1,4,5
 387 52 387 52 364.5 32 c 128,-1,6
 342 12 342 12 311.5 0.5 c 128,-1,7
 281 -11 281 -11 236 -11 c 0,8,9
 177 -11 177 -11 132 15.5 c 128,-1,10
 87 42 87 42 61.5 93 c 128,-1,11
 36 144 36 144 36 217 c 0,12,13
 36 289 36 289 60 335 c 128,-1,14
 84 381 84 381 124.5 407.5 c 128,-1,15
 165 434 165 434 216.5 444.5 c 128,-1,16
 268 455 268 455 323 455 c 2,17,-1
 336 455 l 1,18,-1
 319 452 l 1,19,20
 318 501 318 501 291.5 523.5 c 128,-1,21
 265 546 265 546 226 546 c 0,22,23
 189 546 189 546 169.5 531 c 128,-1,24
 150 516 150 516 150 487 c 0,25,26
 150 482 150 482 151.5 472.5 c 128,-1,27
 153 463 153 463 154 458 c 1,28,-1
 84 446 l 1,29,30
 80 458 80 458 78.5 470.5 c 128,-1,31
 77 483 77 483 77 496 c 0,32,33
 77 553 77 553 115 582.5 c 128,-1,34
 153 612 153 612 220 612 c 0,35,36
 275 612 275 612 312.5 591.5 c 128,-1,37
 350 571 350 571 370 530.5 c 128,-1,38
 390 490 390 490 390 430 c 2,39,-1
 390 389 l 1,40,-1
 349 389 l 2,41,42
 283 389 283 389 238 379.5 c 128,-1,43
 193 370 193 370 163 349 c 0,44,45
 134 328 134 328 121.5 296 c 128,-1,46
 109 264 109 264 109 218 c 0,47,48
 109 138 109 138 143 99 c 128,-1,49
 177 60 177 60 238 60 c 0,50,51
 277 60 277 60 303 70.5 c 128,-1,52
 329 81 329 81 344 100.5 c 128,-1,53
 359 120 359 120 365.5 147.5 c 128,-1,54
 372 175 372 175 372 208 c 2,55,-1
 372 214 l 1,56,-1
 439 214 l 1,57,-1
 439 208 l 2,58,59
 439 176 439 176 445.5 149 c 128,-1,60
 452 122 452 122 467 102 c 128,-1,61
 482 82 482 82 508 71 c 128,-1,62
 534 60 534 60 573 60 c 0,63,64
 635 60 635 60 668.5 99 c 128,-1,65
 702 138 702 138 702 218 c 0,66,67
 702 264 702 264 689.5 296 c 128,-1,68
 677 328 677 328 648 349 c 0,69,70
 618 370 618 370 573 379.5 c 128,-1,71
 528 389 528 389 461 389 c 2,72,-1
 422 389 l 1,73,-1
 422 430 l 2,74,75
 422 490 422 490 442 530.5 c 128,-1,76
 462 571 462 571 500 591.5 c 128,-1,77
 538 612 538 612 592 612 c 0,78,79
 658 612 658 612 696.5 582.5 c 128,-1,80
 735 553 735 553 735 496 c 0,81,82
 735 483 735 483 733.5 470.5 c 128,-1,83
 732 458 732 458 729 446 c 1,84,-1
 658 458 l 1,85,86
 660 463 660 463 661 472.5 c 128,-1,87
 662 482 662 482 662 487 c 0,88,89
 662 516 662 516 643 531 c 128,-1,90
 624 546 624 546 586 546 c 0,91,92
 547 546 547 546 521 523.5 c 128,-1,93
 495 501 495 501 493 452 c 1,94,-1
 473 455 l 1,95,-1
 488 455 l 2,96,97
 543 455 543 455 594.5 444.5 c 128,-1,98
 646 434 646 434 686.5 407.5 c 128,-1,99
 727 381 727 381 751 335 c 128,-1,100
 775 289 775 289 775 217 c 0,101,102
 775 140 775 140 748.5 89.5 c 128,-1,103
 722 39 722 39 677 14 c 128,-1,104
 632 -11 632 -11 576 -11 c 0,0,1
989 -11 m 0,105,106
 923 -11 923 -11 881.5 31.5 c 128,-1,107
 840 74 840 74 840 153 c 0,108,109
 840 203 840 203 858.5 238 c 128,-1,110
 877 273 877 273 911 295 c 0,111,112
 932 309 932 309 959.5 318.5 c 128,-1,113
 987 328 987 328 1029 332.5 c 128,-1,114
 1071 337 1071 337 1137 337 c 2,115,-1
 1175 337 l 1,116,-1
 1161 271 l 1,117,-1
 1103 271 l 2,118,119
 1039 271 1039 271 1008.5 263.5 c 128,-1,120
 978 256 978 256 958 245 c 0,121,122
 933 230 933 230 923.5 205.5 c 128,-1,123
 914 181 914 181 914 153 c 0,124,125
 914 118 914 118 925.5 97 c 128,-1,126
 937 76 937 76 956.5 67 c 128,-1,127
 976 58 976 58 1000 58 c 0,128,129
 1027 58 1027 58 1046 65 c 128,-1,130
 1065 72 1065 72 1081 85 c 1,131,-1
 1122 85 l 1,132,-1
 1187 45 l 1,133,-1
 1146 0 l 1,134,-1
 1106 24 l 1,135,136
 1081 7 1081 7 1055 -2 c 128,-1,137
 1029 -11 1029 -11 989 -11 c 0,105,106
1146 0 m 1,138,-1
 1137 50 l 1,139,-1
 1137 307 l 2,140,141
 1137 363 1137 363 1126 400 c 128,-1,142
 1115 437 1115 437 1089 458 c 0,143,144
 1073 472 1073 472 1049 479 c 128,-1,145
 1025 486 1025 486 993 486 c 0,146,147
 954 486 954 486 923 479.5 c 128,-1,148
 892 473 892 473 870 465 c 1,149,-1
 849 530 l 1,150,151
 880 541 880 541 916 548 c 128,-1,152
 952 555 952 555 992 555 c 0,153,154
 1044 555 1044 555 1080.5 543.5 c 128,-1,155
 1117 532 1117 532 1143 509 c 0,156,157
 1168 487 1168 487 1182.5 458.5 c 128,-1,158
 1197 430 1197 430 1203.5 389 c 128,-1,159
 1210 348 1210 348 1210 290 c 2,160,-1
 1210 0 l 1,161,-1
 1146 0 l 1,138,-1
EndSplineSet
EndChar

StartChar: rrvocalicsinh
Encoding: 3470 3470 15
Width: 1705
Flags: W
LayerCount: 2
Fore
SplineSet
576 -11 m 0,0,1
 531 -11 531 -11 499.5 1 c 128,-1,2
 468 13 468 13 445.5 33 c 128,-1,3
 423 53 423 53 406 77 c 1,4,5
 387 52 387 52 364.5 32 c 128,-1,6
 342 12 342 12 311.5 0.5 c 128,-1,7
 281 -11 281 -11 236 -11 c 0,8,9
 177 -11 177 -11 132 15.5 c 128,-1,10
 87 42 87 42 61.5 93 c 128,-1,11
 36 144 36 144 36 217 c 0,12,13
 36 289 36 289 60 335 c 128,-1,14
 84 381 84 381 124.5 407.5 c 128,-1,15
 165 434 165 434 216.5 444.5 c 128,-1,16
 268 455 268 455 323 455 c 2,17,-1
 336 455 l 1,18,-1
 319 452 l 1,19,20
 318 501 318 501 291.5 523.5 c 128,-1,21
 265 546 265 546 226 546 c 0,22,23
 189 546 189 546 169.5 531 c 128,-1,24
 150 516 150 516 150 487 c 0,25,26
 150 482 150 482 151.5 472.5 c 128,-1,27
 153 463 153 463 154 458 c 1,28,-1
 84 446 l 1,29,30
 80 458 80 458 78.5 470.5 c 128,-1,31
 77 483 77 483 77 496 c 0,32,33
 77 553 77 553 115 582.5 c 128,-1,34
 153 612 153 612 220 612 c 0,35,36
 275 612 275 612 312.5 591.5 c 128,-1,37
 350 571 350 571 370 530.5 c 128,-1,38
 390 490 390 490 390 430 c 2,39,-1
 390 389 l 1,40,-1
 349 389 l 2,41,42
 283 389 283 389 238 379.5 c 128,-1,43
 193 370 193 370 163 349 c 0,44,45
 134 328 134 328 121.5 296 c 128,-1,46
 109 264 109 264 109 218 c 0,47,48
 109 138 109 138 143 99 c 128,-1,49
 177 60 177 60 238 60 c 0,50,51
 277 60 277 60 303 70.5 c 128,-1,52
 329 81 329 81 344 100.5 c 128,-1,53
 359 120 359 120 365.5 147.5 c 128,-1,54
 372 175 372 175 372 208 c 2,55,-1
 372 214 l 1,56,-1
 439 214 l 1,57,-1
 439 208 l 2,58,59
 439 176 439 176 445.5 149 c 128,-1,60
 452 122 452 122 467 102 c 128,-1,61
 482 82 482 82 508 71 c 128,-1,62
 534 60 534 60 573 60 c 0,63,64
 635 60 635 60 668.5 99 c 128,-1,65
 702 138 702 138 702 218 c 0,66,67
 702 264 702 264 689.5 296 c 128,-1,68
 677 328 677 328 648 349 c 0,69,70
 618 370 618 370 573 379.5 c 128,-1,71
 528 389 528 389 461 389 c 2,72,-1
 422 389 l 1,73,-1
 422 430 l 2,74,75
 422 490 422 490 442 530.5 c 128,-1,76
 462 571 462 571 500 591.5 c 128,-1,77
 538 612 538 612 592 612 c 0,78,79
 658 612 658 612 696.5 582.5 c 128,-1,80
 735 553 735 553 735 496 c 0,81,82
 735 483 735 483 733.5 470.5 c 128,-1,83
 732 458 732 458 729 446 c 1,84,-1
 658 458 l 1,85,86
 660 463 660 463 661 472.5 c 128,-1,87
 662 482 662 482 662 487 c 0,88,89
 662 516 662 516 643 531 c 128,-1,90
 624 546 624 546 586 546 c 0,91,92
 547 546 547 546 521 523.5 c 128,-1,93
 495 501 495 501 493 452 c 1,94,-1
 473 455 l 1,95,-1
 488 455 l 2,96,97
 543 455 543 455 594.5 444.5 c 128,-1,98
 646 434 646 434 686.5 407.5 c 128,-1,99
 727 381 727 381 751 335 c 128,-1,100
 775 289 775 289 775 217 c 0,101,102
 775 140 775 140 748.5 89.5 c 128,-1,103
 722 39 722 39 677 14 c 128,-1,104
 632 -11 632 -11 576 -11 c 0,0,1
989 -11 m 0,105,106
 923 -11 923 -11 881.5 31.5 c 128,-1,107
 840 74 840 74 840 153 c 0,108,109
 840 203 840 203 858.5 238 c 128,-1,110
 877 273 877 273 911 295 c 0,111,112
 932 309 932 309 959.5 318.5 c 128,-1,113
 987 328 987 328 1029 332.5 c 128,-1,114
 1071 337 1071 337 1137 337 c 2,115,-1
 1175 337 l 1,116,-1
 1161 271 l 1,117,-1
 1103 271 l 2,118,119
 1039 271 1039 271 1008.5 263.5 c 128,-1,120
 978 256 978 256 958 245 c 0,121,122
 933 230 933 230 923.5 205.5 c 128,-1,123
 914 181 914 181 914 153 c 0,124,125
 914 118 914 118 925.5 97 c 128,-1,126
 937 76 937 76 956.5 67 c 128,-1,127
 976 58 976 58 1000 58 c 0,128,129
 1027 58 1027 58 1046 65 c 128,-1,130
 1065 72 1065 72 1081 85 c 1,131,-1
 1122 85 l 1,132,-1
 1187 45 l 1,133,-1
 1146 0 l 1,134,-1
 1106 24 l 1,135,136
 1081 7 1081 7 1055 -2 c 128,-1,137
 1029 -11 1029 -11 989 -11 c 0,105,106
1146 0 m 1,138,-1
 1137 50 l 1,139,-1
 1137 307 l 2,140,141
 1137 363 1137 363 1126 400 c 128,-1,142
 1115 437 1115 437 1089 458 c 0,143,144
 1073 472 1073 472 1049 479 c 128,-1,145
 1025 486 1025 486 993 486 c 0,146,147
 954 486 954 486 923 479.5 c 128,-1,148
 892 473 892 473 870 465 c 1,149,-1
 849 530 l 1,150,151
 880 541 880 541 916 548 c 128,-1,152
 952 555 952 555 992 555 c 0,153,154
 1044 555 1044 555 1080.5 543.5 c 128,-1,155
 1117 532 1117 532 1143 509 c 0,156,157
 1168 487 1168 487 1182.5 458.5 c 128,-1,158
 1197 430 1197 430 1203.5 389 c 128,-1,159
 1210 348 1210 348 1210 290 c 2,160,-1
 1210 0 l 1,161,-1
 1146 0 l 1,138,-1
1433 -11 m 0,162,163
 1367 -11 1367 -11 1325.5 31.5 c 128,-1,164
 1284 74 1284 74 1284 153 c 0,165,166
 1284 203 1284 203 1302.5 238 c 128,-1,167
 1321 273 1321 273 1355 295 c 0,168,169
 1376 309 1376 309 1403.5 318.5 c 128,-1,170
 1431 328 1431 328 1473 332.5 c 128,-1,171
 1515 337 1515 337 1581 337 c 2,172,-1
 1619 337 l 1,173,-1
 1605 271 l 1,174,-1
 1547 271 l 2,175,176
 1483 271 1483 271 1452.5 263.5 c 128,-1,177
 1422 256 1422 256 1402 245 c 0,178,179
 1377 230 1377 230 1367.5 205.5 c 128,-1,180
 1358 181 1358 181 1358 153 c 0,181,182
 1358 118 1358 118 1369.5 97 c 128,-1,183
 1381 76 1381 76 1400.5 67 c 128,-1,184
 1420 58 1420 58 1444 58 c 0,185,186
 1471 58 1471 58 1490 65 c 128,-1,187
 1509 72 1509 72 1525 85 c 1,188,-1
 1566 85 l 1,189,-1
 1631 45 l 1,190,-1
 1590 0 l 1,191,-1
 1550 24 l 1,192,193
 1525 7 1525 7 1499 -2 c 128,-1,194
 1473 -11 1473 -11 1433 -11 c 0,162,163
1590 0 m 1,195,-1
 1581 50 l 1,196,-1
 1581 307 l 2,197,198
 1581 363 1581 363 1570 400 c 128,-1,199
 1559 437 1559 437 1533 458 c 0,200,201
 1517 472 1517 472 1493 479 c 128,-1,202
 1469 486 1469 486 1437 486 c 0,203,204
 1398 486 1398 486 1367 479.5 c 128,-1,205
 1336 473 1336 473 1314 465 c 1,206,-1
 1293 530 l 1,207,208
 1324 541 1324 541 1360 548 c 128,-1,209
 1396 555 1396 555 1436 555 c 0,210,211
 1488 555 1488 555 1524.5 543.5 c 128,-1,212
 1561 532 1561 532 1587 509 c 0,213,214
 1612 487 1612 487 1626.5 458.5 c 128,-1,215
 1641 430 1641 430 1647.5 389 c 128,-1,216
 1654 348 1654 348 1654 290 c 2,217,-1
 1654 0 l 1,218,-1
 1590 0 l 1,195,-1
EndSplineSet
EndChar

StartChar: lvocalicsinh
Encoding: 3471 3471 16
Width: 1058
Flags: W
LayerCount: 2
Fore
SplineSet
528 -11 m 0,0,1
 408 -11 408 -11 328.5 20.5 c 128,-1,2
 249 52 249 52 209.5 111 c 128,-1,3
 170 170 170 170 170 251 c 0,4,5
 170 317 170 317 198 362.5 c 128,-1,6
 226 408 226 408 283 431.5 c 128,-1,7
 340 455 340 455 427 455 c 2,8,-1
 449 455 l 1,9,-1
 442 452 l 1,10,11
 441 501 441 501 414.5 523.5 c 128,-1,12
 388 546 388 546 350 546 c 256,13,14
 312 546 312 546 292.5 531 c 128,-1,15
 273 516 273 516 273 487 c 0,16,17
 273 482 273 482 274.5 472.5 c 128,-1,18
 276 463 276 463 277 458 c 1,19,-1
 207 446 l 1,20,21
 204 458 204 458 203 470.5 c 128,-1,22
 202 483 202 483 202 495 c 0,23,24
 202 527 202 527 219 553.5 c 128,-1,25
 236 580 236 580 267.5 596 c 128,-1,26
 299 612 299 612 344 612 c 0,27,28
 398 612 398 612 436 591.5 c 128,-1,29
 474 571 474 571 493.5 530.5 c 128,-1,30
 513 490 513 490 513 430 c 2,31,-1
 513 389 l 1,32,-1
 448 389 l 2,33,34
 381 389 381 389 343 380 c 128,-1,35
 305 371 305 371 282 351 c 0,36,37
 263 335 263 335 253 309.5 c 128,-1,38
 243 284 243 284 243 249 c 0,39,40
 243 196 243 196 272 153 c 128,-1,41
 301 110 301 110 364.5 85 c 128,-1,42
 428 60 428 60 529 60 c 256,43,44
 630 60 630 60 693 85 c 128,-1,45
 756 110 756 110 785.5 152.5 c 128,-1,46
 815 195 815 195 815 249 c 0,47,48
 815 284 815 284 805 309.5 c 128,-1,49
 795 335 795 335 776 351 c 0,50,51
 753 371 753 371 715 380 c 128,-1,52
 677 389 677 389 609 389 c 2,53,-1
 545 389 l 1,54,-1
 545 430 l 2,55,56
 545 490 545 490 565 530.5 c 128,-1,57
 585 571 585 571 622.5 591.5 c 128,-1,58
 660 612 660 612 714 612 c 0,59,60
 759 612 759 612 790.5 595.5 c 128,-1,61
 822 579 822 579 839 552.5 c 128,-1,62
 856 526 856 526 856 495 c 0,63,64
 856 483 856 483 855 470.5 c 128,-1,65
 854 458 854 458 852 446 c 1,66,-1
 781 458 l 1,67,68
 783 463 783 463 784 472.5 c 128,-1,69
 785 482 785 482 785 487 c 0,70,71
 785 516 785 516 766 531 c 128,-1,72
 747 546 747 546 709 546 c 256,73,74
 671 546 671 546 644.5 523.5 c 128,-1,75
 618 501 618 501 616 452 c 1,76,-1
 612 455 l 1,77,-1
 632 455 l 2,78,79
 720 455 720 455 776.5 431.5 c 128,-1,80
 833 408 833 408 860.5 362.5 c 128,-1,81
 888 317 888 317 888 251 c 0,82,83
 888 169 888 169 848.5 110.5 c 128,-1,84
 809 52 809 52 729.5 20.5 c 128,-1,85
 650 -11 650 -11 528 -11 c 0,0,1
36 315 m 0,86,87
 36 414 36 414 75 480 c 128,-1,88
 114 546 114 546 181 579 c 128,-1,89
 248 612 248 612 332 612 c 0,90,91
 342 612 342 612 355.5 609.5 c 128,-1,92
 369 607 369 607 385 603 c 128,-1,93
 401 599 401 599 417 592 c 1,94,-1
 357 547 l 2,95,96
 352 547 352 547 343 548 c 128,-1,97
 334 549 334 549 331 549 c 0,98,99
 306 549 306 549 288 548 c 128,-1,100
 270 547 270 547 265 545 c 0,101,102
 190 524 190 524 149.5 466 c 128,-1,103
 109 408 109 408 109 312 c 0,104,105
 109 258 109 258 122.5 209 c 128,-1,106
 136 160 136 160 165 119 c 1,107,-1
 99 83 l 1,108,109
 73 126 73 126 54.5 185.5 c 128,-1,110
 36 245 36 245 36 315 c 0,86,87
1022 315 m 0,111,112
 1022 245 1022 245 1003.5 185.5 c 128,-1,113
 985 126 985 126 959 83 c 1,114,-1
 894 119 l 1,115,116
 923 160 923 160 936 209 c 128,-1,117
 949 258 949 258 949 312 c 0,118,119
 949 408 949 408 909 466 c 128,-1,120
 869 524 869 524 793 545 c 0,121,122
 788 547 788 547 770 548 c 128,-1,123
 752 549 752 549 727 549 c 0,124,125
 724 549 724 549 715 548 c 128,-1,126
 706 547 706 547 701 547 c 2,127,-1
 642 592 l 1,128,129
 658 599 658 599 673.5 603 c 128,-1,130
 689 607 689 607 703 609.5 c 128,-1,131
 717 612 717 612 727 612 c 0,132,133
 810 612 810 612 877 579 c 128,-1,134
 944 546 944 546 983 480 c 128,-1,135
 1022 414 1022 414 1022 315 c 0,111,112
EndSplineSet
EndChar

StartChar: esinh
Encoding: 3473 3473 18
Width: 814
Flags: W
LayerCount: 2
Fore
SplineSet
358 -11 m 0,0,1
 257 -11 257 -11 188 20 c 128,-1,2
 119 51 119 51 84 105 c 128,-1,3
 49 159 49 159 49 227 c 0,4,5
 49 276 49 276 68 315.5 c 128,-1,6
 87 355 87 355 126 382 c 128,-1,7
 165 409 165 409 224 420 c 1,8,-1
 179 398 l 1,9,10
 149 393 149 393 112.5 391 c 128,-1,11
 76 389 76 389 55 389 c 2,12,-1
 30 389 l 1,13,-1
 30 455 l 1,14,-1
 372 455 l 1,15,16
 369 502 369 502 343 524 c 128,-1,17
 317 546 317 546 279 546 c 256,18,19
 241 546 241 546 221.5 531.5 c 128,-1,20
 202 517 202 517 202 491 c 0,21,22
 202 488 202 488 202 484.5 c 128,-1,23
 202 481 202 481 203 478 c 1,24,-1
 131 474 l 1,25,26
 130 479 130 479 129.5 485.5 c 128,-1,27
 129 492 129 492 129 496 c 0,28,29
 129 553 129 553 167.5 582.5 c 128,-1,30
 206 612 206 612 273 612 c 0,31,32
 327 612 327 612 365 591.5 c 128,-1,33
 403 571 403 571 422.5 530.5 c 128,-1,34
 442 490 442 490 442 430 c 2,35,-1
 442 389 l 1,36,-1
 362 389 l 2,37,38
 310 389 310 389 274 385 c 128,-1,39
 238 381 238 381 213 371 c 128,-1,40
 188 361 188 361 167 344 c 0,41,42
 145 326 145 326 133.5 298.5 c 128,-1,43
 122 271 122 271 122 232 c 0,44,45
 122 182 122 182 147.5 143 c 128,-1,46
 173 104 173 104 226 82 c 128,-1,47
 279 60 279 60 361 60 c 0,48,49
 460 60 460 60 526 90.5 c 128,-1,50
 592 121 592 121 631.5 171.5 c 128,-1,51
 671 222 671 222 687.5 282.5 c 128,-1,52
 704 343 704 343 704 404 c 0,53,54
 704 487 704 487 676 552 c 128,-1,55
 648 617 648 617 594.5 666 c 128,-1,56
 541 715 541 715 463 750 c 0,57,58
 448 757 448 757 431.5 763.5 c 128,-1,59
 415 770 415 770 398 776 c 1,60,-1
 423 836 l 1,61,62
 497 813 497 813 555 779.5 c 128,-1,63
 613 746 613 746 655 704 c 128,-1,64
 697 662 697 662 724.5 613.5 c 128,-1,65
 752 565 752 565 765.5 511 c 128,-1,66
 779 457 779 457 779 399 c 0,67,68
 779 315 779 315 755.5 241 c 128,-1,69
 732 167 732 167 681 110.5 c 128,-1,70
 630 54 630 54 550.5 21.5 c 128,-1,71
 471 -11 471 -11 358 -11 c 0,0,1
547 523 m 0,72,73
 509 523 509 523 482.5 538.5 c 128,-1,74
 456 554 456 554 442.5 585.5 c 128,-1,75
 429 617 429 617 429 664 c 0,76,77
 429 706 429 706 427 727 c 128,-1,78
 425 748 425 748 418.5 758 c 128,-1,79
 412 768 412 768 400 775 c 1,80,-1
 432 800 l 1,81,82
 457 784 457 784 470.5 765.5 c 128,-1,83
 484 747 484 747 490.5 722.5 c 128,-1,84
 497 698 497 698 498 662 c 0,85,86
 500 626 500 626 510.5 607.5 c 128,-1,87
 521 589 521 589 552 589 c 0,88,89
 580 589 580 589 600 605.5 c 128,-1,90
 620 622 620 622 637 661 c 1,91,-1
 678 611 l 1,92,93
 665 580 665 580 631 551.5 c 128,-1,94
 597 523 597 523 547 523 c 0,72,73
EndSplineSet
EndChar

StartChar: eesinh
Encoding: 3474 3474 19
Width: 814
Flags: W
LayerCount: 2
Fore
SplineSet
674 664 m 1,0,-1
 611 689 l 1,1,2
 610 715 610 715 608 744 c 128,-1,3
 606 773 606 773 606 801 c 2,4,-1
 606 816 l 2,5,6
 606 839 606 839 604 854 c 128,-1,7
 602 869 602 869 597 878 c 0,8,9
 592 889 592 889 582.5 897.5 c 128,-1,10
 573 906 573 906 556 912 c 1,11,-1
 582 973 l 1,12,13
 613 964 613 964 628.5 950 c 128,-1,14
 644 936 644 936 651 914 c 2,15,-1
 674 853 l 1,16,-1
 674 664 l 1,0,-1
707 781 m 0,17,18
 673 781 673 781 651 787.5 c 128,-1,19
 629 794 629 794 616 801 c 1,20,-1
 631 852 l 1,21,22
 644 847 644 847 663 842 c 128,-1,23
 682 837 682 837 702 837 c 0,24,25
 730 837 730 837 743 847.5 c 128,-1,26
 756 858 756 858 756 879 c 0,27,28
 756 898 756 898 746 907.5 c 128,-1,29
 736 917 736 917 720 917 c 0,30,31
 692 917 692 917 683 901 c 128,-1,32
 674 885 674 885 674 857 c 2,33,-1
 674 844 l 1,34,-1
 639 904 l 1,35,36
 646 932 646 932 667 952.5 c 128,-1,37
 688 973 688 973 725 973 c 0,38,39
 763 973 763 973 788.5 950 c 128,-1,40
 814 927 814 927 814 880 c 0,41,42
 814 836 814 836 788 808.5 c 128,-1,43
 762 781 762 781 707 781 c 0,17,18
358 -11 m 0,44,45
 257 -11 257 -11 188 20 c 128,-1,46
 119 51 119 51 84 105 c 128,-1,47
 49 159 49 159 49 227 c 0,48,49
 49 276 49 276 68 315.5 c 128,-1,50
 87 355 87 355 126 382 c 128,-1,51
 165 409 165 409 224 420 c 1,52,-1
 179 398 l 1,53,54
 149 393 149 393 112.5 391 c 128,-1,55
 76 389 76 389 55 389 c 2,56,-1
 30 389 l 1,57,-1
 30 455 l 1,58,-1
 372 455 l 1,59,60
 369 502 369 502 343 524 c 128,-1,61
 317 546 317 546 279 546 c 256,62,63
 241 546 241 546 221.5 531.5 c 128,-1,64
 202 517 202 517 202 491 c 0,65,66
 202 488 202 488 202 484.5 c 128,-1,67
 202 481 202 481 203 478 c 1,68,-1
 131 474 l 1,69,70
 130 479 130 479 129.5 485.5 c 128,-1,71
 129 492 129 492 129 496 c 0,72,73
 129 553 129 553 167.5 582.5 c 128,-1,74
 206 612 206 612 273 612 c 0,75,76
 327 612 327 612 365 591.5 c 128,-1,77
 403 571 403 571 422.5 530.5 c 128,-1,78
 442 490 442 490 442 430 c 2,79,-1
 442 389 l 1,80,-1
 362 389 l 2,81,82
 310 389 310 389 274 385 c 128,-1,83
 238 381 238 381 213 371 c 128,-1,84
 188 361 188 361 167 344 c 0,85,86
 145 326 145 326 133.5 298.5 c 128,-1,87
 122 271 122 271 122 232 c 0,88,89
 122 182 122 182 147.5 143 c 128,-1,90
 173 104 173 104 226 82 c 128,-1,91
 279 60 279 60 361 60 c 0,92,93
 460 60 460 60 526 90.5 c 128,-1,94
 592 121 592 121 631.5 171.5 c 128,-1,95
 671 222 671 222 687.5 282.5 c 128,-1,96
 704 343 704 343 704 404 c 0,97,98
 704 487 704 487 676 552 c 128,-1,99
 648 617 648 617 594.5 666 c 128,-1,100
 541 715 541 715 463 750 c 0,101,102
 448 757 448 757 431.5 763.5 c 128,-1,103
 415 770 415 770 398 776 c 1,104,-1
 423 836 l 1,105,106
 497 813 497 813 555 779.5 c 128,-1,107
 613 746 613 746 655 704 c 128,-1,108
 697 662 697 662 724.5 613.5 c 128,-1,109
 752 565 752 565 765.5 511 c 128,-1,110
 779 457 779 457 779 399 c 0,111,112
 779 315 779 315 755.5 241 c 128,-1,113
 732 167 732 167 681 110.5 c 128,-1,114
 630 54 630 54 550.5 21.5 c 128,-1,115
 471 -11 471 -11 358 -11 c 0,44,45
547 523 m 0,116,117
 509 523 509 523 482.5 538.5 c 128,-1,118
 456 554 456 554 442.5 585.5 c 128,-1,119
 429 617 429 617 429 664 c 0,120,121
 429 706 429 706 427 727 c 128,-1,122
 425 748 425 748 418.5 758 c 128,-1,123
 412 768 412 768 400 775 c 1,124,-1
 432 800 l 1,125,126
 457 784 457 784 470.5 765.5 c 128,-1,127
 484 747 484 747 490.5 722.5 c 128,-1,128
 497 698 497 698 498 662 c 0,129,130
 500 626 500 626 510.5 607.5 c 128,-1,131
 521 589 521 589 552 589 c 0,132,133
 580 589 580 589 600 605.5 c 128,-1,134
 620 622 620 622 637 661 c 1,135,-1
 678 611 l 1,136,137
 665 580 665 580 631 551.5 c 128,-1,138
 597 523 597 523 547 523 c 0,116,117
EndSplineSet
EndChar

StartChar: osinh
Encoding: 3476 3476 21
Width: 877
Flags: W
LayerCount: 2
Fore
SplineSet
589 -11 m 0,0,1
 525 -11 525 -11 486 15 c 128,-1,2
 447 41 447 41 420 77 c 1,3,4
 400 50 400 50 378 30 c 128,-1,5
 356 10 356 10 325.5 -0.5 c 128,-1,6
 295 -11 295 -11 249 -11 c 0,7,8
 193 -11 193 -11 145.5 18.5 c 128,-1,9
 98 48 98 48 69.5 110.5 c 128,-1,10
 41 173 41 173 41 271 c 0,11,12
 41 331 41 331 53.5 386 c 128,-1,13
 66 441 66 441 90.5 484 c 128,-1,14
 115 527 115 527 152 551.5 c 128,-1,15
 189 576 189 576 238 576 c 0,16,17
 272 576 272 576 290 563 c 128,-1,18
 308 550 308 550 315 532 c 128,-1,19
 322 514 322 514 322 497 c 0,20,21
 322 469 322 469 317 444.5 c 128,-1,22
 312 420 312 420 312 385 c 0,23,24
 312 346 312 346 337 320 c 128,-1,25
 362 294 362 294 425 294 c 0,26,27
 464 294 464 294 493.5 306.5 c 128,-1,28
 523 319 523 319 539.5 345.5 c 128,-1,29
 556 372 556 372 556 414 c 0,30,31
 556 460 556 460 534.5 486 c 128,-1,32
 513 512 513 512 478 512 c 0,33,34
 450 512 450 512 434.5 500 c 128,-1,35
 419 488 419 488 419 464 c 0,36,37
 419 442 419 442 434 429 c 128,-1,38
 449 416 449 416 474 416 c 0,39,40
 506 416 506 416 529 425 c 128,-1,41
 552 434 552 434 580 455 c 1,42,-1
 592 410 l 1,43,44
 568 388 568 388 540 371 c 128,-1,45
 512 354 512 354 463 354 c 0,46,47
 409 354 409 354 379 384.5 c 128,-1,48
 349 415 349 415 349 464 c 0,49,50
 349 493 349 493 362.5 518.5 c 128,-1,51
 376 544 376 544 404.5 560 c 128,-1,52
 433 576 433 576 479 576 c 0,53,54
 514 576 514 576 547 560.5 c 128,-1,55
 580 545 580 545 602 509.5 c 128,-1,56
 624 474 624 474 624 413 c 0,57,58
 624 357 624 357 599.5 315.5 c 128,-1,59
 575 274 575 274 530.5 251.5 c 128,-1,60
 486 229 486 229 425 229 c 0,61,62
 357 229 357 229 317 250.5 c 128,-1,63
 277 272 277 272 259.5 307 c 128,-1,64
 242 342 242 342 242 382 c 0,65,66
 242 411 242 411 246.5 435 c 128,-1,67
 251 459 251 459 251 475 c 0,68,69
 251 489 251 489 246.5 499.5 c 128,-1,70
 242 510 242 510 222 510 c 0,71,72
 197 510 197 510 172 480.5 c 128,-1,73
 147 451 147 451 130.5 398 c 128,-1,74
 114 345 114 345 114 272 c 0,75,76
 114 195 114 195 131 148.5 c 128,-1,77
 148 102 148 102 181 81 c 128,-1,78
 214 60 214 60 261 60 c 0,79,80
 296 60 296 60 319 70 c 128,-1,81
 342 80 342 80 356.5 97.5 c 128,-1,82
 371 115 371 115 378.5 139 c 128,-1,83
 386 163 386 163 388 191 c 1,84,-1
 455 191 l 1,85,86
 457 164 457 164 463.5 140.5 c 128,-1,87
 470 117 470 117 484.5 99 c 128,-1,88
 499 81 499 81 524 70.5 c 128,-1,89
 549 60 549 60 588 60 c 0,90,91
 636 60 636 60 675.5 85.5 c 128,-1,92
 715 111 715 111 738 173 c 128,-1,93
 761 235 761 235 761 346 c 0,94,95
 761 481 761 481 722 575 c 128,-1,96
 683 669 683 669 603 717.5 c 128,-1,97
 523 766 523 766 401 766 c 0,98,99
 304 766 304 766 231 744.5 c 128,-1,100
 158 723 158 723 93 686 c 1,101,-1
 61 751 l 1,102,103
 110 779 110 779 162.5 797.5 c 128,-1,104
 215 816 215 816 275.5 826 c 128,-1,105
 336 836 336 836 407 836 c 0,106,107
 541 836 541 836 637 783 c 128,-1,108
 733 730 733 730 784.5 622 c 128,-1,109
 836 514 836 514 836 348 c 0,110,111
 836 248 836 248 817.5 179 c 128,-1,112
 799 110 799 110 766 68.5 c 128,-1,113
 733 27 733 27 688 8 c 128,-1,114
 643 -11 643 -11 589 -11 c 0,0,1
EndSplineSet
EndChar

StartChar: oosinh
Encoding: 3477 3477 22
Width: 877
Flags: W
LayerCount: 2
Fore
SplineSet
595 -11 m 0,0,1
 549 -11 549 -11 516.5 1 c 128,-1,2
 484 13 484 13 461 33 c 128,-1,3
 438 53 438 53 420 77 c 1,4,5
 400 50 400 50 378 30 c 128,-1,6
 356 10 356 10 325.5 -0.5 c 128,-1,7
 295 -11 295 -11 249 -11 c 0,8,9
 193 -11 193 -11 145.5 18.5 c 128,-1,10
 98 48 98 48 69.5 111 c 128,-1,11
 41 174 41 174 41 274 c 0,12,13
 41 333 41 333 53.5 387.5 c 128,-1,14
 66 442 66 442 90.5 484.5 c 128,-1,15
 115 527 115 527 152 551.5 c 128,-1,16
 189 576 189 576 238 576 c 0,17,18
 272 576 272 576 290 563 c 128,-1,19
 308 550 308 550 315 532 c 128,-1,20
 322 514 322 514 322 497 c 0,21,22
 322 469 322 469 317 444.5 c 128,-1,23
 312 420 312 420 312 385 c 0,24,25
 312 346 312 346 337 320 c 128,-1,26
 362 294 362 294 425 294 c 0,27,28
 464 294 464 294 493.5 306.5 c 128,-1,29
 523 319 523 319 539.5 345.5 c 128,-1,30
 556 372 556 372 556 414 c 0,31,32
 556 460 556 460 534.5 486 c 128,-1,33
 513 512 513 512 478 512 c 0,34,35
 450 512 450 512 434.5 500 c 128,-1,36
 419 488 419 488 419 464 c 0,37,38
 419 442 419 442 434 429 c 128,-1,39
 449 416 449 416 474 416 c 0,40,41
 506 416 506 416 529 425 c 128,-1,42
 552 434 552 434 580 455 c 1,43,-1
 592 410 l 1,44,45
 568 388 568 388 540 371 c 128,-1,46
 512 354 512 354 463 354 c 0,47,48
 409 354 409 354 379 384.5 c 128,-1,49
 349 415 349 415 349 464 c 0,50,51
 349 493 349 493 362.5 518.5 c 128,-1,52
 376 544 376 544 404.5 560 c 128,-1,53
 433 576 433 576 479 576 c 0,54,55
 514 576 514 576 547 560.5 c 128,-1,56
 580 545 580 545 602 509.5 c 128,-1,57
 624 474 624 474 624 413 c 0,58,59
 624 357 624 357 599.5 315.5 c 128,-1,60
 575 274 575 274 530.5 251.5 c 128,-1,61
 486 229 486 229 425 229 c 0,62,63
 357 229 357 229 317 250.5 c 128,-1,64
 277 272 277 272 259.5 307 c 128,-1,65
 242 342 242 342 242 382 c 0,66,67
 242 411 242 411 246.5 435 c 128,-1,68
 251 459 251 459 251 475 c 0,69,70
 251 489 251 489 246.5 499.5 c 128,-1,71
 242 510 242 510 222 510 c 0,72,73
 197 510 197 510 172 480.5 c 128,-1,74
 147 451 147 451 130.5 398 c 128,-1,75
 114 345 114 345 114 272 c 0,76,77
 114 196 114 196 131 149.5 c 128,-1,78
 148 103 148 103 181 82 c 128,-1,79
 214 61 214 61 261 61 c 0,80,81
 296 61 296 61 319 70.5 c 128,-1,82
 342 80 342 80 356.5 97.5 c 128,-1,83
 371 115 371 115 378.5 139 c 128,-1,84
 386 163 386 163 388 191 c 1,85,-1
 455 191 l 1,86,87
 457 164 457 164 463.5 140.5 c 128,-1,88
 470 117 470 117 485 99 c 128,-1,89
 500 81 500 81 525.5 71 c 128,-1,90
 551 61 551 61 591 61 c 0,91,92
 639 61 639 61 677.5 85 c 128,-1,93
 716 109 716 109 738.5 166 c 128,-1,94
 761 223 761 223 761 322 c 0,95,96
 761 437 761 437 721.5 518.5 c 128,-1,97
 682 600 682 600 601 644 c 128,-1,98
 520 688 520 688 395 688 c 0,99,100
 292 688 292 688 218 674.5 c 128,-1,101
 144 661 144 661 78 640 c 1,102,-1
 58 706 l 1,103,104
 104 721 104 721 157 733 c 128,-1,105
 210 745 210 745 269 751.5 c 128,-1,106
 328 758 328 758 391 758 c 0,107,108
 535 758 535 758 634 710 c 128,-1,109
 733 662 733 662 784.5 565.5 c 128,-1,110
 836 469 836 469 836 322 c 0,111,112
 836 229 836 229 818 165.5 c 128,-1,113
 800 102 800 102 767 63 c 128,-1,114
 734 24 734 24 690 6.5 c 128,-1,115
 646 -11 646 -11 595 -11 c 0,0,1
424 957 m 0,116,117
 532 957 532 957 600.5 940.5 c 128,-1,118
 669 924 669 924 705.5 897 c 128,-1,119
 742 870 742 870 756 837 c 128,-1,120
 770 804 770 804 770 770 c 0,121,122
 770 742 770 742 764.5 721 c 128,-1,123
 759 700 759 700 750 677 c 1,124,-1
 684 698 l 1,125,126
 691 714 691 714 694.5 729.5 c 128,-1,127
 698 745 698 745 698 769 c 256,128,129
 698 793 698 793 686 814 c 128,-1,130
 674 835 674 835 644.5 851.5 c 128,-1,131
 615 868 615 868 561.5 877.5 c 128,-1,132
 508 887 508 887 425 887 c 256,133,134
 342 887 342 887 292.5 876 c 128,-1,135
 243 865 243 865 219 847.5 c 128,-1,136
 195 830 195 830 187.5 809.5 c 128,-1,137
 180 789 180 789 180 770 c 0,138,139
 180 757 180 757 182.5 741.5 c 128,-1,140
 185 726 185 726 189 712 c 1,141,-1
 122 701 l 1,142,143
 117 715 117 715 112.5 732 c 128,-1,144
 108 749 108 749 108 772 c 0,145,146
 108 803 108 803 119.5 835.5 c 128,-1,147
 131 868 131 868 164 895.5 c 128,-1,148
 197 923 197 923 259.5 940 c 128,-1,149
 322 957 322 957 424 957 c 0,116,117
EndSplineSet
EndChar

StartChar: kasinh
Encoding: 3482 3482 24
Width: 1007
GlyphClass: 2
Flags: W
AnchorPoint: "Cursive-2" 36 0 entry 0
AnchorPoint: "Anchor-0" 1007 -15 basechar 0
LayerCount: 2
Fore
SplineSet
542 -11 m 0,0,1
 488 -11 488 -11 453.5 14.5 c 128,-1,2
 419 40 419 40 398 77 c 1,3,4
 373 31 373 31 340 10 c 128,-1,5
 307 -11 307 -11 258 -11 c 0,6,7
 233 -11 233 -11 205.5 -3.5 c 128,-1,8
 178 4 178 4 153.5 24 c 128,-1,9
 129 44 129 44 113.5 79.5 c 128,-1,10
 98 115 98 115 98 170 c 0,11,12
 98 181 98 181 99.5 192.5 c 128,-1,13
 101 204 101 204 103 214 c 1,14,-1
 165 214 l 1,15,16
 164 207 164 207 163.5 200.5 c 128,-1,17
 163 194 163 194 163 187 c 0,18,19
 163 151 163 151 171 122.5 c 128,-1,20
 179 94 179 94 201 77 c 128,-1,21
 223 60 223 60 263 60 c 0,22,23
 297 60 297 60 319.5 76 c 128,-1,24
 342 92 342 92 353.5 125 c 128,-1,25
 365 158 365 158 365 208 c 2,26,-1
 365 214 l 1,27,-1
 432 214 l 1,28,-1
 432 204 l 2,29,30
 432 140 432 140 458.5 100 c 128,-1,31
 485 60 485 60 537 60 c 0,32,33
 576 60 576 60 598.5 78 c 128,-1,34
 621 96 621 96 630.5 125.5 c 128,-1,35
 640 155 640 155 640 191 c 0,36,37
 640 280 640 280 585.5 330 c 128,-1,38
 531 380 531 380 420 380 c 0,39,40
 374 380 374 380 339 376.5 c 128,-1,41
 304 373 304 373 268.5 363 c 128,-1,42
 233 353 233 353 186 334 c 1,43,-1
 283 415 l 2,44,45
 296 424 296 424 317 431.5 c 128,-1,46
 338 439 338 439 367.5 443.5 c 128,-1,47
 397 448 397 448 434 448 c 0,48,49
 519 448 519 448 581.5 419 c 128,-1,50
 644 390 644 390 678.5 333.5 c 128,-1,51
 713 277 713 277 713 192 c 0,52,53
 713 136 713 136 693.5 89.5 c 128,-1,54
 674 43 674 43 636 16 c 128,-1,55
 598 -11 598 -11 542 -11 c 0,0,1
741 -3 m 0,56,57
 731 -3 731 -3 719 -2 c 128,-1,58
 707 -1 707 -1 697 0 c 1,59,-1
 701 68 l 1,60,61
 708 67 708 67 716 66.5 c 128,-1,62
 724 66 724 66 732 66 c 0,63,64
 777 66 777 66 808.5 83.5 c 128,-1,65
 840 101 840 101 859 130.5 c 128,-1,66
 878 160 878 160 887 198.5 c 128,-1,67
 896 237 896 237 896 279 c 0,68,69
 896 366 896 366 863.5 424 c 128,-1,70
 831 482 831 482 772 511.5 c 128,-1,71
 713 541 713 541 633 541 c 0,72,73
 565 541 565 541 507 527.5 c 128,-1,74
 449 514 449 514 399 487 c 128,-1,75
 349 460 349 460 305 419 c 2,76,-1
 294 410 l 2,77,78
 267 383 267 383 239.5 351 c 128,-1,79
 212 319 212 319 184.5 283.5 c 128,-1,80
 157 248 157 248 129 208 c 1,81,-1
 110 188 l 1,82,-1
 85 144 l 1,83,-1
 21 180 l 1,84,85
 71 251 71 251 110.5 301.5 c 128,-1,86
 150 352 150 352 185 390.5 c 128,-1,87
 220 429 220 429 256 461 c 2,88,-1
 277 479 l 2,89,90
 337 530 337 530 392.5 559 c 128,-1,91
 448 588 448 588 508 600 c 128,-1,92
 568 612 568 612 640 612 c 0,93,94
 750 612 750 612 823.5 570.5 c 128,-1,95
 897 529 897 529 934 454 c 128,-1,96
 971 379 971 379 971 280 c 0,97,98
 971 192 971 192 941.5 128.5 c 128,-1,99
 912 65 912 65 860 31 c 128,-1,100
 808 -3 808 -3 741 -3 c 0,56,57
167 592 m 0,101,102
 216 592 216 592 246 568 c 128,-1,103
 276 544 276 544 291.5 508 c 128,-1,104
 307 472 307 472 310 434 c 1,105,-1
 252 398 l 1,106,107
 248 432 248 432 239.5 461 c 128,-1,108
 231 490 231 490 214 508 c 128,-1,109
 197 526 197 526 168 526 c 0,110,111
 140 526 140 526 122.5 510 c 128,-1,112
 105 494 105 494 105 459 c 0,113,114
 105 443 105 443 108.5 429.5 c 128,-1,115
 112 416 112 416 116 403 c 1,116,-1
 46 389 l 1,117,118
 40 409 40 409 36.5 429.5 c 128,-1,119
 33 450 33 450 33 467 c 0,120,121
 33 508 33 508 49.5 535.5 c 128,-1,122
 66 563 66 563 96.5 577.5 c 128,-1,123
 127 592 127 592 167 592 c 0,101,102
EndSplineSet
EndChar

StartChar: khasinh
Encoding: 3483 3483 25
Width: 878
GlyphClass: 2
Flags: W
AnchorPoint: "Cursive-2" 51 0 entry 0
AnchorPoint: "Anchor-0" 878 -15 basechar 0
LayerCount: 2
Fore
SplineSet
250 -11 m 0,0,1
 200 -11 200 -11 160 9 c 128,-1,2
 120 29 120 29 92.5 64.5 c 128,-1,3
 65 100 65 100 50.5 146.5 c 128,-1,4
 36 193 36 193 36 246 c 0,5,6
 36 315 36 315 57 372 c 128,-1,7
 78 429 78 429 117.5 470 c 128,-1,8
 157 511 157 511 211.5 533 c 128,-1,9
 266 555 266 555 333 555 c 0,10,11
 401 555 401 555 449 536 c 128,-1,12
 497 517 497 517 527 483.5 c 128,-1,13
 557 450 557 450 571.5 406 c 128,-1,14
 586 362 586 362 586 313 c 0,15,16
 586 249 586 249 567 194 c 128,-1,17
 548 139 548 139 516 88.5 c 128,-1,18
 484 38 484 38 443 -11 c 1,19,-1
 390 36 l 1,20,21
 449 101 449 101 481.5 165 c 128,-1,22
 514 229 514 229 514 308 c 0,23,24
 514 346 514 346 503 378 c 128,-1,25
 492 410 492 410 470 434.5 c 128,-1,26
 448 459 448 459 413.5 472.5 c 128,-1,27
 379 486 379 486 332 486 c 0,28,29
 265 486 265 486 215 457 c 128,-1,30
 165 428 165 428 137 374.5 c 128,-1,31
 109 321 109 321 109 247 c 0,32,33
 109 215 109 215 114 185 c 128,-1,34
 119 155 119 155 132 129 c 0,35,36
 148 97 148 97 176 77 c 128,-1,37
 204 57 204 57 249 57 c 0,38,39
 277 57 277 57 293 64 c 128,-1,40
 309 71 309 71 316 84 c 128,-1,41
 323 97 323 97 323 114 c 0,42,43
 323 136 323 136 308 151.5 c 128,-1,44
 293 167 293 167 261 167 c 0,45,46
 230 167 230 167 202.5 150.5 c 128,-1,47
 175 134 175 134 147 99 c 1,48,-1
 114 152 l 1,49,50
 141 185 141 185 179.5 209.5 c 128,-1,51
 218 234 218 234 267 234 c 0,52,53
 311 234 311 234 339 217 c 128,-1,54
 367 200 367 200 381 173 c 128,-1,55
 395 146 395 146 395 116 c 0,56,57
 395 58 395 58 359.5 23.5 c 128,-1,58
 324 -11 324 -11 250 -11 c 0,0,1
627 -11 m 0,59,60
 576 -11 576 -11 548 10 c 128,-1,61
 520 31 520 31 509.5 63 c 128,-1,62
 499 95 499 95 498 129 c 1,63,-1
 509 138 l 1,64,-1
 563 138 l 1,65,66
 566 94 566 94 582.5 76.5 c 128,-1,67
 599 59 599 59 630 59 c 0,68,69
 652 59 652 59 675 71.5 c 128,-1,70
 698 84 698 84 718 115.5 c 128,-1,71
 738 147 738 147 750 203 c 128,-1,72
 762 259 762 259 762 345 c 0,73,74
 762 443 762 443 740.5 521 c 128,-1,75
 719 599 719 599 674.5 653.5 c 128,-1,76
 630 708 630 708 560.5 737 c 128,-1,77
 491 766 491 766 394 766 c 0,78,79
 304 766 304 766 228.5 746.5 c 128,-1,80
 153 727 153 727 81 686 c 1,81,-1
 47 751 l 1,82,83
 104 780 104 780 157.5 798.5 c 128,-1,84
 211 817 211 817 269 826.5 c 128,-1,85
 327 836 327 836 396 836 c 0,86,87
 538 836 538 836 636.5 781.5 c 128,-1,88
 735 727 735 727 786.5 618.5 c 128,-1,89
 838 510 838 510 838 348 c 0,90,91
 838 243 838 243 820 173.5 c 128,-1,92
 802 104 802 104 772 63.5 c 128,-1,93
 742 23 742 23 704.5 6 c 128,-1,94
 667 -11 667 -11 627 -11 c 0,59,60
EndSplineSet
EndChar

StartChar: gasinh
Encoding: 3484 3484 26
Width: 907
GlyphClass: 2
Flags: W
AnchorPoint: "Cursive-2" 53 0 entry 0
AnchorPoint: "Anchor-0" 907 -15 basechar 0
LayerCount: 2
Fore
SplineSet
317 -11 m 0,0,1
 227 -11 227 -11 164.5 26 c 128,-1,2
 102 63 102 63 70 132 c 128,-1,3
 38 201 38 201 38 296 c 0,4,5
 38 398 38 398 76 468.5 c 128,-1,6
 114 539 114 539 180.5 575.5 c 128,-1,7
 247 612 247 612 334 612 c 0,8,9
 342 612 342 612 357.5 611.5 c 128,-1,10
 373 611 373 611 384 609 c 1,11,-1
 380 541 l 1,12,13
 370 542 370 542 359 542.5 c 128,-1,14
 348 543 348 543 337 543 c 0,15,16
 220 543 220 543 166.5 477 c 128,-1,17
 113 411 113 411 113 291 c 0,18,19
 113 224 113 224 135 171.5 c 128,-1,20
 157 119 157 119 202 89.5 c 128,-1,21
 247 60 247 60 317 60 c 0,22,23
 377 60 377 60 417.5 81 c 128,-1,24
 458 102 458 102 478.5 139 c 128,-1,25
 499 176 499 176 499 224 c 0,26,27
 499 262 499 262 485.5 277 c 128,-1,28
 472 292 472 292 450 292 c 0,29,30
 437 292 437 292 425 288 c 128,-1,31
 413 284 413 284 401 274 c 1,32,-1
 330 296 l 1,33,34
 345 394 345 394 376.5 455.5 c 128,-1,35
 408 517 408 517 448.5 551.5 c 128,-1,36
 489 586 489 586 532.5 599 c 128,-1,37
 576 612 576 612 614 612 c 0,38,39
 700 612 700 612 756.5 572.5 c 128,-1,40
 813 533 813 533 841 464.5 c 128,-1,41
 869 396 869 396 869 309 c 0,42,43
 869 207 869 207 833 137.5 c 128,-1,44
 797 68 797 68 733.5 32.5 c 128,-1,45
 670 -3 670 -3 587 -3 c 0,46,47
 573 -3 573 -3 559.5 -2 c 128,-1,48
 546 -1 546 -1 533 0 c 1,49,-1
 536 68 l 1,50,51
 543 67 543 67 554.5 66.5 c 128,-1,52
 566 66 566 66 579 66 c 0,53,54
 654 66 654 66 701.5 96 c 128,-1,55
 749 126 749 126 771.5 180.5 c 128,-1,56
 794 235 794 235 794 309 c 0,57,58
 794 376 794 376 773 428 c 128,-1,59
 752 480 752 480 711.5 510.5 c 128,-1,60
 671 541 671 541 611 541 c 0,61,62
 569 541 569 541 530 523.5 c 128,-1,63
 491 506 491 506 459.5 463 c 128,-1,64
 428 420 428 420 407 341 c 1,65,-1
 397 342 l 1,66,67
 408 350 408 350 425 354 c 128,-1,68
 442 358 442 358 456 358 c 0,69,70
 492 358 492 358 518 342.5 c 128,-1,71
 544 327 544 327 558 297 c 128,-1,72
 572 267 572 267 572 223 c 0,73,74
 572 156 572 156 542 103 c 128,-1,75
 512 50 512 50 455 19.5 c 128,-1,76
 398 -11 398 -11 317 -11 c 0,0,1
EndSplineSet
EndChar

StartChar: ghasinh
Encoding: 3485 3485 27
Width: 824
GlyphClass: 2
Flags: W
AnchorPoint: "Cursive-2" 45 0 entry 0
AnchorPoint: "Anchor-0" 824 -15 basechar 0
LayerCount: 2
Fore
SplineSet
250 -11 m 0,0,1
 190 -11 190 -11 143 13.5 c 128,-1,2
 96 38 96 38 69.5 85.5 c 128,-1,3
 43 133 43 133 43 203 c 0,4,5
 43 245 43 245 56.5 283.5 c 128,-1,6
 70 322 70 322 101.5 354 c 128,-1,7
 133 386 133 386 185 406 c 1,8,-1
 187 397 l 1,9,10
 153 391 153 391 116 390 c 128,-1,11
 79 389 79 389 50 389 c 2,12,-1
 30 389 l 1,13,-1
 30 455 l 1,14,-1
 331 455 l 1,15,16
 329 502 329 502 303 524 c 128,-1,17
 277 546 277 546 238 546 c 0,18,19
 200 546 200 546 181 531 c 128,-1,20
 162 516 162 516 162 489 c 0,21,22
 162 487 162 487 162 484 c 128,-1,23
 162 481 162 481 163 478 c 1,24,-1
 90 474 l 1,25,26
 89 479 89 479 89 485.5 c 128,-1,27
 89 492 89 492 89 496 c 0,28,29
 89 553 89 553 127 582.5 c 128,-1,30
 165 612 165 612 232 612 c 0,31,32
 287 612 287 612 324.5 591.5 c 128,-1,33
 362 571 362 571 382 530.5 c 128,-1,34
 402 490 402 490 402 430 c 2,35,-1
 402 389 l 1,36,-1
 382 389 l 2,37,38
 347 389 347 389 310 387 c 128,-1,39
 273 385 273 385 238 375 c 128,-1,40
 203 365 203 365 173 340 c 0,41,42
 147 318 147 318 131.5 285 c 128,-1,43
 116 252 116 252 116 204 c 0,44,45
 116 128 116 128 154 92 c 128,-1,46
 192 56 192 56 256 56 c 0,47,48
 288 56 288 56 308 59.5 c 128,-1,49
 328 63 328 63 356 72 c 1,50,-1
 374 8 l 1,51,52
 353 1 353 1 322.5 -5 c 128,-1,53
 292 -11 292 -11 250 -11 c 0,0,1
583 -11 m 0,54,55
 539 -11 539 -11 508 -5 c 128,-1,56
 477 1 477 1 457 8 c 1,57,-1
 477 71 l 1,58,59
 500 64 500 64 521.5 60 c 128,-1,60
 543 56 543 56 575 56 c 0,61,62
 649 56 649 56 681.5 97 c 128,-1,63
 714 138 714 138 714 208 c 0,64,65
 714 257 714 257 699.5 293 c 128,-1,66
 685 329 685 329 649 351 c 0,67,68
 619 370 619 370 573.5 379.5 c 128,-1,69
 528 389 528 389 460 389 c 2,70,-1
 434 389 l 1,71,-1
 434 430 l 2,72,73
 434 490 434 490 454 530.5 c 128,-1,74
 474 571 474 571 511.5 591.5 c 128,-1,75
 549 612 549 612 603 612 c 0,76,77
 670 612 670 612 708.5 582.5 c 128,-1,78
 747 553 747 553 747 496 c 0,79,80
 747 483 747 483 745 470.5 c 128,-1,81
 743 458 743 458 740 446 c 1,82,-1
 670 458 l 1,83,84
 672 463 672 463 673 472.5 c 128,-1,85
 674 482 674 482 674 487 c 0,86,87
 674 516 674 516 655 531 c 128,-1,88
 636 546 636 546 598 546 c 0,89,90
 559 546 559 546 533 523.5 c 128,-1,91
 507 501 507 501 505 452 c 1,92,-1
 489 455 l 1,93,-1
 498 455 l 2,94,95
 554 455 554 455 606 443.5 c 128,-1,96
 658 432 658 432 699 404.5 c 128,-1,97
 740 377 740 377 764 329 c 128,-1,98
 788 281 788 281 788 208 c 0,99,100
 788 136 788 136 762.5 87 c 128,-1,101
 737 38 737 38 691 13.5 c 128,-1,102
 645 -11 645 -11 583 -11 c 0,54,55
416 173 m 0,103,104
 374 173 374 173 355.5 159 c 128,-1,105
 337 145 337 145 337 122 c 0,106,107
 337 101 337 101 349.5 90 c 128,-1,108
 362 79 362 79 381 74 c 1,109,-1
 374 8 l 1,110,-1
 337 43 l 1,111,112
 303 57 303 57 285 80.5 c 128,-1,113
 267 104 267 104 267 135 c 0,114,115
 267 185 267 185 306 213.5 c 128,-1,116
 345 242 345 242 412 242 c 2,117,-1
 419 242 l 2,118,119
 484 242 484 242 523.5 214 c 128,-1,120
 563 186 563 186 563 133 c 0,121,122
 563 104 563 104 546 81 c 128,-1,123
 529 58 529 58 494 43 c 1,124,-1
 457 8 l 1,125,-1
 449 74 l 1,126,127
 469 79 469 79 481 90 c 128,-1,128
 493 101 493 101 493 122 c 0,129,130
 493 145 493 145 475 159 c 128,-1,131
 457 173 457 173 416 173 c 0,103,104
EndSplineSet
EndChar

StartChar: ngasinh
Encoding: 3486 3486 28
Width: 891
GlyphClass: 2
Flags: W
AnchorPoint: "Cursive-2" 55 0 entry 0
AnchorPoint: "Anchor-0" 891 -15 basechar 0
LayerCount: 2
Fore
SplineSet
606 -11 m 0,0,1
 545 -11 545 -11 507.5 15 c 128,-1,2
 470 41 470 41 444 77 c 1,3,4
 427 53 427 53 405 33 c 128,-1,5
 383 13 383 13 352 1 c 128,-1,6
 321 -11 321 -11 275 -11 c 0,7,8
 187 -11 187 -11 131 39 c 128,-1,9
 75 89 75 89 75 183 c 0,10,11
 75 227 75 227 88.5 259.5 c 128,-1,12
 102 292 102 292 127 316 c 0,13,14
 146 334 146 334 172.5 349 c 128,-1,15
 199 364 199 364 229.5 376 c 128,-1,16
 260 388 260 388 290 397 c 2,17,-1
 321 406 l 2,18,19
 357 417 357 417 378.5 425.5 c 128,-1,20
 400 434 400 434 410 446.5 c 128,-1,21
 420 459 420 459 420 479 c 0,22,23
 420 506 420 506 397.5 520.5 c 128,-1,24
 375 535 375 535 338 540.5 c 128,-1,25
 301 546 301 546 255 546 c 0,26,27
 238 546 238 546 227 546 c 128,-1,28
 216 546 216 546 207 544 c 0,29,30
 143 542 143 542 119.5 520.5 c 128,-1,31
 96 499 96 499 96 477 c 0,32,33
 96 457 96 457 107.5 442 c 128,-1,34
 119 427 119 427 147 427 c 0,35,36
 173 427 173 427 186 440.5 c 128,-1,37
 199 454 199 454 199 478 c 0,38,39
 199 492 199 492 194 513 c 128,-1,40
 189 534 189 534 172 549 c 1,41,-1
 239 555 l 1,42,43
 255 537 255 537 261 513.5 c 128,-1,44
 267 490 267 490 267 474 c 0,45,46
 267 442 267 442 255.5 420.5 c 128,-1,47
 244 399 244 399 226 386 c 128,-1,48
 208 373 208 373 186.5 367.5 c 128,-1,49
 165 362 165 362 144 362 c 0,50,51
 109 362 109 362 82 374.5 c 128,-1,52
 55 387 55 387 40 411.5 c 128,-1,53
 25 436 25 436 25 471 c 0,54,55
 25 512 25 512 49.5 544 c 128,-1,56
 74 576 74 576 125.5 594 c 128,-1,57
 177 612 177 612 256 612 c 0,58,59
 326 612 326 612 379.5 599 c 128,-1,60
 433 586 433 586 463 556.5 c 128,-1,61
 493 527 493 527 493 478 c 0,62,63
 493 446 493 446 481 423 c 128,-1,64
 469 400 469 400 436.5 382 c 128,-1,65
 404 364 404 364 340 345 c 2,66,-1
 288 330 l 2,67,68
 249 319 249 319 217.5 300.5 c 128,-1,69
 186 282 186 282 167 253.5 c 128,-1,70
 148 225 148 225 148 183 c 0,71,72
 148 122 148 122 182 91 c 128,-1,73
 216 60 216 60 277 60 c 0,74,75
 316 60 316 60 342 70.5 c 128,-1,76
 368 81 368 81 383 100.5 c 128,-1,77
 398 120 398 120 404.5 147.5 c 128,-1,78
 411 175 411 175 411 208 c 2,79,-1
 411 214 l 1,80,-1
 479 214 l 1,81,-1
 479 208 l 2,82,83
 479 176 479 176 485.5 149 c 128,-1,84
 492 122 492 122 506 102 c 128,-1,85
 520 82 520 82 544.5 71 c 128,-1,86
 569 60 569 60 605 60 c 0,87,88
 654 60 654 60 692 86.5 c 128,-1,89
 730 113 730 113 752.5 175.5 c 128,-1,90
 775 238 775 238 775 345 c 0,91,92
 775 483 775 483 735.5 576.5 c 128,-1,93
 696 670 696 670 617.5 718 c 128,-1,94
 539 766 539 766 420 766 c 0,95,96
 359 766 359 766 306 756.5 c 128,-1,97
 253 747 253 747 206.5 729 c 128,-1,98
 160 711 160 711 117 686 c 1,99,-1
 84 751 l 1,100,101
 158 791 158 791 238.5 813.5 c 128,-1,102
 319 836 319 836 425 836 c 0,103,104
 556 836 556 836 651.5 784 c 128,-1,105
 747 732 747 732 798.5 624 c 128,-1,106
 850 516 850 516 850 348 c 0,107,108
 850 216 850 216 818.5 137 c 128,-1,109
 787 58 787 58 732 23.5 c 128,-1,110
 677 -11 677 -11 606 -11 c 0,0,1
EndSplineSet
EndChar

StartChar: nngasinh
Encoding: 3487 3487 29
Width: 1065
GlyphClass: 2
Flags: W
AnchorPoint: "Cursive-2" 47 0 entry 0
AnchorPoint: "Anchor-0" 1065 -15 basechar 0
LayerCount: 2
Fore
SplineSet
745 -3 m 0,0,1
 731 -3 731 -3 717.5 -2 c 128,-1,2
 704 -1 704 -1 691 0 c 1,3,-1
 694 68 l 1,4,5
 701 67 701 67 712.5 66.5 c 128,-1,6
 724 66 724 66 736 66 c 0,7,8
 811 66 811 66 859 96 c 128,-1,9
 907 126 907 126 929.5 180.5 c 128,-1,10
 952 235 952 235 952 309 c 0,11,12
 952 376 952 376 931 428 c 128,-1,13
 910 480 910 480 869.5 510.5 c 128,-1,14
 829 541 829 541 769 541 c 0,15,16
 727 541 727 541 688 523.5 c 128,-1,17
 649 506 649 506 617.5 463 c 128,-1,18
 586 420 586 420 565 341 c 1,19,-1
 555 342 l 1,20,21
 566 350 566 350 583 354 c 128,-1,22
 600 358 600 358 613 358 c 0,23,24
 649 358 649 358 675 342.5 c 128,-1,25
 701 327 701 327 715.5 297 c 128,-1,26
 730 267 730 267 730 223 c 0,27,28
 730 156 730 156 700 103 c 128,-1,29
 670 50 670 50 612 19.5 c 128,-1,30
 554 -11 554 -11 471 -11 c 0,31,32
 381 -11 381 -11 320 24.5 c 128,-1,33
 259 60 259 60 227.5 124 c 128,-1,34
 196 188 196 188 196 273 c 0,35,36
 196 360 196 360 233 420.5 c 128,-1,37
 270 481 270 481 335 513 c 128,-1,38
 400 545 400 545 482 545 c 1,39,-1
 523 566 l 1,40,-1
 497 497 l 1,41,42
 429 495 429 495 378 467.5 c 128,-1,43
 327 440 327 440 299 390 c 128,-1,44
 271 340 271 340 271 268 c 0,45,46
 271 208 271 208 291.5 161 c 128,-1,47
 312 114 312 114 357 87 c 128,-1,48
 402 60 402 60 475 60 c 0,49,50
 536 60 536 60 576.5 81 c 128,-1,51
 617 102 617 102 637 139 c 128,-1,52
 657 176 657 176 657 223 c 0,53,54
 657 261 657 261 643.5 276.5 c 128,-1,55
 630 292 630 292 608 292 c 0,56,57
 595 292 595 292 583 288 c 128,-1,58
 571 284 571 284 559 274 c 1,59,-1
 488 296 l 1,60,61
 503 394 503 394 534.5 455.5 c 128,-1,62
 566 517 566 517 606.5 551.5 c 128,-1,63
 647 586 647 586 690.5 599 c 128,-1,64
 734 612 734 612 772 612 c 0,65,66
 858 612 858 612 914.5 572.5 c 128,-1,67
 971 533 971 533 999 464.5 c 128,-1,68
 1027 396 1027 396 1027 309 c 0,69,70
 1027 207 1027 207 991 137.5 c 128,-1,71
 955 68 955 68 891.5 32.5 c 128,-1,72
 828 -3 828 -3 745 -3 c 0,0,1
38 308 m 0,73,74
 38 408 38 408 78.5 475.5 c 128,-1,75
 119 543 119 543 190 577.5 c 128,-1,76
 261 612 261 612 351 612 c 0,77,78
 399 612 399 612 443.5 599.5 c 128,-1,79
 488 587 488 587 523 566 c 1,80,-1
 475 528 l 1,81,82
 450 540 450 540 420 544 c 128,-1,83
 390 548 390 548 351 548 c 0,84,85
 287 548 287 548 232.5 521 c 128,-1,86
 178 494 178 494 144.5 440 c 128,-1,87
 111 386 111 386 111 304 c 0,88,89
 111 252 111 252 124.5 203 c 128,-1,90
 138 154 138 154 163 116 c 1,91,-1
 97 83 l 1,92,93
 73 126 73 126 55.5 183.5 c 128,-1,94
 38 241 38 241 38 308 c 0,73,74
EndSplineSet
EndChar

StartChar: casinh
Encoding: 3488 3488 30
Width: 814
GlyphClass: 2
Flags: W
AnchorPoint: "Cursive-2" 45 0 entry 0
AnchorPoint: "Anchor-0" 814 -15 basechar 0
LayerCount: 2
Fore
SplineSet
361 -11 m 0,0,1
 257 -11 257 -11 187.5 20 c 128,-1,2
 118 51 118 51 83.5 105 c 128,-1,3
 49 159 49 159 49 227 c 0,4,5
 49 276 49 276 68 315.5 c 128,-1,6
 87 355 87 355 126 382 c 128,-1,7
 165 409 165 409 224 420 c 1,8,-1
 179 398 l 1,9,10
 149 392 149 392 112.5 390.5 c 128,-1,11
 76 389 76 389 55 389 c 2,12,-1
 30 389 l 1,13,-1
 30 455 l 1,14,-1
 392 455 l 1,15,16
 389 502 389 502 363 524 c 128,-1,17
 337 546 337 546 299 546 c 256,18,19
 261 546 261 546 241.5 531.5 c 128,-1,20
 222 517 222 517 222 491 c 0,21,22
 222 488 222 488 222 484.5 c 128,-1,23
 222 481 222 481 223 478 c 1,24,-1
 151 474 l 1,25,26
 150 479 150 479 149.5 485.5 c 128,-1,27
 149 492 149 492 149 496 c 0,28,29
 149 553 149 553 187.5 582.5 c 128,-1,30
 226 612 226 612 293 612 c 0,31,32
 347 612 347 612 385 591.5 c 128,-1,33
 423 571 423 571 442.5 530.5 c 128,-1,34
 462 490 462 490 462 430 c 2,35,-1
 462 389 l 1,36,-1
 362 389 l 2,37,38
 310 389 310 389 274 385 c 128,-1,39
 238 381 238 381 213 371 c 128,-1,40
 188 361 188 361 167 344 c 0,41,42
 145 326 145 326 133.5 298.5 c 128,-1,43
 122 271 122 271 122 232 c 0,44,45
 122 182 122 182 147.5 143 c 128,-1,46
 173 104 173 104 226 82 c 128,-1,47
 279 60 279 60 361 60 c 0,48,49
 460 60 460 60 526 91.5 c 128,-1,50
 592 123 592 123 631.5 175.5 c 128,-1,51
 671 228 671 228 687.5 291 c 128,-1,52
 704 354 704 354 704 418 c 0,53,54
 704 519 704 519 674 586 c 128,-1,55
 644 653 644 653 594.5 692.5 c 128,-1,56
 545 732 545 732 487.5 749 c 128,-1,57
 430 766 430 766 374 766 c 0,58,59
 283 766 283 766 214.5 745 c 128,-1,60
 146 724 146 724 81 686 c 1,61,-1
 48 751 l 1,62,63
 115 789 115 789 197.5 812.5 c 128,-1,64
 280 836 280 836 374 836 c 0,65,66
 453 836 453 836 526 812.5 c 128,-1,67
 599 789 599 789 656 739 c 128,-1,68
 713 689 713 689 746 609.5 c 128,-1,69
 779 530 779 530 779 418 c 0,70,71
 779 330 779 330 755 252.5 c 128,-1,72
 731 175 731 175 680.5 115.5 c 128,-1,73
 630 56 630 56 551 22.5 c 128,-1,74
 472 -11 472 -11 361 -11 c 0,0,1
EndSplineSet
EndChar

StartChar: chasinh
Encoding: 3489 3489 31
Width: 800
GlyphClass: 2
Flags: W
AnchorPoint: "Cursive-2" 51 0 entry 0
AnchorPoint: "Anchor-0" 800 -15 basechar 0
LayerCount: 2
Fore
SplineSet
394 -11 m 0,0,1
 274 -11 274 -11 194.5 20.5 c 128,-1,2
 115 52 115 52 75.5 111 c 128,-1,3
 36 170 36 170 36 251 c 0,4,5
 36 317 36 317 64 362.5 c 128,-1,6
 92 408 92 408 149 431.5 c 128,-1,7
 206 455 206 455 292 455 c 2,8,-1
 315 455 l 1,9,-1
 308 452 l 1,10,11
 307 501 307 501 280.5 523.5 c 128,-1,12
 254 546 254 546 215 546 c 0,13,14
 178 546 178 546 158.5 531 c 128,-1,15
 139 516 139 516 139 487 c 0,16,17
 139 482 139 482 140.5 472.5 c 128,-1,18
 142 463 142 463 143 458 c 1,19,-1
 73 446 l 1,20,21
 69 458 69 458 67.5 470.5 c 128,-1,22
 66 483 66 483 66 496 c 0,23,24
 66 553 66 553 104.5 582.5 c 128,-1,25
 143 612 143 612 210 612 c 0,26,27
 264 612 264 612 302 591.5 c 128,-1,28
 340 571 340 571 359.5 530.5 c 128,-1,29
 379 490 379 490 379 430 c 2,30,-1
 379 389 l 1,31,-1
 314 389 l 2,32,33
 247 389 247 389 209 380 c 128,-1,34
 171 371 171 371 147 350 c 0,35,36
 129 334 129 334 119 309 c 128,-1,37
 109 284 109 284 109 249 c 0,38,39
 109 196 109 196 138 153 c 128,-1,40
 167 110 167 110 230 85 c 128,-1,41
 293 60 293 60 395 60 c 0,42,43
 475 60 475 60 531 73.5 c 128,-1,44
 587 87 587 87 622.5 112.5 c 128,-1,45
 658 138 658 138 674.5 172.5 c 128,-1,46
 691 207 691 207 691 249 c 0,47,48
 691 274 691 274 687 294.5 c 128,-1,49
 683 315 683 315 672 331 c 2,50,-1
 658 346 l 2,51,52
 642 362 642 362 619 371 c 128,-1,53
 596 380 596 380 566 384.5 c 128,-1,54
 536 389 536 389 498 389 c 2,55,-1
 447 389 l 1,56,-1
 447 430 l 2,57,58
 447 467 447 467 458.5 499.5 c 128,-1,59
 470 532 470 532 490 557.5 c 128,-1,60
 510 583 510 583 535.5 597.5 c 128,-1,61
 561 612 561 612 589 612 c 0,62,63
 633 612 633 612 663 592.5 c 128,-1,64
 693 573 693 573 708 536.5 c 128,-1,65
 723 500 723 500 723 449 c 0,66,67
 723 426 723 426 721 406 c 128,-1,68
 719 386 719 386 715 369.5 c 128,-1,69
 711 353 711 353 705 338 c 2,70,-1
 695 323 l 1,71,72
 676 285 676 285 642 260.5 c 128,-1,73
 608 236 608 236 553 236 c 0,74,75
 516 236 516 236 483 253 c 128,-1,76
 450 270 450 270 430 310.5 c 128,-1,77
 410 351 410 351 410 420 c 0,78,79
 410 490 410 490 437 550.5 c 128,-1,80
 464 611 464 611 511 660.5 c 128,-1,81
 558 710 558 710 618 747.5 c 128,-1,82
 678 785 678 785 745 810 c 1,83,-1
 774 747 l 1,84,85
 728 731 728 731 677.5 704.5 c 128,-1,86
 627 678 627 678 581.5 642 c 128,-1,87
 536 606 536 606 506 559 c 1,88,-1
 457 440 l 1,89,-1
 478 410 l 1,90,91
 478 366 478 366 489 342.5 c 128,-1,92
 500 319 500 319 518.5 310.5 c 128,-1,93
 537 302 537 302 559 302 c 0,94,95
 594 302 594 302 614.5 319.5 c 128,-1,96
 635 337 635 337 644 369.5 c 128,-1,97
 653 402 653 402 653 447 c 0,98,99
 653 482 653 482 644 505 c 128,-1,100
 635 528 635 528 617 539.5 c 128,-1,101
 599 551 599 551 572 551 c 0,102,103
 530 551 530 551 505.5 522.5 c 128,-1,104
 481 494 481 494 477 447 c 1,105,-1
 468 455 l 1,106,-1
 506 455 l 2,107,108
 593 455 593 455 650 431 c 128,-1,109
 707 407 707 407 735.5 361.5 c 128,-1,110
 764 316 764 316 764 251 c 0,111,112
 764 170 764 170 724.5 111 c 128,-1,113
 685 52 685 52 603.5 20.5 c 128,-1,114
 522 -11 522 -11 394 -11 c 0,0,1
EndSplineSet
EndChar

StartChar: jasinh
Encoding: 3490 3490 32
Width: 790
GlyphClass: 2
Flags: W
AnchorPoint: "Cursive-2" 51 0 entry 0
AnchorPoint: "Anchor-0" 790 -15 basechar 0
LayerCount: 2
Fore
SplineSet
394 -11 m 0,0,1
 274 -11 274 -11 194.5 21 c 128,-1,2
 115 53 115 53 75.5 112 c 128,-1,3
 36 171 36 171 36 251 c 0,4,5
 36 317 36 317 64 362.5 c 128,-1,6
 92 408 92 408 149 431.5 c 128,-1,7
 206 455 206 455 292 455 c 2,8,-1
 315 455 l 1,9,-1
 308 452 l 1,10,11
 307 501 307 501 280.5 523.5 c 128,-1,12
 254 546 254 546 215 546 c 0,13,14
 178 546 178 546 158.5 531 c 128,-1,15
 139 516 139 516 139 487 c 0,16,17
 139 482 139 482 140.5 472.5 c 128,-1,18
 142 463 142 463 143 458 c 1,19,-1
 73 446 l 1,20,21
 69 458 69 458 67.5 470.5 c 128,-1,22
 66 483 66 483 66 496 c 0,23,24
 66 553 66 553 104.5 582.5 c 128,-1,25
 143 612 143 612 210 612 c 0,26,27
 264 612 264 612 302 591.5 c 128,-1,28
 340 571 340 571 359.5 530.5 c 128,-1,29
 379 490 379 490 379 430 c 2,30,-1
 379 389 l 1,31,-1
 315 389 l 2,32,33
 247 389 247 389 209 380 c 128,-1,34
 171 371 171 371 148 351 c 0,35,36
 129 335 129 335 119 309.5 c 128,-1,37
 109 284 109 284 109 249 c 0,38,39
 109 196 109 196 138 153 c 128,-1,40
 167 110 167 110 230 85 c 128,-1,41
 293 60 293 60 395 60 c 0,42,43
 496 60 496 60 559 85 c 128,-1,44
 622 110 622 110 651.5 152.5 c 128,-1,45
 681 195 681 195 681 249 c 0,46,47
 681 284 681 284 671 309.5 c 128,-1,48
 661 335 661 335 642 351 c 0,49,50
 619 371 619 371 581 380 c 128,-1,51
 543 389 543 389 475 389 c 2,52,-1
 411 389 l 1,53,-1
 411 430 l 2,54,55
 411 477 411 477 424.5 512 c 128,-1,56
 438 547 438 547 464 570.5 c 128,-1,57
 490 594 490 594 525 604 c 1,58,-1
 547 605 l 2,59,60
 556 607 556 607 567.5 609.5 c 128,-1,61
 579 612 579 612 595 612 c 0,62,63
 653 612 653 612 688.5 583.5 c 128,-1,64
 724 555 724 555 724 505 c 0,65,66
 724 467 724 467 708.5 446 c 128,-1,67
 693 425 693 425 666.5 417 c 128,-1,68
 640 409 640 409 607 409 c 0,69,70
 563 409 563 409 538 427 c 128,-1,71
 513 445 513 445 503 475.5 c 128,-1,72
 493 506 493 506 493 541 c 2,73,-1
 493 543 l 2,74,75
 493 605 493 605 525.5 657 c 128,-1,76
 558 709 558 709 611.5 748 c 128,-1,77
 665 787 665 787 729 810 c 1,78,-1
 759 747 l 1,79,80
 719 734 719 734 681 714 c 128,-1,81
 643 694 643 694 613.5 666 c 128,-1,82
 584 638 584 638 569 601 c 1,83,-1
 566 586 l 2,84,85
 562 573 562 573 560.5 557 c 128,-1,86
 559 541 559 541 559 520 c 0,87,88
 559 485 559 485 573 469.5 c 128,-1,89
 587 454 587 454 612 454 c 0,90,91
 627 454 627 454 639 463 c 128,-1,92
 651 472 651 472 651 498 c 0,93,94
 651 517 651 517 635.5 532.5 c 128,-1,95
 620 548 620 548 585 548 c 0,96,97
 555 548 555 548 531 537 c 128,-1,98
 507 526 507 526 493.5 505 c 128,-1,99
 480 484 480 484 479 452 c 1,100,-1
 473 455 l 1,101,-1
 504 455 l 2,102,103
 588 455 588 455 643.5 431 c 128,-1,104
 699 407 699 407 726.5 361.5 c 128,-1,105
 754 316 754 316 754 251 c 0,106,107
 754 170 754 170 714.5 111 c 128,-1,108
 675 52 675 52 595.5 20.5 c 128,-1,109
 516 -11 516 -11 394 -11 c 0,0,1
EndSplineSet
EndChar

StartChar: jhasinh
Encoding: 3491 3491 33
Width: 1434
GlyphClass: 2
Flags: W
AnchorPoint: "Cursive-2" 36 0 entry 0
AnchorPoint: "Anchor-0" 1434 -15 basechar 0
LayerCount: 2
Fore
SplineSet
542 -11 m 0,0,1
 488 -11 488 -11 453.5 14.5 c 128,-1,2
 419 40 419 40 398 77 c 1,3,4
 373 31 373 31 340 10 c 128,-1,5
 307 -11 307 -11 258 -11 c 0,6,7
 233 -11 233 -11 205.5 -3.5 c 128,-1,8
 178 4 178 4 153.5 24 c 128,-1,9
 129 44 129 44 113.5 79.5 c 128,-1,10
 98 115 98 115 98 170 c 0,11,12
 98 181 98 181 99.5 192.5 c 128,-1,13
 101 204 101 204 103 214 c 1,14,-1
 165 214 l 1,15,16
 164 207 164 207 163.5 200.5 c 128,-1,17
 163 194 163 194 163 187 c 0,18,19
 163 151 163 151 171 122.5 c 128,-1,20
 179 94 179 94 201 77 c 128,-1,21
 223 60 223 60 263 60 c 0,22,23
 297 60 297 60 319.5 76 c 128,-1,24
 342 92 342 92 353.5 125 c 128,-1,25
 365 158 365 158 365 208 c 2,26,-1
 365 214 l 1,27,-1
 432 214 l 1,28,-1
 432 204 l 2,29,30
 432 141 432 141 458.5 100.5 c 128,-1,31
 485 60 485 60 537 60 c 0,32,33
 576 60 576 60 598.5 78 c 128,-1,34
 621 96 621 96 630.5 125.5 c 128,-1,35
 640 155 640 155 640 191 c 0,36,37
 640 280 640 280 585.5 330 c 128,-1,38
 531 380 531 380 420 380 c 0,39,40
 374 380 374 380 339 376.5 c 128,-1,41
 304 373 304 373 268.5 363 c 128,-1,42
 233 353 233 353 186 334 c 1,43,-1
 283 415 l 2,44,45
 296 424 296 424 317 431.5 c 128,-1,46
 338 439 338 439 367.5 444 c 128,-1,47
 397 449 397 449 434 449 c 0,48,49
 496 449 496 449 544.5 432.5 c 128,-1,50
 593 416 593 416 628 383.5 c 128,-1,51
 663 351 663 351 681 303 c 128,-1,52
 699 255 699 255 699 192 c 0,53,54
 699 153 699 153 690 117 c 128,-1,55
 681 81 681 81 662 52 c 128,-1,56
 643 23 643 23 613.5 6 c 128,-1,57
 584 -11 584 -11 542 -11 c 0,0,1
622 544 m 0,58,59
 556 544 556 544 500.5 530 c 128,-1,60
 445 516 445 516 397 488.5 c 128,-1,61
 349 461 349 461 305 420 c 2,62,-1
 294 410 l 2,63,64
 267 383 267 383 239.5 351 c 128,-1,65
 212 319 212 319 184.5 283.5 c 128,-1,66
 157 248 157 248 129 208 c 1,67,-1
 110 188 l 1,68,-1
 85 144 l 1,69,-1
 21 180 l 1,70,71
 71 251 71 251 110.5 301.5 c 128,-1,72
 150 352 150 352 185 390.5 c 128,-1,73
 220 429 220 429 256 461 c 2,74,-1
 277 480 l 2,75,76
 337 532 337 532 392 560.5 c 128,-1,77
 447 589 447 589 504 600.5 c 128,-1,78
 561 612 561 612 626 612 c 0,79,80
 698 612 698 612 755 593.5 c 128,-1,81
 812 575 812 575 856 547 c 128,-1,82
 900 519 900 519 931 491 c 1,83,-1
 888 444 l 1,84,85
 840 480 840 480 798 502 c 128,-1,86
 756 524 756 524 714 534 c 128,-1,87
 672 544 672 544 622 544 c 0,58,59
167 592 m 0,88,89
 216 592 216 592 246 568 c 128,-1,90
 276 544 276 544 291.5 508 c 128,-1,91
 307 472 307 472 310 434 c 1,92,-1
 252 398 l 1,93,94
 248 432 248 432 239.5 461 c 128,-1,95
 231 490 231 490 214 508 c 128,-1,96
 197 526 197 526 168 526 c 0,97,98
 140 526 140 526 122.5 510 c 128,-1,99
 105 494 105 494 105 459 c 0,100,101
 105 443 105 443 108.5 430 c 128,-1,102
 112 417 112 417 116 403 c 1,103,-1
 46 389 l 1,104,105
 40 409 40 409 36.5 429.5 c 128,-1,106
 33 450 33 450 33 467 c 0,107,108
 33 508 33 508 49.5 535.5 c 128,-1,109
 66 563 66 563 96.5 577.5 c 128,-1,110
 127 592 127 592 167 592 c 0,88,89
1155 -11 m 0,111,112
 1096 -11 1096 -11 1060 15 c 128,-1,113
 1024 41 1024 41 998 77 c 1,114,115
 969 36 969 36 933.5 12.5 c 128,-1,116
 898 -11 898 -11 833 -11 c 0,117,118
 781 -11 781 -11 739.5 14.5 c 128,-1,119
 698 40 698 40 674 92.5 c 128,-1,120
 650 145 650 145 650 226 c 0,121,122
 650 290 650 290 674.5 347 c 128,-1,123
 699 404 699 404 753 440.5 c 128,-1,124
 807 477 807 477 896 479 c 1,125,-1
 931 491 l 1,126,-1
 905 417 l 1,127,128
 844 414 844 414 801 389 c 128,-1,129
 758 364 758 364 735 320.5 c 128,-1,130
 712 277 712 277 712 220 c 0,131,132
 712 144 712 144 745 102 c 128,-1,133
 778 60 778 60 840 60 c 0,134,135
 875 60 875 60 898.5 70.5 c 128,-1,136
 922 81 922 81 937 100.5 c 128,-1,137
 952 120 952 120 958.5 147.5 c 128,-1,138
 965 175 965 175 965 208 c 2,139,-1
 965 214 l 1,140,-1
 1032 214 l 1,141,-1
 1032 208 l 2,142,143
 1032 176 1032 176 1038 149 c 128,-1,144
 1044 122 1044 122 1058.5 102 c 128,-1,145
 1073 82 1073 82 1096.5 71 c 128,-1,146
 1120 60 1120 60 1154 60 c 0,147,148
 1201 60 1201 60 1238.5 86.5 c 128,-1,149
 1276 113 1276 113 1297.5 175 c 128,-1,150
 1319 237 1319 237 1319 345 c 0,151,152
 1319 483 1319 483 1280.5 576.5 c 128,-1,153
 1242 670 1242 670 1166 718 c 128,-1,154
 1090 766 1090 766 975 766 c 0,155,156
 881 766 881 766 812.5 745.5 c 128,-1,157
 744 725 744 725 680 686 c 1,158,-1
 647 751 l 1,159,160
 694 777 694 777 744.5 796 c 128,-1,161
 795 815 795 815 852.5 825.5 c 128,-1,162
 910 836 910 836 979 836 c 0,163,164
 1107 836 1107 836 1200 784 c 128,-1,165
 1293 732 1293 732 1343.5 624 c 128,-1,166
 1394 516 1394 516 1394 348 c 0,167,168
 1394 216 1394 216 1363 137 c 128,-1,169
 1332 58 1332 58 1278.5 23.5 c 128,-1,170
 1225 -11 1225 -11 1155 -11 c 0,111,112
EndSplineSet
EndChar

StartChar: nyasinh
Encoding: 3492 3492 34
Width: 1298
GlyphClass: 2
Flags: W
AnchorPoint: "Cursive-2" 46 0 entry 0
LayerCount: 2
Fore
SplineSet
689 -11 m 0,0,1
 634 -11 634 -11 598.5 15.5 c 128,-1,2
 563 42 563 42 542 77 c 1,3,4
 517 31 517 31 484 10 c 128,-1,5
 451 -11 451 -11 402 -11 c 0,6,7
 377 -11 377 -11 349 -3.5 c 128,-1,8
 321 4 321 4 297 24 c 128,-1,9
 273 44 273 44 257.5 79.5 c 128,-1,10
 242 115 242 115 242 170 c 0,11,12
 242 181 242 181 243.5 192.5 c 128,-1,13
 245 204 245 204 247 214 c 1,14,-1
 309 214 l 1,15,16
 308 207 308 207 307.5 200.5 c 128,-1,17
 307 194 307 194 307 187 c 0,18,19
 307 151 307 151 315 122.5 c 128,-1,20
 323 94 323 94 345 77 c 128,-1,21
 367 60 367 60 407 60 c 0,22,23
 441 60 441 60 463.5 76 c 128,-1,24
 486 92 486 92 497.5 125 c 128,-1,25
 509 158 509 158 509 208 c 2,26,-1
 509 214 l 1,27,-1
 576 214 l 1,28,-1
 576 204 l 2,29,30
 576 141 576 141 602.5 100.5 c 128,-1,31
 629 60 629 60 681 60 c 0,32,33
 720 60 720 60 742.5 78 c 128,-1,34
 765 96 765 96 774.5 125.5 c 128,-1,35
 784 155 784 155 784 191 c 0,36,37
 784 280 784 280 729.5 330 c 128,-1,38
 675 380 675 380 564 380 c 0,39,40
 518 380 518 380 482.5 376.5 c 128,-1,41
 447 373 447 373 411.5 363 c 128,-1,42
 376 353 376 353 329 334 c 1,43,-1
 427 415 l 2,44,45
 440 424 440 424 461 431.5 c 128,-1,46
 482 439 482 439 512 443.5 c 128,-1,47
 542 448 542 448 578 448 c 0,48,49
 663 448 663 448 722.5 419 c 128,-1,50
 782 390 782 390 813 333.5 c 128,-1,51
 844 277 844 277 844 192 c 0,52,53
 844 136 844 136 828 89.5 c 128,-1,54
 812 43 812 43 777.5 16 c 128,-1,55
 743 -11 743 -11 689 -11 c 0,0,1
790 544 m 0,56,57
 710 544 710 544 647.5 529 c 128,-1,58
 585 514 585 514 534.5 484 c 128,-1,59
 484 454 484 454 438 410 c 2,60,-1
 413 385 l 2,61,62
 390 360 390 360 366.5 332 c 128,-1,63
 343 304 343 304 320 273 c 128,-1,64
 297 242 297 242 273 208 c 1,65,-1
 254 188 l 1,66,-1
 229 144 l 1,67,-1
 165 180 l 1,68,69
 215 251 215 251 254.5 301.5 c 128,-1,70
 294 352 294 352 329 390.5 c 128,-1,71
 364 429 364 429 400 461 c 2,72,-1
 421 479 l 2,73,74
 480 529 480 529 535.5 558 c 128,-1,75
 591 587 591 587 651.5 599.5 c 128,-1,76
 712 612 712 612 784 612 c 0,77,78
 833 612 833 612 873 606.5 c 128,-1,79
 913 601 913 601 949.5 590 c 128,-1,80
 986 579 986 579 1025 561 c 1,81,-1
 984 500 l 1,82,83
 939 521 939 521 892 532.5 c 128,-1,84
 845 544 845 544 790 544 c 0,56,57
311 592 m 0,85,86
 360 592 360 592 390 568 c 128,-1,87
 420 544 420 544 435.5 508 c 128,-1,88
 451 472 451 472 454 434 c 1,89,-1
 396 398 l 1,90,91
 392 432 392 432 383.5 461 c 128,-1,92
 375 490 375 490 358 508 c 128,-1,93
 341 526 341 526 312 526 c 0,94,95
 284 526 284 526 266.5 510 c 128,-1,96
 249 494 249 494 249 459 c 0,97,98
 249 443 249 443 252.5 429.5 c 128,-1,99
 256 416 256 416 260 403 c 1,100,-1
 190 389 l 1,101,102
 184 409 184 409 180.5 430 c 128,-1,103
 177 451 177 451 177 467 c 0,104,105
 177 505 177 505 196 533 c 128,-1,106
 215 561 215 561 245.5 576.5 c 128,-1,107
 276 592 276 592 311 592 c 0,85,86
36 307 m 0,108,109
 36 390 36 390 69 454 c 128,-1,110
 102 518 102 518 162 554.5 c 128,-1,111
 222 591 222 591 302 591 c 1,112,-1
 244 519 l 1,113,114
 201 504 201 504 170.5 475 c 128,-1,115
 140 446 140 446 124.5 403 c 128,-1,116
 109 360 109 360 109 303 c 0,117,118
 109 259 109 259 118 223 c 128,-1,119
 127 187 127 187 144 155.5 c 128,-1,120
 161 124 161 124 184 91 c 1,121,-1
 119 53 l 1,122,123
 84 106 84 106 60 167 c 128,-1,124
 36 228 36 228 36 307 c 0,108,109
1075 -11 m 0,125,126
 942 -11 942 -11 867 50.5 c 128,-1,127
 792 112 792 112 792 233 c 0,128,129
 792 293 792 293 811.5 334.5 c 128,-1,130
 831 376 831 376 867 401 c 0,131,132
 910 432 910 432 968.5 443.5 c 128,-1,133
 1027 455 1027 455 1112 455 c 2,134,-1
 1197 455 l 1,135,136
 1194 502 1194 502 1167.5 524 c 128,-1,137
 1141 546 1141 546 1101 546 c 0,138,139
 1062 546 1062 546 1042 531.5 c 128,-1,140
 1022 517 1022 517 1022 492 c 0,141,142
 1022 488 1022 488 1022 484 c 128,-1,143
 1022 480 1022 480 1023 477 c 1,144,-1
 951 468 l 1,145,146
 950 476 950 476 949.5 483.5 c 128,-1,147
 949 491 949 491 949 499 c 0,148,149
 949 537 949 537 968.5 562 c 128,-1,150
 988 587 988 587 1021.5 599.5 c 128,-1,151
 1055 612 1055 612 1096 612 c 0,152,153
 1151 612 1151 612 1189.5 591.5 c 128,-1,154
 1228 571 1228 571 1248 530.5 c 128,-1,155
 1268 490 1268 490 1268 430 c 2,156,-1
 1268 389 l 1,157,-1
 1114 389 l 2,158,159
 1052 389 1052 389 1014 385 c 128,-1,160
 976 381 976 381 953 373 c 128,-1,161
 930 365 930 365 911 352 c 0,162,163
 884 334 884 334 869.5 303 c 128,-1,164
 855 272 855 272 855 229 c 256,165,166
 855 186 855 186 877 147 c 128,-1,167
 899 108 899 108 949 84 c 128,-1,168
 999 60 999 60 1083 60 c 0,169,170
 1133 60 1133 60 1177.5 70.5 c 128,-1,171
 1222 81 1222 81 1269 104 c 1,172,-1
 1290 37 l 1,173,174
 1235 8 1235 8 1180 -1.5 c 128,-1,175
 1125 -11 1125 -11 1075 -11 c 0,125,126
1210 -271 m 0,176,177
 1161 -271 1161 -271 1126.5 -253 c 128,-1,178
 1092 -235 1092 -235 1074 -201 c 128,-1,179
 1056 -167 1056 -167 1056 -121 c 0,180,181
 1056 -84 1056 -84 1071.5 -52 c 128,-1,182
 1087 -20 1087 -20 1115 7.5 c 128,-1,183
 1143 35 1143 35 1182 56 c 1,184,-1
 1216 69 l 1,185,-1
 1234 28 l 1,186,187
 1185 0 1185 0 1157.5 -38 c 128,-1,188
 1130 -76 1130 -76 1130 -119 c 0,189,190
 1130 -161 1130 -161 1154.5 -182 c 128,-1,191
 1179 -203 1179 -203 1226 -203 c 0,192,193
 1244 -203 1244 -203 1262.5 -199 c 128,-1,194
 1281 -195 1281 -195 1297 -188 c 1,195,-1
 1313 -252 l 1,196,197
 1289 -263 1289 -263 1264 -267 c 128,-1,198
 1239 -271 1239 -271 1210 -271 c 0,176,177
EndSplineSet
EndChar

StartChar: jnyasinh
Encoding: 3493 3493 35
Width: 1170
GlyphClass: 2
Flags: W
AnchorPoint: "Cursive-2" 47 0 entry 0
LayerCount: 2
Fore
SplineSet
471 -11 m 0,0,1
 381 -11 381 -11 320 24.5 c 128,-1,2
 259 60 259 60 227.5 124 c 128,-1,3
 196 188 196 188 196 273 c 0,4,5
 196 360 196 360 233 420.5 c 128,-1,6
 270 481 270 481 335 513 c 128,-1,7
 400 545 400 545 482 545 c 1,8,-1
 523 566 l 1,9,-1
 497 497 l 1,10,11
 429 495 429 495 378 467.5 c 128,-1,12
 327 440 327 440 299 390 c 128,-1,13
 271 340 271 340 271 268 c 0,14,15
 271 208 271 208 291.5 161 c 128,-1,16
 312 114 312 114 357 87 c 128,-1,17
 402 60 402 60 475 60 c 0,18,19
 536 60 536 60 576.5 81 c 128,-1,20
 617 102 617 102 637 139 c 128,-1,21
 657 176 657 176 657 223 c 0,22,23
 657 261 657 261 643.5 276.5 c 128,-1,24
 630 292 630 292 608 292 c 0,25,26
 595 292 595 292 583 288 c 128,-1,27
 571 284 571 284 559 274 c 1,28,-1
 488 296 l 1,29,30
 502 385 502 385 534 445.5 c 128,-1,31
 566 506 566 506 611.5 542.5 c 128,-1,32
 657 579 657 579 711 595.5 c 128,-1,33
 765 612 765 612 822 612 c 0,34,35
 855 612 855 612 886.5 609.5 c 128,-1,36
 918 607 918 607 943 600 c 1,37,-1
 848 545 l 2,38,39
 846 547 846 547 840 547.5 c 128,-1,40
 834 548 834 548 825 548 c 0,41,42
 769 548 769 548 717 528.5 c 128,-1,43
 665 509 665 509 625.5 463.5 c 128,-1,44
 586 418 586 418 565 341 c 1,45,-1
 555 342 l 1,46,47
 566 350 566 350 583.5 354 c 128,-1,48
 601 358 601 358 614 358 c 0,49,50
 669 358 669 358 694 318.5 c 128,-1,51
 719 279 719 279 719 222 c 0,52,53
 719 160 719 160 693.5 107 c 128,-1,54
 668 54 668 54 613.5 21.5 c 128,-1,55
 559 -11 559 -11 471 -11 c 0,0,1
38 308 m 0,56,57
 38 408 38 408 78.5 475.5 c 128,-1,58
 119 543 119 543 190 577.5 c 128,-1,59
 261 612 261 612 351 612 c 0,60,61
 399 612 399 612 443.5 599.5 c 128,-1,62
 488 587 488 587 523 566 c 1,63,-1
 475 528 l 1,64,65
 450 540 450 540 420 544 c 128,-1,66
 390 548 390 548 351 548 c 0,67,68
 287 548 287 548 232.5 521 c 128,-1,69
 178 494 178 494 144.5 440 c 128,-1,70
 111 386 111 386 111 304 c 0,71,72
 111 252 111 252 124.5 203 c 128,-1,73
 138 154 138 154 163 116 c 1,74,-1
 97 83 l 1,75,76
 73 126 73 126 55.5 183.5 c 128,-1,77
 38 241 38 241 38 308 c 0,56,57
948 -11 m 0,78,79
 815 -11 815 -11 739.5 50.5 c 128,-1,80
 664 112 664 112 664 233 c 0,81,82
 664 293 664 293 683.5 334.5 c 128,-1,83
 703 376 703 376 739 401 c 0,84,85
 783 432 783 432 841 443.5 c 128,-1,86
 899 455 899 455 984 455 c 2,87,-1
 1069 455 l 1,88,89
 1066 502 1066 502 1040 524 c 128,-1,90
 1014 546 1014 546 974 546 c 256,91,92
 934 546 934 546 914 531.5 c 128,-1,93
 894 517 894 517 894 492 c 0,94,95
 894 488 894 488 894 484 c 128,-1,96
 894 480 894 480 895 477 c 1,97,-1
 823 468 l 1,98,99
 822 476 822 476 821.5 482.5 c 128,-1,100
 821 489 821 489 821 499 c 0,101,102
 821 538 821 538 841.5 563 c 128,-1,103
 862 588 862 588 895.5 600 c 128,-1,104
 929 612 929 612 968 612 c 0,105,106
 1023 612 1023 612 1061.5 591.5 c 128,-1,107
 1100 571 1100 571 1120 530.5 c 128,-1,108
 1140 490 1140 490 1140 430 c 2,109,-1
 1140 389 l 1,110,-1
 987 389 l 2,111,112
 924 389 924 389 886 385 c 128,-1,113
 848 381 848 381 825.5 373 c 128,-1,114
 803 365 803 365 784 352 c 0,115,116
 757 334 757 334 742.5 303 c 128,-1,117
 728 272 728 272 728 229 c 256,118,119
 728 186 728 186 750 147 c 128,-1,120
 772 108 772 108 822 84 c 128,-1,121
 872 60 872 60 956 60 c 0,122,123
 989 60 989 60 1019.5 64.5 c 128,-1,124
 1050 69 1050 69 1080 79 c 128,-1,125
 1110 89 1110 89 1141 104 c 1,126,-1
 1162 37 l 1,127,128
 1107 8 1107 8 1052.5 -1.5 c 128,-1,129
 998 -11 998 -11 948 -11 c 0,78,79
1083 -271 m 0,130,131
 1033 -271 1033 -271 998.5 -253 c 128,-1,132
 964 -235 964 -235 946 -201 c 128,-1,133
 928 -167 928 -167 928 -121 c 0,134,135
 928 -84 928 -84 943 -52 c 128,-1,136
 958 -20 958 -20 986 7.5 c 128,-1,137
 1014 35 1014 35 1053 56 c 1,138,-1
 1088 69 l 1,139,-1
 1106 28 l 1,140,141
 1057 0 1057 0 1029.5 -38 c 128,-1,142
 1002 -76 1002 -76 1002 -119 c 0,143,144
 1002 -161 1002 -161 1026.5 -182 c 128,-1,145
 1051 -203 1051 -203 1098 -203 c 0,146,147
 1116 -203 1116 -203 1134.5 -199 c 128,-1,148
 1153 -195 1153 -195 1169 -188 c 1,149,-1
 1185 -252 l 1,150,151
 1160 -263 1160 -263 1135.5 -267 c 128,-1,152
 1111 -271 1111 -271 1083 -271 c 0,130,131
EndSplineSet
EndChar

StartChar: nyjasinh
Encoding: 3494 3494 36
Width: 924
GlyphClass: 2
Flags: W
AnchorPoint: "Cursive-2" 46 0 entry 0
AnchorPoint: "Anchor-0" 924 -15 basechar 0
LayerCount: 2
Fore
SplineSet
528 -11 m 0,0,1
 408 -11 408 -11 328.5 20.5 c 128,-1,2
 249 52 249 52 209.5 111 c 128,-1,3
 170 170 170 170 170 251 c 0,4,5
 170 317 170 317 198 362.5 c 128,-1,6
 226 408 226 408 283 431.5 c 128,-1,7
 340 455 340 455 427 455 c 2,8,-1
 449 455 l 1,9,-1
 442 452 l 1,10,11
 441 501 441 501 414.5 523.5 c 128,-1,12
 388 546 388 546 350 546 c 256,13,14
 312 546 312 546 292 531 c 128,-1,15
 272 516 272 516 272 487 c 0,16,17
 272 482 272 482 274 472.5 c 128,-1,18
 276 463 276 463 277 458 c 1,19,-1
 207 446 l 1,20,21
 204 458 204 458 203 470.5 c 128,-1,22
 202 483 202 483 202 495 c 0,23,24
 202 527 202 527 219 553.5 c 128,-1,25
 236 580 236 580 267.5 596 c 128,-1,26
 299 612 299 612 344 612 c 0,27,28
 398 612 398 612 436 591.5 c 128,-1,29
 474 571 474 571 493.5 530.5 c 128,-1,30
 513 490 513 490 513 430 c 2,31,-1
 513 389 l 1,32,-1
 448 389 l 2,33,34
 381 389 381 389 343 380 c 128,-1,35
 305 371 305 371 282 351 c 0,36,37
 263 335 263 335 253 309.5 c 128,-1,38
 243 284 243 284 243 249 c 0,39,40
 243 196 243 196 272 153 c 128,-1,41
 301 110 301 110 364.5 85 c 128,-1,42
 428 60 428 60 529 60 c 256,43,44
 630 60 630 60 693 85 c 128,-1,45
 756 110 756 110 785.5 152.5 c 128,-1,46
 815 195 815 195 815 249 c 0,47,48
 815 284 815 284 805 309.5 c 128,-1,49
 795 335 795 335 776 351 c 0,50,51
 753 371 753 371 715 380 c 128,-1,52
 677 389 677 389 609 389 c 2,53,-1
 545 389 l 1,54,-1
 545 430 l 2,55,56
 545 477 545 477 558.5 512 c 128,-1,57
 572 547 572 547 598 570.5 c 128,-1,58
 624 594 624 594 659 604 c 1,59,-1
 681 605 l 2,60,61
 690 607 690 607 701.5 609.5 c 128,-1,62
 713 612 713 612 729 612 c 0,63,64
 788 612 788 612 823 583.5 c 128,-1,65
 858 555 858 555 858 505 c 0,66,67
 858 467 858 467 842.5 446 c 128,-1,68
 827 425 827 425 800.5 417 c 128,-1,69
 774 409 774 409 741 409 c 0,70,71
 697 409 697 409 672 427 c 128,-1,72
 647 445 647 445 637 475.5 c 128,-1,73
 627 506 627 506 627 541 c 2,74,-1
 627 543 l 2,75,76
 627 605 627 605 659.5 657 c 128,-1,77
 692 709 692 709 745.5 748 c 128,-1,78
 799 787 799 787 863 810 c 1,79,-1
 893 747 l 1,80,81
 853 734 853 734 815 714 c 128,-1,82
 777 694 777 694 747.5 666 c 128,-1,83
 718 638 718 638 703 601 c 1,84,-1
 700 586 l 2,85,86
 696 573 696 573 694.5 557 c 128,-1,87
 693 541 693 541 693 520 c 0,88,89
 693 485 693 485 707 469.5 c 128,-1,90
 721 454 721 454 746 454 c 0,91,92
 761 454 761 454 773 463 c 128,-1,93
 785 472 785 472 785 498 c 0,94,95
 785 517 785 517 769.5 532.5 c 128,-1,96
 754 548 754 548 719 548 c 0,97,98
 689 548 689 548 665 537 c 128,-1,99
 641 526 641 526 627.5 505 c 128,-1,100
 614 484 614 484 613 452 c 1,101,-1
 607 455 l 1,102,-1
 638 455 l 2,103,104
 722 455 722 455 777.5 431 c 128,-1,105
 833 407 833 407 860.5 361.5 c 128,-1,106
 888 316 888 316 888 251 c 0,107,108
 888 169 888 169 848.5 110.5 c 128,-1,109
 809 52 809 52 729.5 20.5 c 128,-1,110
 650 -11 650 -11 528 -11 c 0,0,1
36 315 m 0,111,112
 36 414 36 414 75 480 c 128,-1,113
 114 546 114 546 181 579 c 128,-1,114
 248 612 248 612 332 612 c 0,115,116
 342 612 342 612 355.5 609.5 c 128,-1,117
 369 607 369 607 385 603 c 128,-1,118
 401 599 401 599 417 592 c 1,119,-1
 357 547 l 2,120,121
 352 547 352 547 343 548 c 128,-1,122
 334 549 334 549 331 549 c 0,123,124
 306 549 306 549 288 548 c 128,-1,125
 270 547 270 547 265 545 c 0,126,127
 190 524 190 524 149.5 466 c 128,-1,128
 109 408 109 408 109 312 c 0,129,130
 109 258 109 258 122.5 209 c 128,-1,131
 136 160 136 160 165 119 c 1,132,-1
 99 83 l 1,133,134
 73 126 73 126 54.5 185.5 c 128,-1,135
 36 245 36 245 36 315 c 0,111,112
EndSplineSet
EndChar

StartChar: ttasinh
Encoding: 3495 3495 37
Width: 792
GlyphClass: 2
Flags: W
AnchorPoint: "Cursive-2" 51 0 entry 0
AnchorPoint: "Anchor-0" 792 -15 basechar 0
LayerCount: 2
Fore
SplineSet
351 -11 m 256,0,1
 244 -11 244 -11 174 20.5 c 128,-1,2
 104 52 104 52 70 108 c 128,-1,3
 36 164 36 164 36 238 c 0,4,5
 36 306 36 306 59 353.5 c 128,-1,6
 82 401 82 401 122 430 c 128,-1,7
 162 459 162 459 214 472.5 c 128,-1,8
 266 486 266 486 323 486 c 0,9,10
 355 486 355 486 383 484 c 128,-1,11
 411 482 411 482 430 479 c 1,12,-1
 423 411 l 1,13,14
 400 415 400 415 379.5 416.5 c 128,-1,15
 359 418 359 418 324 418 c 0,16,17
 265 418 265 418 216 400.5 c 128,-1,18
 167 383 167 383 138 343.5 c 128,-1,19
 109 304 109 304 109 238 c 0,20,21
 109 186 109 186 133.5 146 c 128,-1,22
 158 106 158 106 211.5 83 c 128,-1,23
 265 60 265 60 351 60 c 0,24,25
 446 60 446 60 510 91.5 c 128,-1,26
 574 123 574 123 611.5 175.5 c 128,-1,27
 649 228 649 228 665 291.5 c 128,-1,28
 681 355 681 355 681 418 c 0,29,30
 681 519 681 519 652 586 c 128,-1,31
 623 653 623 653 575.5 692.5 c 128,-1,32
 528 732 528 732 472 749 c 128,-1,33
 416 766 416 766 362 766 c 0,34,35
 280 766 280 766 210 744.5 c 128,-1,36
 140 723 140 723 78 686 c 1,37,-1
 45 751 l 1,38,39
 111 788 111 788 192 812 c 128,-1,40
 273 836 273 836 367 836 c 0,41,42
 442 836 442 836 511.5 812.5 c 128,-1,43
 581 789 581 789 636.5 739 c 128,-1,44
 692 689 692 689 724 609.5 c 128,-1,45
 756 530 756 530 756 418 c 0,46,47
 756 330 756 330 733 252.5 c 128,-1,48
 710 175 710 175 661 115.5 c 128,-1,49
 612 56 612 56 535 22.5 c 128,-1,50
 458 -11 458 -11 351 -11 c 256,0,1
EndSplineSet
EndChar

StartChar: tthasinh
Encoding: 3496 3496 38
Width: 852
GlyphClass: 2
Flags: W
AnchorPoint: "Cursive-2" 51 0 entry 0
AnchorPoint: "Anchor-0" 852 -15 basechar 0
LayerCount: 2
Fore
SplineSet
576 -11 m 0,0,1
 509 -11 509 -11 470 15 c 128,-1,2
 431 41 431 41 405 77 c 1,3,4
 385 50 385 50 363 30 c 128,-1,5
 341 10 341 10 311 -0.5 c 128,-1,6
 281 -11 281 -11 236 -11 c 0,7,8
 180 -11 180 -11 134.5 14.5 c 128,-1,9
 89 40 89 40 62.5 92.5 c 128,-1,10
 36 145 36 145 36 226 c 0,11,12
 36 296 36 296 68 355 c 128,-1,13
 100 414 100 414 165 450 c 128,-1,14
 230 486 230 486 327 486 c 0,15,16
 359 486 359 486 385.5 484.5 c 128,-1,17
 412 483 412 483 437 479 c 1,18,-1
 431 411 l 1,19,20
 415 414 415 414 400 415.5 c 128,-1,21
 385 417 385 417 368.5 417.5 c 128,-1,22
 352 418 352 418 331 418 c 0,23,24
 260 418 260 418 210 394.5 c 128,-1,25
 160 371 160 371 134.5 326.5 c 128,-1,26
 109 282 109 282 109 220 c 0,27,28
 109 144 109 144 143.5 102 c 128,-1,29
 178 60 178 60 243 60 c 0,30,31
 279 60 279 60 303.5 70.5 c 128,-1,32
 328 81 328 81 343 100.5 c 128,-1,33
 358 120 358 120 365 147.5 c 128,-1,34
 372 175 372 175 372 208 c 2,35,-1
 372 214 l 1,36,-1
 439 214 l 1,37,-1
 439 208 l 2,38,39
 439 176 439 176 445.5 149 c 128,-1,40
 452 122 452 122 467 102 c 128,-1,41
 482 82 482 82 508 71 c 128,-1,42
 534 60 534 60 573 60 c 0,43,44
 620 60 620 60 657.5 83 c 128,-1,45
 695 106 695 106 716.5 161.5 c 128,-1,46
 738 217 738 217 738 314 c 0,47,48
 738 409 738 409 715.5 480.5 c 128,-1,49
 693 552 693 552 650.5 604.5 c 128,-1,50
 608 657 608 657 549 696 c 128,-1,51
 490 735 490 735 417 763 c 0,52,53
 409 766 409 766 400.5 769 c 128,-1,54
 392 772 392 772 384 775 c 1,55,-1
 410 836 l 1,56,57
 489 810 489 810 552.5 774.5 c 128,-1,58
 616 739 616 739 665 692.5 c 128,-1,59
 714 646 714 646 747 588.5 c 128,-1,60
 780 531 780 531 796.5 462 c 128,-1,61
 813 393 813 393 813 312 c 0,62,63
 813 224 813 224 795.5 162.5 c 128,-1,64
 778 101 778 101 746 62.5 c 128,-1,65
 714 24 714 24 670.5 6.5 c 128,-1,66
 627 -11 627 -11 576 -11 c 0,0,1
531 523 m 0,67,68
 493 523 493 523 466.5 538.5 c 128,-1,69
 440 554 440 554 426.5 585.5 c 128,-1,70
 413 617 413 617 413 664 c 0,71,72
 413 706 413 706 411 727 c 128,-1,73
 409 748 409 748 402.5 758 c 128,-1,74
 396 768 396 768 384 775 c 1,75,-1
 416 800 l 1,76,77
 441 784 441 784 454.5 765.5 c 128,-1,78
 468 747 468 747 474.5 722.5 c 128,-1,79
 481 698 481 698 482 662 c 0,80,81
 484 626 484 626 494.5 607.5 c 128,-1,82
 505 589 505 589 536 589 c 0,83,84
 565 589 565 589 585 605.5 c 128,-1,85
 605 622 605 622 621 661 c 1,86,-1
 663 611 l 1,87,88
 650 580 650 580 616 551.5 c 128,-1,89
 582 523 582 523 531 523 c 0,67,68
EndSplineSet
EndChar

StartChar: ddasinh
Encoding: 3497 3497 39
Width: 864
GlyphClass: 2
Flags: W
AnchorPoint: "Cursive-2" 45 0 entry 0
AnchorPoint: "Anchor-0" 864 -15 basechar 0
LayerCount: 2
Fore
SplineSet
580 -11 m 0,0,1
 518 -11 518 -11 480.5 14.5 c 128,-1,2
 443 40 443 40 418 77 c 1,3,4
 398 50 398 50 375.5 30 c 128,-1,5
 353 10 353 10 323 -0.5 c 128,-1,6
 293 -11 293 -11 248 -11 c 0,7,8
 189 -11 189 -11 142.5 14 c 128,-1,9
 96 39 96 39 69.5 87 c 128,-1,10
 43 135 43 135 43 204 c 0,11,12
 43 246 43 246 56.5 284.5 c 128,-1,13
 70 323 70 323 101.5 354.5 c 128,-1,14
 133 386 133 386 185 406 c 1,15,-1
 187 397 l 1,16,17
 153 391 153 391 116 390 c 128,-1,18
 79 389 79 389 50 389 c 2,19,-1
 30 389 l 1,20,-1
 30 455 l 1,21,-1
 346 455 l 1,22,23
 343 502 343 502 317.5 524 c 128,-1,24
 292 546 292 546 254 546 c 0,25,26
 215 546 215 546 196 531 c 128,-1,27
 177 516 177 516 177 489 c 0,28,29
 177 487 177 487 177 484 c 128,-1,30
 177 481 177 481 178 478 c 1,31,-1
 105 474 l 1,32,33
 104 479 104 479 104 485.5 c 128,-1,34
 104 492 104 492 104 496 c 0,35,36
 104 553 104 553 142.5 582.5 c 128,-1,37
 181 612 181 612 248 612 c 0,38,39
 302 612 302 612 340 591.5 c 128,-1,40
 378 571 378 571 397.5 530.5 c 128,-1,41
 417 490 417 490 417 430 c 2,42,-1
 417 389 l 1,43,-1
 382 389 l 2,44,45
 347 389 347 389 310 387 c 128,-1,46
 273 385 273 385 238 375 c 128,-1,47
 203 365 203 365 173 340 c 0,48,49
 147 318 147 318 131.5 285 c 128,-1,50
 116 252 116 252 116 204 c 0,51,52
 116 134 116 134 152.5 97 c 128,-1,53
 189 60 189 60 250 60 c 0,54,55
 288 60 288 60 313.5 70.5 c 128,-1,56
 339 81 339 81 354.5 100.5 c 128,-1,57
 370 120 370 120 377 147.5 c 128,-1,58
 384 175 384 175 384 208 c 2,59,-1
 384 214 l 1,60,-1
 451 214 l 1,61,-1
 451 208 l 2,62,63
 451 176 451 176 457.5 149 c 128,-1,64
 464 122 464 122 478.5 102 c 128,-1,65
 493 82 493 82 517.5 71 c 128,-1,66
 542 60 542 60 578 60 c 0,67,68
 626 60 626 60 664.5 86.5 c 128,-1,69
 703 113 703 113 725.5 175.5 c 128,-1,70
 748 238 748 238 748 345 c 0,71,72
 748 483 748 483 709 576.5 c 128,-1,73
 670 670 670 670 590.5 718 c 128,-1,74
 511 766 511 766 389 766 c 0,75,76
 325 766 325 766 272 756 c 128,-1,77
 219 746 219 746 173 728 c 128,-1,78
 127 710 127 710 83 686 c 1,79,-1
 50 751 l 1,80,81
 121 789 121 789 203.5 812.5 c 128,-1,82
 286 836 286 836 392 836 c 0,83,84
 525 836 525 836 621.5 784 c 128,-1,85
 718 732 718 732 770.5 624 c 128,-1,86
 823 516 823 516 823 348 c 0,87,88
 823 216 823 216 791.5 137 c 128,-1,89
 760 58 760 58 705 23.5 c 128,-1,90
 650 -11 650 -11 580 -11 c 0,0,1
EndSplineSet
EndChar

StartChar: ddhasinh
Encoding: 3498 3498 40
Width: 864
GlyphClass: 2
Flags: W
AnchorPoint: "Cursive-2" 45 0 entry 0
AnchorPoint: "Anchor-0" 864 -15 basechar 0
LayerCount: 2
Fore
SplineSet
588 -11 m 0,0,1
 521 -11 521 -11 482.5 15 c 128,-1,2
 444 41 444 41 418 77 c 1,3,4
 398 50 398 50 375.5 30 c 128,-1,5
 353 10 353 10 323 -0.5 c 128,-1,6
 293 -11 293 -11 248 -11 c 0,7,8
 189 -11 189 -11 142.5 14 c 128,-1,9
 96 39 96 39 69.5 87 c 128,-1,10
 43 135 43 135 43 204 c 0,11,12
 43 246 43 246 56.5 284.5 c 128,-1,13
 70 323 70 323 101.5 354.5 c 128,-1,14
 133 386 133 386 185 406 c 1,15,-1
 187 397 l 1,16,17
 153 391 153 391 116 390 c 128,-1,18
 79 389 79 389 50 389 c 2,19,-1
 30 389 l 1,20,-1
 30 455 l 1,21,-1
 346 455 l 1,22,23
 343 502 343 502 317.5 524 c 128,-1,24
 292 546 292 546 254 546 c 256,25,26
 216 546 216 546 196.5 531 c 128,-1,27
 177 516 177 516 177 489 c 0,28,29
 177 487 177 487 177 484 c 128,-1,30
 177 481 177 481 178 478 c 1,31,-1
 105 474 l 1,32,33
 104 479 104 479 104 485.5 c 128,-1,34
 104 492 104 492 104 496 c 0,35,36
 104 553 104 553 142.5 582.5 c 128,-1,37
 181 612 181 612 248 612 c 0,38,39
 302 612 302 612 340 591.5 c 128,-1,40
 378 571 378 571 397.5 530.5 c 128,-1,41
 417 490 417 490 417 430 c 2,42,-1
 417 389 l 1,43,-1
 382 389 l 2,44,45
 347 389 347 389 310 387 c 128,-1,46
 273 385 273 385 238 375 c 128,-1,47
 203 365 203 365 173 340 c 0,48,49
 147 318 147 318 131.5 285 c 128,-1,50
 116 252 116 252 116 204 c 0,51,52
 116 134 116 134 152.5 97 c 128,-1,53
 189 60 189 60 250 60 c 0,54,55
 288 60 288 60 313.5 70.5 c 128,-1,56
 339 81 339 81 354.5 100.5 c 128,-1,57
 370 120 370 120 377 147.5 c 128,-1,58
 384 175 384 175 384 208 c 2,59,-1
 384 214 l 1,60,-1
 451 214 l 1,61,-1
 451 208 l 2,62,63
 451 176 451 176 457.5 149 c 128,-1,64
 464 122 464 122 479 102 c 128,-1,65
 494 82 494 82 520 71 c 128,-1,66
 546 60 546 60 585 60 c 0,67,68
 632 60 632 60 669.5 83 c 128,-1,69
 707 106 707 106 728.5 161.5 c 128,-1,70
 750 217 750 217 750 314 c 0,71,72
 750 406 750 406 728.5 476.5 c 128,-1,73
 707 547 707 547 666.5 599.5 c 128,-1,74
 626 652 626 652 569.5 691 c 128,-1,75
 513 730 513 730 442 758 c 0,76,77
 431 763 431 763 419.5 767 c 128,-1,78
 408 771 408 771 396 775 c 1,79,-1
 422 836 l 1,80,81
 501 810 501 810 565 774.5 c 128,-1,82
 629 739 629 739 678 692.5 c 128,-1,83
 727 646 727 646 760 588.5 c 128,-1,84
 793 531 793 531 809.5 462 c 128,-1,85
 826 393 826 393 826 312 c 0,86,87
 826 224 826 224 808 162.5 c 128,-1,88
 790 101 790 101 758 62.5 c 128,-1,89
 726 24 726 24 682.5 6.5 c 128,-1,90
 639 -11 639 -11 588 -11 c 0,0,1
544 523 m 0,91,92
 506 523 506 523 479 538.5 c 128,-1,93
 452 554 452 554 438.5 585.5 c 128,-1,94
 425 617 425 617 425 664 c 0,95,96
 425 706 425 706 423 727 c 128,-1,97
 421 748 421 748 415 758 c 128,-1,98
 409 768 409 768 397 775 c 1,99,-1
 429 800 l 1,100,101
 454 784 454 784 467.5 765.5 c 128,-1,102
 481 747 481 747 487.5 722.5 c 128,-1,103
 494 698 494 698 495 662 c 0,104,105
 497 626 497 626 507.5 607.5 c 128,-1,106
 518 589 518 589 549 589 c 0,107,108
 577 589 577 589 597 605.5 c 128,-1,109
 617 622 617 622 634 661 c 1,110,-1
 675 611 l 1,111,112
 662 580 662 580 628 551.5 c 128,-1,113
 594 523 594 523 544 523 c 0,91,92
EndSplineSet
EndChar

StartChar: nnasinh
Encoding: 3499 3499 41
Width: 1199
GlyphClass: 2
Flags: W
AnchorPoint: "Cursive-2" 51 0 entry 0
AnchorPoint: "Anchor-0" 1199 -15 basechar 0
LayerCount: 2
Fore
SplineSet
781 783 m 1,0,1
 728 738 728 738 671 688 c 128,-1,2
 614 638 614 638 555 585 c 128,-1,3
 496 532 496 532 436.5 477.5 c 128,-1,4
 377 423 377 423 318.5 367 c 128,-1,5
 260 311 260 311 204 256 c 2,6,-1
 189 241 l 2,7,8
 165 217 165 217 141 192 c 128,-1,9
 117 167 117 167 94.5 142.5 c 128,-1,10
 72 118 72 118 50 94 c 1,11,-1
 -3 141 l 1,12,13
 66 213 66 213 141 285.5 c 128,-1,14
 216 358 216 358 293 430 c 128,-1,15
 370 502 370 502 445 572 c 1,16,-1
 458 587 l 1,17,18
 532 655 532 655 601.5 718 c 128,-1,19
 671 781 671 781 734 836 c 1,20,-1
 781 783 l 1,0,1
393 -11 m 0,21,22
 315 -11 315 -11 256 8 c 128,-1,23
 197 27 197 27 148 64 c 128,-1,24
 99 101 99 101 52 154 c 1,25,-1
 103 201 l 1,26,27
 145 153 145 153 187.5 121.5 c 128,-1,28
 230 90 230 90 279 75 c 128,-1,29
 328 60 328 60 388 60 c 0,30,31
 515 60 515 60 586.5 123 c 128,-1,32
 658 186 658 186 658 299 c 0,33,34
 658 358 658 358 639.5 403.5 c 128,-1,35
 621 449 621 449 585.5 481 c 128,-1,36
 550 513 550 513 500.5 529.5 c 128,-1,37
 451 546 451 546 388 546 c 0,38,39
 326 546 326 546 278.5 527.5 c 128,-1,40
 231 509 231 509 204.5 475 c 128,-1,41
 178 441 178 441 178 394 c 0,42,43
 178 371 178 371 181 350.5 c 128,-1,44
 184 330 184 330 193 313 c 2,45,-1
 210 288 l 2,46,47
 229 264 229 264 259.5 248 c 128,-1,48
 290 232 290 232 333 225 c 1,49,-1
 362 223 l 2,50,51
 368 222 368 222 374 222 c 128,-1,52
 380 222 380 222 386 222 c 0,53,54
 427 222 427 222 448.5 237.5 c 128,-1,55
 470 253 470 253 470 280 c 0,56,57
 470 301 470 301 458.5 317 c 128,-1,58
 447 333 447 333 417 333 c 0,59,60
 389 333 389 333 377.5 318.5 c 128,-1,61
 366 304 366 304 366 282 c 0,62,63
 366 267 366 267 370 250 c 128,-1,64
 374 233 374 233 385 219 c 1,65,-1
 315 223 l 1,66,67
 308 237 308 237 303 253 c 128,-1,68
 298 269 298 269 298 291 c 0,69,70
 298 321 298 321 312 345 c 128,-1,71
 326 369 326 369 352.5 383 c 128,-1,72
 379 397 379 397 418 397 c 0,73,74
 474 397 474 397 507.5 367 c 128,-1,75
 541 337 541 337 541 282 c 0,76,77
 541 242 541 242 520 214 c 128,-1,78
 499 186 499 186 462 171.5 c 128,-1,79
 425 157 425 157 378 157 c 0,80,81
 291 157 291 157 230.5 189 c 128,-1,82
 170 221 170 221 138 275 c 128,-1,83
 106 329 106 329 106 395 c 0,84,85
 106 440 106 440 125.5 479.5 c 128,-1,86
 145 519 145 519 181.5 549 c 128,-1,87
 218 579 218 579 270 595.5 c 128,-1,88
 322 612 322 612 387 612 c 0,89,90
 420 612 420 612 449.5 609 c 128,-1,91
 479 606 479 606 507 600 c 1,92,-1
 537 589 l 2,93,94
 602 569 602 569 645 525.5 c 128,-1,95
 688 482 688 482 709.5 423.5 c 128,-1,96
 731 365 731 365 731 300 c 0,97,98
 731 193 731 193 686.5 124 c 128,-1,99
 642 55 642 55 565.5 22 c 128,-1,100
 489 -11 489 -11 393 -11 c 0,21,22
972 -11 m 0,101,102
 927 -11 927 -11 892.5 7.5 c 128,-1,103
 858 26 858 26 834 56.5 c 128,-1,104
 810 87 810 87 795 123 c 1,105,-1
 864 151 l 1,106,107
 882 108 882 108 905.5 83 c 128,-1,108
 929 58 929 58 971 58 c 0,109,110
 1015 58 1015 58 1039 81.5 c 128,-1,111
 1063 105 1063 105 1073 153.5 c 128,-1,112
 1083 202 1083 202 1083 275 c 0,113,114
 1083 330 1083 330 1075 378.5 c 128,-1,115
 1067 427 1067 427 1045 457 c 128,-1,116
 1023 487 1023 487 982 487 c 0,117,118
 955 487 955 487 938 476.5 c 128,-1,119
 921 466 921 466 911 447.5 c 128,-1,120
 901 429 901 429 897 403 c 128,-1,121
 893 377 893 377 893 345 c 2,122,-1
 893 339 l 1,123,-1
 826 339 l 1,124,-1
 826 346 l 2,125,126
 826 372 826 372 823 393 c 128,-1,127
 820 414 820 414 812.5 429 c 128,-1,128
 805 444 805 444 791.5 452 c 128,-1,129
 778 460 778 460 758 460 c 0,130,131
 715 460 715 460 696.5 423.5 c 128,-1,132
 678 387 678 387 678 335 c 1,133,-1
 642 464 l 1,134,135
 661 493 661 493 689 511 c 128,-1,136
 717 529 717 529 753 529 c 0,137,138
 784 529 784 529 810 515.5 c 128,-1,139
 836 502 836 502 856 470 c 1,140,141
 879 519 879 519 913.5 537.5 c 128,-1,142
 948 556 948 556 990 556 c 0,143,144
 1027 556 1027 556 1058 540.5 c 128,-1,145
 1089 525 1089 525 1111.5 491 c 128,-1,146
 1134 457 1134 457 1146.5 402 c 128,-1,147
 1159 347 1159 347 1159 267 c 0,148,149
 1159 167 1159 167 1136 105.5 c 128,-1,150
 1113 44 1113 44 1071 16.5 c 128,-1,151
 1029 -11 1029 -11 972 -11 c 0,101,102
EndSplineSet
EndChar

StartChar: nnddasinh
Encoding: 3500 3500 42
Width: 1000
GlyphClass: 2
Flags: W
AnchorPoint: "Cursive-2" 46 0 entry 0
AnchorPoint: "Anchor-0" 1000 -15 basechar 0
LayerCount: 2
Fore
SplineSet
714 -11 m 0,0,1
 674 -11 674 -11 644 1 c 128,-1,2
 614 13 614 13 592.5 33 c 128,-1,3
 571 53 571 53 554 77 c 1,4,5
 534 50 534 50 511.5 30 c 128,-1,6
 489 10 489 10 458.5 -0.5 c 128,-1,7
 428 -11 428 -11 383 -11 c 0,8,9
 324 -11 324 -11 278 14 c 128,-1,10
 232 39 232 39 205.5 87 c 128,-1,11
 179 135 179 135 179 204 c 0,12,13
 179 246 179 246 192.5 284.5 c 128,-1,14
 206 323 206 323 237.5 354.5 c 128,-1,15
 269 386 269 386 321 406 c 1,16,-1
 323 397 l 1,17,18
 304 394 304 394 279.5 392 c 128,-1,19
 255 390 255 390 230.5 389.5 c 128,-1,20
 206 389 206 389 186 389 c 2,21,-1
 176 389 l 1,22,-1
 176 455 l 1,23,-1
 497 455 l 1,24,25
 494 502 494 502 468.5 524 c 128,-1,26
 443 546 443 546 405 546 c 0,27,28
 366 546 366 546 347 531 c 128,-1,29
 328 516 328 516 328 490 c 0,30,31
 328 486 328 486 328 483.5 c 128,-1,32
 328 481 328 481 329 478 c 1,33,-1
 256 474 l 1,34,35
 255 479 255 479 255 485.5 c 128,-1,36
 255 492 255 492 255 496 c 0,37,38
 255 553 255 553 293.5 582.5 c 128,-1,39
 332 612 332 612 399 612 c 0,40,41
 453 612 453 612 491 591.5 c 128,-1,42
 529 571 529 571 548.5 530.5 c 128,-1,43
 568 490 568 490 568 430 c 2,44,-1
 568 389 l 1,45,-1
 518 389 l 2,46,47
 483 389 483 389 446 387 c 128,-1,48
 409 385 409 385 374 375 c 128,-1,49
 339 365 339 365 309 340 c 0,50,51
 283 318 283 318 267.5 285 c 128,-1,52
 252 252 252 252 252 204 c 0,53,54
 252 134 252 134 288.5 97 c 128,-1,55
 325 60 325 60 386 60 c 0,56,57
 424 60 424 60 449.5 70.5 c 128,-1,58
 475 81 475 81 490.5 100.5 c 128,-1,59
 506 120 506 120 513 147.5 c 128,-1,60
 520 175 520 175 520 208 c 2,61,-1
 520 214 l 1,62,-1
 587 214 l 1,63,-1
 587 208 l 2,64,65
 587 176 587 176 593.5 149 c 128,-1,66
 600 122 600 122 614 102 c 128,-1,67
 628 82 628 82 652.5 71 c 128,-1,68
 677 60 677 60 713 60 c 0,69,70
 762 60 762 60 800.5 86.5 c 128,-1,71
 839 113 839 113 861.5 175.5 c 128,-1,72
 884 238 884 238 884 345 c 0,73,74
 884 483 884 483 845 576.5 c 128,-1,75
 806 670 806 670 726 718 c 128,-1,76
 646 766 646 766 524 766 c 0,77,78
 461 766 461 766 408 756 c 128,-1,79
 355 746 355 746 309 728.5 c 128,-1,80
 263 711 263 711 219 686 c 1,81,-1
 186 751 l 1,82,83
 257 790 257 790 339.5 813 c 128,-1,84
 422 836 422 836 527 836 c 0,85,86
 661 836 661 836 757.5 784 c 128,-1,87
 854 732 854 732 906.5 624 c 128,-1,88
 959 516 959 516 959 348 c 0,89,90
 959 216 959 216 927.5 137 c 128,-1,91
 896 58 896 58 840.5 23.5 c 128,-1,92
 785 -11 785 -11 714 -11 c 0,0,1
36 315 m 0,93,94
 36 414 36 414 76.5 480 c 128,-1,95
 117 546 117 546 186.5 579 c 128,-1,96
 256 612 256 612 343 612 c 0,97,98
 365 612 365 612 392.5 610.5 c 128,-1,99
 420 609 420 609 446 604 c 1,100,-1
 383 547 l 1,101,102
 377 547 377 547 366.5 548 c 128,-1,103
 356 549 356 549 348 549 c 0,104,105
 271 549 271 549 217.5 520.5 c 128,-1,106
 164 492 164 492 136.5 439 c 128,-1,107
 109 386 109 386 109 312 c 0,108,109
 109 258 109 258 122.5 208.5 c 128,-1,110
 136 159 136 159 165 118 c 1,111,-1
 99 83 l 1,112,113
 72 126 72 126 54 188 c 128,-1,114
 36 250 36 250 36 315 c 0,93,94
EndSplineSet
EndChar

StartChar: tasinh
Encoding: 3501 3501 43
Width: 948
GlyphClass: 2
Flags: W
AnchorPoint: "Cursive-2" 36 0 entry 0
AnchorPoint: "Anchor-0" 948 -15 basechar 0
LayerCount: 2
Fore
SplineSet
370 -11 m 0,0,1
 321 -11 321 -11 276.5 -0.5 c 128,-1,2
 232 10 232 10 197 34 c 128,-1,3
 162 58 162 58 141.5 97 c 128,-1,4
 121 136 121 136 121 193 c 0,5,6
 121 204 121 204 122.5 220.5 c 128,-1,7
 124 237 124 237 130 255 c 1,8,-1
 193 251 l 1,9,10
 190 241 190 241 188.5 228.5 c 128,-1,11
 187 216 187 216 187 202 c 0,12,13
 187 152 187 152 210.5 120.5 c 128,-1,14
 234 89 234 89 276 74.5 c 128,-1,15
 318 60 318 60 373 60 c 0,16,17
 446 60 446 60 490.5 81 c 128,-1,18
 535 102 535 102 555 140 c 128,-1,19
 575 178 575 178 575 227 c 0,20,21
 575 283 575 283 551.5 316.5 c 128,-1,22
 528 350 528 350 487 365 c 128,-1,23
 446 380 446 380 395 380 c 0,24,25
 336 380 336 380 294 370.5 c 128,-1,26
 252 361 252 361 202 338 c 1,27,-1
 289 424 l 1,28,29
 302 430 302 430 320 435.5 c 128,-1,30
 338 441 338 441 361 444.5 c 128,-1,31
 384 448 384 448 412 448 c 0,32,33
 486 448 486 448 539 423 c 128,-1,34
 592 398 592 398 620 349 c 128,-1,35
 648 300 648 300 648 229 c 0,36,37
 648 185 648 185 635.5 142 c 128,-1,38
 623 99 623 99 592.5 64.5 c 128,-1,39
 562 30 562 30 507.5 9.5 c 128,-1,40
 453 -11 453 -11 370 -11 c 0,0,1
666 -3 m 0,41,42
 653 -3 653 -3 641.5 -2.5 c 128,-1,43
 630 -2 630 -2 619 -1 c 1,44,-1
 623 68 l 1,45,46
 629 67 629 67 640 66.5 c 128,-1,47
 651 66 651 66 657 66 c 0,48,49
 722 66 722 66 761.5 96 c 128,-1,50
 801 126 801 126 819 177.5 c 128,-1,51
 837 229 837 229 837 292 c 0,52,53
 837 375 837 375 804.5 430.5 c 128,-1,54
 772 486 772 486 714.5 513.5 c 128,-1,55
 657 541 657 541 582 541 c 0,56,57
 524 541 524 541 470.5 523.5 c 128,-1,58
 417 506 417 506 370 475.5 c 128,-1,59
 323 445 323 445 284 405 c 2,60,-1
 271 391 l 2,61,62
 245 361 245 361 223 334.5 c 128,-1,63
 201 308 201 308 181.5 283 c 128,-1,64
 162 258 162 258 142 230 c 1,65,-1
 130 221 l 1,66,-1
 85 144 l 1,67,-1
 21 180 l 1,68,69
 80 263 80 263 137.5 336.5 c 128,-1,70
 195 410 195 410 256 468 c 1,71,-1
 274 483 l 2,72,73
 320 523 320 523 369 552 c 128,-1,74
 418 581 418 581 472 596.5 c 128,-1,75
 526 612 526 612 586 612 c 0,76,77
 692 612 692 612 764.5 571 c 128,-1,78
 837 530 837 530 874.5 457 c 128,-1,79
 912 384 912 384 912 287 c 0,80,81
 912 192 912 192 879 127 c 128,-1,82
 846 62 846 62 790.5 29.5 c 128,-1,83
 735 -3 735 -3 666 -3 c 0,41,42
167 592 m 0,84,85
 216 592 216 592 246 568 c 128,-1,86
 276 544 276 544 291.5 508 c 128,-1,87
 307 472 307 472 310 434 c 1,88,-1
 252 398 l 1,89,90
 248 432 248 432 239.5 461 c 128,-1,91
 231 490 231 490 214 508 c 128,-1,92
 197 526 197 526 168 526 c 0,93,94
 140 526 140 526 122.5 510 c 128,-1,95
 105 494 105 494 105 459 c 0,96,97
 105 443 105 443 108.5 429.5 c 128,-1,98
 112 416 112 416 116 403 c 1,99,-1
 46 389 l 1,100,101
 40 409 40 409 36.5 429.5 c 128,-1,102
 33 450 33 450 33 467 c 0,103,104
 33 508 33 508 49.5 535.5 c 128,-1,105
 66 563 66 563 96.5 577.5 c 128,-1,106
 127 592 127 592 167 592 c 0,84,85
EndSplineSet
EndChar

StartChar: thasinh
Encoding: 3502 3502 44
Width: 802
GlyphClass: 2
Flags: W
AnchorPoint: "Cursive-2" 51 0 entry 0
AnchorPoint: "Anchor-0" 802 -15 basechar 0
LayerCount: 2
Fore
SplineSet
351 -11 m 0,0,1
 244 -11 244 -11 174 20.5 c 128,-1,2
 104 52 104 52 70 108 c 128,-1,3
 36 164 36 164 36 238 c 0,4,5
 36 306 36 306 59 353.5 c 128,-1,6
 82 401 82 401 122 430 c 128,-1,7
 162 459 162 459 214 472.5 c 128,-1,8
 266 486 266 486 323 486 c 0,9,10
 355 486 355 486 383 484 c 128,-1,11
 411 482 411 482 430 479 c 1,12,-1
 423 411 l 1,13,14
 400 415 400 415 379.5 416.5 c 128,-1,15
 359 418 359 418 324 418 c 0,16,17
 265 418 265 418 216 400.5 c 128,-1,18
 167 383 167 383 138 343.5 c 128,-1,19
 109 304 109 304 109 238 c 0,20,21
 109 186 109 186 133.5 146 c 128,-1,22
 158 106 158 106 212 83 c 128,-1,23
 266 60 266 60 354 60 c 0,24,25
 451 60 451 60 516 91 c 128,-1,26
 581 122 581 122 619.5 173.5 c 128,-1,27
 658 225 658 225 674.5 286.5 c 128,-1,28
 691 348 691 348 691 409 c 0,29,30
 691 493 691 493 661 559 c 128,-1,31
 631 625 631 625 573 674.5 c 128,-1,32
 515 724 515 724 431 759 c 0,33,34
 420 764 420 764 408.5 768 c 128,-1,35
 397 772 397 772 385 776 c 1,36,-1
 410 836 l 1,37,38
 484 813 484 813 542 779.5 c 128,-1,39
 600 746 600 746 642 705 c 128,-1,40
 684 664 684 664 711.5 616.5 c 128,-1,41
 739 569 739 569 752.5 517 c 128,-1,42
 766 465 766 465 766 410 c 0,43,44
 766 323 766 323 742 246.5 c 128,-1,45
 718 170 718 170 668 112.5 c 128,-1,46
 618 55 618 55 539.5 22 c 128,-1,47
 461 -11 461 -11 351 -11 c 0,0,1
534 523 m 0,48,49
 496 523 496 523 469.5 538.5 c 128,-1,50
 443 554 443 554 429.5 585.5 c 128,-1,51
 416 617 416 617 416 664 c 0,52,53
 416 706 416 706 414 727.5 c 128,-1,54
 412 749 412 749 405.5 759 c 128,-1,55
 399 769 399 769 387 776 c 1,56,-1
 418 800 l 1,57,58
 443 784 443 784 457 765.5 c 128,-1,59
 471 747 471 747 477 722.5 c 128,-1,60
 483 698 483 698 484 662 c 0,61,62
 486 626 486 626 497 607.5 c 128,-1,63
 508 589 508 589 539 589 c 0,64,65
 567 589 567 589 587 605.5 c 128,-1,66
 607 622 607 622 624 661 c 1,67,-1
 665 611 l 1,68,69
 652 580 652 580 618 551.5 c 128,-1,70
 584 523 584 523 534 523 c 0,48,49
EndSplineSet
EndChar

StartChar: dasinh
Encoding: 3503 3503 45
Width: 577
GlyphClass: 2
Flags: W
AnchorPoint: "Cursive-2" 51 0 entry 0
LayerCount: 2
Fore
SplineSet
344 -11 m 0,0,1
 251 -11 251 -11 182 16.5 c 128,-1,2
 113 44 113 44 74.5 98.5 c 128,-1,3
 36 153 36 153 36 233 c 0,4,5
 36 299 36 299 64.5 344.5 c 128,-1,6
 93 390 93 390 140 415 c 0,7,8
 168 430 168 430 199 439 c 128,-1,9
 230 448 230 448 272.5 451.5 c 128,-1,10
 315 455 315 455 376 455 c 2,11,-1
 476 455 l 1,12,13
 473 502 473 502 446.5 524 c 128,-1,14
 420 546 420 546 380 546 c 0,15,16
 341 546 341 546 321 531.5 c 128,-1,17
 301 517 301 517 301 492 c 0,18,19
 301 488 301 488 301 484 c 128,-1,20
 301 480 301 480 302 477 c 1,21,-1
 230 468 l 1,22,23
 229 476 229 476 228.5 483.5 c 128,-1,24
 228 491 228 491 228 499 c 0,25,26
 228 554 228 554 267 583 c 128,-1,27
 306 612 306 612 375 612 c 0,28,29
 430 612 430 612 468.5 591.5 c 128,-1,30
 507 571 507 571 527 530.5 c 128,-1,31
 547 490 547 490 547 430 c 2,32,-1
 547 389 l 1,33,-1
 384 389 l 2,34,35
 318 389 318 389 278.5 385 c 128,-1,36
 239 381 239 381 214.5 373 c 128,-1,37
 190 365 190 365 170 352 c 0,38,39
 142 334 142 334 127 303 c 128,-1,40
 112 272 112 272 112 229 c 256,41,42
 112 186 112 186 135 147 c 128,-1,43
 158 108 158 108 210.5 84 c 128,-1,44
 263 60 263 60 352 60 c 0,45,46
 387 60 387 60 419.5 64.5 c 128,-1,47
 452 69 452 69 484 79 c 128,-1,48
 516 89 516 89 548 104 c 1,49,-1
 569 37 l 1,50,51
 531 18 531 18 492.5 7.5 c 128,-1,52
 454 -3 454 -3 416.5 -7 c 128,-1,53
 379 -11 379 -11 344 -11 c 0,0,1
490 -271 m 0,54,55
 440 -271 440 -271 405.5 -253 c 128,-1,56
 371 -235 371 -235 353 -201 c 128,-1,57
 335 -167 335 -167 335 -121 c 0,58,59
 335 -84 335 -84 350 -52 c 128,-1,60
 365 -20 365 -20 393.5 7.5 c 128,-1,61
 422 35 422 35 460 56 c 1,62,-1
 495 69 l 1,63,-1
 513 28 l 1,64,65
 464 0 464 0 436.5 -38 c 128,-1,66
 409 -76 409 -76 409 -119 c 0,67,68
 409 -161 409 -161 433.5 -182 c 128,-1,69
 458 -203 458 -203 505 -203 c 0,70,71
 523 -203 523 -203 541.5 -199 c 128,-1,72
 560 -195 560 -195 576 -188 c 1,73,-1
 592 -252 l 1,74,75
 568 -263 568 -263 543 -267 c 128,-1,76
 518 -271 518 -271 490 -271 c 0,54,55
EndSplineSet
EndChar

StartChar: dhasinh
Encoding: 3504 3504 46
Width: 852
GlyphClass: 2
Flags: W
AnchorPoint: "Cursive-2" 51 0 entry 0
AnchorPoint: "Anchor-0" 852 -15 basechar 0
LayerCount: 2
Fore
SplineSet
567 -11 m 0,0,1
 506 -11 506 -11 468.5 15 c 128,-1,2
 431 41 431 41 405 77 c 1,3,4
 385 50 385 50 363 30 c 128,-1,5
 341 10 341 10 311 -0.5 c 128,-1,6
 281 -11 281 -11 236 -11 c 0,7,8
 180 -11 180 -11 134.5 14.5 c 128,-1,9
 89 40 89 40 62.5 92.5 c 128,-1,10
 36 145 36 145 36 226 c 0,11,12
 36 296 36 296 68 355 c 128,-1,13
 100 414 100 414 165 450 c 128,-1,14
 230 486 230 486 327 486 c 0,15,16
 359 486 359 486 385.5 484.5 c 128,-1,17
 412 483 412 483 437 479 c 1,18,-1
 431 411 l 1,19,20
 415 414 415 414 400 415.5 c 128,-1,21
 385 417 385 417 368.5 417.5 c 128,-1,22
 352 418 352 418 331 418 c 0,23,24
 260 418 260 418 210 394.5 c 128,-1,25
 160 371 160 371 134.5 326.5 c 128,-1,26
 109 282 109 282 109 220 c 0,27,28
 109 144 109 144 143.5 102 c 128,-1,29
 178 60 178 60 243 60 c 0,30,31
 279 60 279 60 303.5 70.5 c 128,-1,32
 328 81 328 81 343 100.5 c 128,-1,33
 358 120 358 120 365 147.5 c 128,-1,34
 372 175 372 175 372 208 c 2,35,-1
 372 214 l 1,36,-1
 439 214 l 1,37,-1
 439 208 l 2,38,39
 439 176 439 176 445.5 149 c 128,-1,40
 452 122 452 122 466.5 102 c 128,-1,41
 481 82 481 82 505.5 71 c 128,-1,42
 530 60 530 60 566 60 c 0,43,44
 615 60 615 60 653 86.5 c 128,-1,45
 691 113 691 113 713.5 175 c 128,-1,46
 736 237 736 237 736 345 c 0,47,48
 736 483 736 483 697 576.5 c 128,-1,49
 658 670 658 670 579 718 c 128,-1,50
 500 766 500 766 381 766 c 0,51,52
 289 766 289 766 216 745 c 128,-1,53
 143 724 143 724 78 686 c 1,54,-1
 45 751 l 1,55,56
 92 778 92 778 143.5 797 c 128,-1,57
 195 816 195 816 255 826 c 128,-1,58
 315 836 315 836 386 836 c 0,59,60
 517 836 517 836 612 784 c 128,-1,61
 707 732 707 732 759 624 c 128,-1,62
 811 516 811 516 811 348 c 0,63,64
 811 216 811 216 779.5 137 c 128,-1,65
 748 58 748 58 693 23.5 c 128,-1,66
 638 -11 638 -11 567 -11 c 0,0,1
EndSplineSet
EndChar

StartChar: nasinh
Encoding: 3505 3505 47
Width: 963
GlyphClass: 2
Flags: W
AnchorPoint: "Cursive-2" 72 0 entry 0
AnchorPoint: "Anchor-0" 963 -15 basechar 0
LayerCount: 2
Fore
SplineSet
376 -11 m 0,0,1
 291 -11 291 -11 218.5 19 c 128,-1,2
 146 49 146 49 96 117 c 128,-1,3
 46 185 46 185 28 300 c 1,4,-1
 98 312 l 1,5,6
 114 224 114 224 148.5 168.5 c 128,-1,7
 183 113 183 113 239.5 86.5 c 128,-1,8
 296 60 296 60 378 60 c 0,9,10
 447 60 447 60 494 80.5 c 128,-1,11
 541 101 541 101 565.5 139.5 c 128,-1,12
 590 178 590 178 590 231 c 0,13,14
 590 285 590 285 566.5 317.5 c 128,-1,15
 543 350 543 350 502 365 c 128,-1,16
 461 380 461 380 410 380 c 0,17,18
 376 380 376 380 350 377.5 c 128,-1,19
 324 375 324 375 298 368 c 1,20,-1
 303 420 l 1,21,22
 322 429 322 429 352 438.5 c 128,-1,23
 382 448 382 448 428 448 c 0,24,25
 502 448 502 448 554.5 423 c 128,-1,26
 607 398 607 398 635 349 c 128,-1,27
 663 300 663 300 663 229 c 0,28,29
 663 185 663 185 648.5 142 c 128,-1,30
 634 99 634 99 601.5 64.5 c 128,-1,31
 569 30 569 30 513.5 9.5 c 128,-1,32
 458 -11 458 -11 376 -11 c 0,0,1
681 -3 m 0,33,34
 668 -3 668 -3 657.5 -2.5 c 128,-1,35
 647 -2 647 -2 634 -1 c 1,36,-1
 638 68 l 1,37,38
 644 67 644 67 655.5 66.5 c 128,-1,39
 667 66 667 66 672 66 c 0,40,41
 737 66 737 66 776.5 96 c 128,-1,42
 816 126 816 126 834 176.5 c 128,-1,43
 852 227 852 227 852 288 c 0,44,45
 852 370 852 370 819 426.5 c 128,-1,46
 786 483 786 483 727.5 512 c 128,-1,47
 669 541 669 541 592 541 c 0,48,49
 534 541 534 541 489.5 523.5 c 128,-1,50
 445 506 445 506 412 476.5 c 128,-1,51
 379 447 379 447 355 410 c 1,52,-1
 363 392 l 1,53,54
 341 317 341 317 303.5 277.5 c 128,-1,55
 266 238 266 238 217.5 224 c 128,-1,56
 169 210 169 210 113 210 c 0,57,58
 103 210 103 210 87.5 212.5 c 128,-1,59
 72 215 72 215 60 221 c 1,60,-1
 61 286 l 1,61,62
 75 282 75 282 93.5 280 c 128,-1,63
 112 278 112 278 124 278 c 0,64,65
 161 278 161 278 195.5 289 c 128,-1,66
 230 300 230 300 259 335 c 128,-1,67
 288 370 288 370 307 443 c 1,68,-1
 317 467 l 1,69,70
 342 504 342 504 380.5 537 c 128,-1,71
 419 570 419 570 472.5 591 c 128,-1,72
 526 612 526 612 594 612 c 0,73,74
 702 612 702 612 776 571 c 128,-1,75
 850 530 850 530 888.5 457.5 c 128,-1,76
 927 385 927 385 927 289 c 256,77,78
 927 193 927 193 894 128 c 128,-1,79
 861 63 861 63 805.5 30 c 128,-1,80
 750 -3 750 -3 681 -3 c 0,33,34
210 592 m 0,81,82
 259 592 259 592 288.5 568.5 c 128,-1,83
 318 545 318 545 332.5 509 c 128,-1,84
 347 473 347 473 350 434 c 1,85,-1
 295 398 l 1,86,87
 291 432 291 432 282.5 461 c 128,-1,88
 274 490 274 490 257 508 c 128,-1,89
 240 526 240 526 211 526 c 0,90,91
 183 526 183 526 165.5 510 c 128,-1,92
 148 494 148 494 148 459 c 0,93,94
 148 443 148 443 151.5 429.5 c 128,-1,95
 155 416 155 416 159 403 c 1,96,-1
 89 389 l 1,97,98
 83 409 83 409 79.5 429.5 c 128,-1,99
 76 450 76 450 76 467 c 0,100,101
 76 508 76 508 92.5 535.5 c 128,-1,102
 109 563 109 563 139.5 577.5 c 128,-1,103
 170 592 170 592 210 592 c 0,81,82
EndSplineSet
EndChar

StartChar: ndasinh
Encoding: 3507 3507 48
Width: 684
GlyphClass: 2
Flags: W
AnchorPoint: "Cursive-2" 46 0 entry 0
LayerCount: 2
Fore
SplineSet
460 -11 m 0,0,1
 372 -11 372 -11 305.5 16.5 c 128,-1,2
 239 44 239 44 202.5 98.5 c 128,-1,3
 166 153 166 153 166 233 c 0,4,5
 166 299 166 299 192.5 344 c 128,-1,6
 219 389 219 389 264 415 c 0,7,8
 290 430 290 430 319.5 438.5 c 128,-1,9
 349 447 349 447 389.5 451 c 128,-1,10
 430 455 430 455 487 455 c 2,11,-1
 583 455 l 1,12,13
 580 502 580 502 553.5 524 c 128,-1,14
 527 546 527 546 487 546 c 0,15,16
 448 546 448 546 428 531.5 c 128,-1,17
 408 517 408 517 408 492 c 0,18,19
 408 488 408 488 408 484 c 128,-1,20
 408 480 408 480 409 477 c 1,21,-1
 337 468 l 1,22,23
 336 475 336 475 335.5 483.5 c 128,-1,24
 335 492 335 492 335 499 c 0,25,26
 335 536 335 536 355.5 561 c 128,-1,27
 376 586 376 586 409.5 599 c 128,-1,28
 443 612 443 612 482 612 c 0,29,30
 537 612 537 612 575.5 591.5 c 128,-1,31
 614 571 614 571 634 530.5 c 128,-1,32
 654 490 654 490 654 430 c 2,33,-1
 654 389 l 1,34,-1
 500 389 l 2,35,36
 437 389 437 389 399 385 c 128,-1,37
 361 381 361 381 338 373 c 128,-1,38
 315 365 315 365 296 352 c 0,39,40
 270 334 270 334 255.5 303 c 128,-1,41
 241 272 241 272 241 229 c 256,42,43
 241 186 241 186 263 147.5 c 128,-1,44
 285 109 285 109 335 85 c 128,-1,45
 385 61 385 61 469 61 c 0,46,47
 519 61 519 61 564 71 c 128,-1,48
 609 81 609 81 655 104 c 1,49,-1
 676 37 l 1,50,51
 621 8 621 8 565.5 -1.5 c 128,-1,52
 510 -11 510 -11 460 -11 c 0,0,1
597 -271 m 0,53,54
 547 -271 547 -271 512.5 -253 c 128,-1,55
 478 -235 478 -235 460 -201 c 128,-1,56
 442 -167 442 -167 442 -121 c 0,57,58
 442 -84 442 -84 457 -52 c 128,-1,59
 472 -20 472 -20 500.5 7.5 c 128,-1,60
 529 35 529 35 567 56 c 1,61,-1
 602 69 l 1,62,-1
 620 28 l 1,63,64
 571 0 571 0 543.5 -38 c 128,-1,65
 516 -76 516 -76 516 -119 c 0,66,67
 516 -161 516 -161 540.5 -182 c 128,-1,68
 565 -203 565 -203 612 -203 c 0,69,70
 630 -203 630 -203 648.5 -199 c 128,-1,71
 667 -195 667 -195 683 -188 c 1,72,-1
 699 -252 l 1,73,74
 675 -263 675 -263 650 -267 c 128,-1,75
 625 -271 625 -271 597 -271 c 0,53,54
36 315 m 0,76,77
 36 414 36 414 76.5 480 c 128,-1,78
 117 546 117 546 186.5 579 c 128,-1,79
 256 612 256 612 343 612 c 0,80,81
 365 612 365 612 392.5 610.5 c 128,-1,82
 420 609 420 609 446 604 c 1,83,-1
 383 547 l 1,84,85
 376 548 376 548 366 548.5 c 128,-1,86
 356 549 356 549 348 549 c 0,87,88
 271 549 271 549 217.5 520.5 c 128,-1,89
 164 492 164 492 136.5 439 c 128,-1,90
 109 386 109 386 109 312 c 0,91,92
 109 258 109 258 122.5 208.5 c 128,-1,93
 136 159 136 159 161 116 c 1,94,-1
 94 83 l 1,95,96
 68 130 68 130 52 190 c 128,-1,97
 36 250 36 250 36 315 c 0,76,77
EndSplineSet
EndChar

StartChar: pasinh
Encoding: 3508 3508 49
Width: 790
GlyphClass: 2
Flags: W
AnchorPoint: "Cursive-2" 51 0 entry 0
AnchorPoint: "Anchor-0" 790 -15 basechar 0
LayerCount: 2
Fore
SplineSet
394 -11 m 0,0,1
 274 -11 274 -11 194.5 21 c 128,-1,2
 115 53 115 53 75.5 112 c 128,-1,3
 36 171 36 171 36 251 c 0,4,5
 36 317 36 317 64 362.5 c 128,-1,6
 92 408 92 408 149 431.5 c 128,-1,7
 206 455 206 455 292 455 c 2,8,-1
 315 455 l 1,9,-1
 308 452 l 1,10,11
 307 501 307 501 280.5 523.5 c 128,-1,12
 254 546 254 546 215 546 c 0,13,14
 178 546 178 546 158.5 531 c 128,-1,15
 139 516 139 516 139 487 c 0,16,17
 139 482 139 482 140.5 472.5 c 128,-1,18
 142 463 142 463 143 458 c 1,19,-1
 73 446 l 1,20,21
 69 458 69 458 67.5 470.5 c 128,-1,22
 66 483 66 483 66 496 c 0,23,24
 66 553 66 553 104.5 582.5 c 128,-1,25
 143 612 143 612 210 612 c 0,26,27
 264 612 264 612 302 591.5 c 128,-1,28
 340 571 340 571 359.5 530.5 c 128,-1,29
 379 490 379 490 379 430 c 2,30,-1
 379 389 l 1,31,-1
 314 389 l 2,32,33
 247 389 247 389 209 380 c 128,-1,34
 171 371 171 371 148 351 c 0,35,36
 129 335 129 335 119 309.5 c 128,-1,37
 109 284 109 284 109 249 c 0,38,39
 109 196 109 196 138 153 c 128,-1,40
 167 110 167 110 230 85 c 128,-1,41
 293 60 293 60 395 60 c 0,42,43
 496 60 496 60 559 85 c 128,-1,44
 622 110 622 110 651.5 152.5 c 128,-1,45
 681 195 681 195 681 249 c 0,46,47
 681 284 681 284 671 309.5 c 128,-1,48
 661 335 661 335 642 351 c 0,49,50
 619 371 619 371 581 380 c 128,-1,51
 543 389 543 389 475 389 c 2,52,-1
 411 389 l 1,53,-1
 411 430 l 2,54,55
 411 490 411 490 431 530.5 c 128,-1,56
 451 571 451 571 489 591.5 c 128,-1,57
 527 612 527 612 581 612 c 0,58,59
 647 612 647 612 685.5 582.5 c 128,-1,60
 724 553 724 553 724 496 c 0,61,62
 724 483 724 483 722.5 470.5 c 128,-1,63
 721 458 721 458 718 446 c 1,64,-1
 647 458 l 1,65,66
 649 463 649 463 650 472.5 c 128,-1,67
 651 482 651 482 651 487 c 0,68,69
 651 516 651 516 632 531 c 128,-1,70
 613 546 613 546 575 546 c 0,71,72
 536 546 536 546 510 523.5 c 128,-1,73
 484 501 484 501 482 452 c 1,74,-1
 478 455 l 1,75,-1
 498 455 l 2,76,77
 586 455 586 455 642.5 431.5 c 128,-1,78
 699 408 699 408 726.5 362.5 c 128,-1,79
 754 317 754 317 754 251 c 0,80,81
 754 170 754 170 714.5 111 c 128,-1,82
 675 52 675 52 595.5 20.5 c 128,-1,83
 516 -11 516 -11 394 -11 c 0,0,1
EndSplineSet
EndChar

StartChar: phasinh
Encoding: 3509 3509 50
Width: 812
GlyphClass: 2
Flags: W
AnchorPoint: "Cursive-2" 51 0 entry 0
AnchorPoint: "Anchor-0" 812 -15 basechar 0
LayerCount: 2
Fore
SplineSet
359 -11 m 0,0,1
 257 -11 257 -11 184.5 20.5 c 128,-1,2
 112 52 112 52 74 111 c 128,-1,3
 36 170 36 170 36 250 c 0,4,5
 36 292 36 292 51.5 330.5 c 128,-1,6
 67 369 67 369 99 396 c 0,7,8
 133 425 133 425 188 440 c 128,-1,9
 243 455 243 455 333 455 c 2,10,-1
 369 455 l 1,11,12
 367 502 367 502 341 524 c 128,-1,13
 315 546 315 546 276 546 c 256,14,15
 237 546 237 546 218.5 531 c 128,-1,16
 200 516 200 516 200 487 c 0,17,18
 200 482 200 482 200.5 477 c 128,-1,19
 201 472 201 472 202 466 c 1,20,-1
 131 455 l 1,21,22
 130 463 130 463 128.5 473 c 128,-1,23
 127 483 127 483 127 496 c 0,24,25
 127 553 127 553 165.5 582.5 c 128,-1,26
 204 612 204 612 271 612 c 0,27,28
 325 612 325 612 363 591.5 c 128,-1,29
 401 571 401 571 420.5 530.5 c 128,-1,30
 440 490 440 490 440 430 c 2,31,-1
 440 389 l 1,32,-1
 330 389 l 2,33,34
 282 389 282 389 248 384 c 128,-1,35
 214 379 214 379 191 370 c 128,-1,36
 168 361 168 361 151 347 c 0,37,38
 128 328 128 328 118.5 302.5 c 128,-1,39
 109 277 109 277 109 246 c 0,40,41
 109 188 109 188 139 146 c 128,-1,42
 169 104 169 104 225 82 c 128,-1,43
 281 60 281 60 359 60 c 0,44,45
 458 60 458 60 524.5 90.5 c 128,-1,46
 591 121 591 121 629.5 171.5 c 128,-1,47
 668 222 668 222 684.5 282.5 c 128,-1,48
 701 343 701 343 701 404 c 0,49,50
 701 489 701 489 672 555 c 128,-1,51
 643 621 643 621 587.5 670.5 c 128,-1,52
 532 720 532 720 451 755 c 0,53,54
 438 761 438 761 424 766 c 128,-1,55
 410 771 410 771 396 776 c 1,56,-1
 420 836 l 1,57,58
 494 813 494 813 552 779.5 c 128,-1,59
 610 746 610 746 652 704 c 128,-1,60
 694 662 694 662 721.5 613.5 c 128,-1,61
 749 565 749 565 762.5 511 c 128,-1,62
 776 457 776 457 776 399 c 0,63,64
 776 315 776 315 752 241 c 128,-1,65
 728 167 728 167 677.5 110.5 c 128,-1,66
 627 54 627 54 548 21.5 c 128,-1,67
 469 -11 469 -11 359 -11 c 0,0,1
544 523 m 0,68,69
 506 523 506 523 479.5 538.5 c 128,-1,70
 453 554 453 554 439.5 585.5 c 128,-1,71
 426 617 426 617 426 664 c 0,72,73
 426 706 426 706 424 727 c 128,-1,74
 422 748 422 748 416 758 c 128,-1,75
 410 768 410 768 398 775 c 1,76,-1
 429 800 l 1,77,78
 454 784 454 784 468 765.5 c 128,-1,79
 482 747 482 747 488 722.5 c 128,-1,80
 494 698 494 698 495 662 c 0,81,82
 497 626 497 626 507.5 607.5 c 128,-1,83
 518 589 518 589 549 589 c 0,84,85
 578 589 578 589 598 605.5 c 128,-1,86
 618 622 618 622 634 661 c 1,87,-1
 676 611 l 1,88,89
 663 580 663 580 629 551.5 c 128,-1,90
 595 523 595 523 544 523 c 0,68,69
EndSplineSet
EndChar

StartChar: basinh
Encoding: 3510 3510 51
Width: 867
GlyphClass: 2
Flags: W
AnchorPoint: "Cursive-2" 51 0 entry 0
AnchorPoint: "Anchor-0" 867 -15 basechar 0
LayerCount: 2
Fore
SplineSet
566 -11 m 0,0,1
 530 -11 530 -11 504 -0.5 c 128,-1,2
 478 10 478 10 462 28.5 c 128,-1,3
 446 47 446 47 438.5 70 c 128,-1,4
 431 93 431 93 431 117 c 0,5,6
 431 149 431 149 439.5 175 c 128,-1,7
 448 201 448 201 462 234 c 0,8,9
 474 262 474 262 482.5 289 c 128,-1,10
 491 316 491 316 491 349 c 0,11,12
 491 393 491 393 472 423.5 c 128,-1,13
 453 454 453 454 417.5 470 c 128,-1,14
 382 486 382 486 332 486 c 0,15,16
 265 486 265 486 215 457 c 128,-1,17
 165 428 165 428 137 374.5 c 128,-1,18
 109 321 109 321 109 247 c 0,19,20
 109 215 109 215 114 185 c 128,-1,21
 119 155 119 155 132 129 c 0,22,23
 148 96 148 96 176 76.5 c 128,-1,24
 204 57 204 57 249 57 c 0,25,26
 277 57 277 57 293 64 c 128,-1,27
 309 71 309 71 316 83.5 c 128,-1,28
 323 96 323 96 323 113 c 0,29,30
 323 135 323 135 308 151 c 128,-1,31
 293 167 293 167 261 167 c 0,32,33
 230 167 230 167 202.5 150.5 c 128,-1,34
 175 134 175 134 147 99 c 1,35,-1
 114 152 l 1,36,37
 141 185 141 185 179.5 209.5 c 128,-1,38
 218 234 218 234 267 234 c 0,39,40
 311 234 311 234 339 217 c 128,-1,41
 367 200 367 200 381 173 c 128,-1,42
 395 146 395 146 395 116 c 0,43,44
 395 58 395 58 359.5 23.5 c 128,-1,45
 324 -11 324 -11 250 -11 c 0,46,47
 200 -11 200 -11 160 9 c 128,-1,48
 120 29 120 29 92.5 64.5 c 128,-1,49
 65 100 65 100 50.5 146.5 c 128,-1,50
 36 193 36 193 36 246 c 0,51,52
 36 315 36 315 57 372 c 128,-1,53
 78 429 78 429 117.5 470 c 128,-1,54
 157 511 157 511 212.5 533 c 128,-1,55
 268 555 268 555 336 555 c 0,56,57
 412 555 412 555 462.5 529 c 128,-1,58
 513 503 513 503 539 458.5 c 128,-1,59
 565 414 565 414 565 359 c 0,60,61
 565 318 565 318 554.5 284.5 c 128,-1,62
 544 251 544 251 528 213 c 0,63,64
 516 185 516 185 509 164 c 128,-1,65
 502 143 502 143 502 122 c 0,66,67
 502 90 502 90 520 74 c 128,-1,68
 538 58 538 58 569 58 c 0,69,70
 607 58 607 58 640 79.5 c 128,-1,71
 673 101 673 101 699 142 c 128,-1,72
 725 183 725 183 739.5 242.5 c 128,-1,73
 754 302 754 302 754 379 c 0,74,75
 754 466 754 466 731.5 537 c 128,-1,76
 709 608 709 608 664 659 c 128,-1,77
 619 710 619 710 552 738 c 128,-1,78
 485 766 485 766 396 766 c 0,79,80
 311 766 311 766 233 747 c 128,-1,81
 155 728 155 728 81 686 c 1,82,-1
 47 751 l 1,83,84
 98 778 98 778 153 797 c 128,-1,85
 208 816 208 816 269 826 c 128,-1,86
 330 836 330 836 398 836 c 0,87,88
 504 836 504 836 584.5 803.5 c 128,-1,89
 665 771 665 771 719.5 711 c 128,-1,90
 774 651 774 651 801.5 567 c 128,-1,91
 829 483 829 483 829 381 c 0,92,93
 829 296 829 296 811.5 224 c 128,-1,94
 794 152 794 152 760 99.5 c 128,-1,95
 726 47 726 47 677.5 18 c 128,-1,96
 629 -11 629 -11 566 -11 c 0,0,1
EndSplineSet
EndChar

StartChar: bhasinh
Encoding: 3511 3511 52
Width: 966
GlyphClass: 2
Flags: W
AnchorPoint: "Cursive-2" 45 0 entry 0
AnchorPoint: "Anchor-0" 966 -15 basechar 0
LayerCount: 2
Fore
SplineSet
646 -3 m 0,0,1
 631 -3 631 -3 618 -2 c 128,-1,2
 605 -1 605 -1 592 0 c 1,3,-1
 595 68 l 1,4,5
 603 67 603 67 613.5 66.5 c 128,-1,6
 624 66 624 66 637 66 c 0,7,8
 712 66 712 66 760 96 c 128,-1,9
 808 126 808 126 830.5 180.5 c 128,-1,10
 853 235 853 235 853 309 c 0,11,12
 853 376 853 376 832 428 c 128,-1,13
 811 480 811 480 770.5 510.5 c 128,-1,14
 730 541 730 541 669 541 c 0,15,16
 627 541 627 541 588.5 523.5 c 128,-1,17
 550 506 550 506 518 463 c 128,-1,18
 486 420 486 420 465 341 c 1,19,-1
 455 342 l 1,20,21
 467 350 467 350 483 354 c 128,-1,22
 499 358 499 358 515 358 c 0,23,24
 550 358 550 358 576 342.5 c 128,-1,25
 602 327 602 327 616 296.5 c 128,-1,26
 630 266 630 266 630 222 c 0,27,28
 630 180 630 180 615 139 c 128,-1,29
 600 98 600 98 566 64 c 128,-1,30
 532 30 532 30 476 9.5 c 128,-1,31
 420 -11 420 -11 337 -11 c 0,32,33
 247 -11 247 -11 182.5 19 c 128,-1,34
 118 49 118 49 83.5 103 c 128,-1,35
 49 157 49 157 49 227 c 0,36,37
 49 274 49 274 65 309.5 c 128,-1,38
 81 345 81 345 109.5 369.5 c 128,-1,39
 138 394 138 394 175 407 c 1,40,-1
 185 397 l 1,41,42
 160 393 160 393 130 391 c 128,-1,43
 100 389 100 389 59 389 c 2,44,-1
 30 389 l 1,45,-1
 30 455 l 1,46,-1
 321 455 l 1,47,48
 318 502 318 502 292 524 c 128,-1,49
 266 546 266 546 228 546 c 256,50,51
 190 546 190 546 170.5 531.5 c 128,-1,52
 151 517 151 517 151 491 c 0,53,54
 151 488 151 488 151 484.5 c 128,-1,55
 151 481 151 481 152 478 c 1,56,-1
 80 474 l 1,57,58
 79 479 79 479 78.5 485.5 c 128,-1,59
 78 492 78 492 78 496 c 0,60,61
 78 553 78 553 116.5 582.5 c 128,-1,62
 155 612 155 612 222 612 c 0,63,64
 276 612 276 612 314 591.5 c 128,-1,65
 352 571 352 571 371.5 530.5 c 128,-1,66
 391 490 391 490 391 430 c 2,67,-1
 391 389 l 1,68,-1
 370 389 l 2,69,70
 312 389 312 389 278.5 386 c 128,-1,71
 245 383 245 383 225 376 c 128,-1,72
 205 369 205 369 186 358 c 0,73,74
 155 339 155 339 138.5 308.5 c 128,-1,75
 122 278 122 278 122 234 c 0,76,77
 122 182 122 182 147.5 142.5 c 128,-1,78
 173 103 173 103 221.5 81.5 c 128,-1,79
 270 60 270 60 338 60 c 0,80,81
 444 60 444 60 500.5 104.5 c 128,-1,82
 557 149 557 149 557 229 c 0,83,84
 557 263 557 263 544 277.5 c 128,-1,85
 531 292 531 292 510 292 c 0,86,87
 492 292 492 292 481.5 287.5 c 128,-1,88
 471 283 471 283 459 274 c 1,89,-1
 388 296 l 1,90,91
 403 394 403 394 434.5 455.5 c 128,-1,92
 466 517 466 517 507 551.5 c 128,-1,93
 548 586 548 586 591 599 c 128,-1,94
 634 612 634 612 673 612 c 0,95,96
 759 612 759 612 815.5 572.5 c 128,-1,97
 872 533 872 533 900 464.5 c 128,-1,98
 928 396 928 396 928 309 c 0,99,100
 928 207 928 207 892 137.5 c 128,-1,101
 856 68 856 68 792.5 32.5 c 128,-1,102
 729 -3 729 -3 646 -3 c 0,0,1
EndSplineSet
EndChar

StartChar: masinh
Encoding: 3512 3512 53
Width: 850
GlyphClass: 2
Flags: W
AnchorPoint: "Cursive-2" 52 0 entry 0
AnchorPoint: "Anchor-0" 850 -15 basechar 0
LayerCount: 2
Fore
SplineSet
400 -11 m 0,0,1
 281 -11 281 -11 200.5 32.5 c 128,-1,2
 120 76 120 76 79.5 152.5 c 128,-1,3
 39 229 39 229 39 329 c 0,4,5
 39 409 39 409 62.5 464 c 128,-1,6
 86 519 86 519 126.5 547.5 c 128,-1,7
 167 576 167 576 218 576 c 0,8,9
 252 576 252 576 270.5 563 c 128,-1,10
 289 550 289 550 296.5 532 c 128,-1,11
 304 514 304 514 304 498 c 0,12,13
 304 470 304 470 298.5 445 c 128,-1,14
 293 420 293 420 293 385 c 0,15,16
 293 346 293 346 318.5 320 c 128,-1,17
 344 294 344 294 406 294 c 0,18,19
 445 294 445 294 474.5 306.5 c 128,-1,20
 504 319 504 319 520.5 345.5 c 128,-1,21
 537 372 537 372 537 414 c 0,22,23
 537 460 537 460 516 486 c 128,-1,24
 495 512 495 512 459 512 c 0,25,26
 431 512 431 512 415.5 500 c 128,-1,27
 400 488 400 488 400 464 c 0,28,29
 400 442 400 442 415 429 c 128,-1,30
 430 416 430 416 456 416 c 0,31,32
 488 416 488 416 511 425 c 128,-1,33
 534 434 534 434 561 455 c 1,34,-1
 574 410 l 1,35,36
 550 388 550 388 521.5 371 c 128,-1,37
 493 354 493 354 445 354 c 0,38,39
 390 354 390 354 360 384.5 c 128,-1,40
 330 415 330 415 330 464 c 0,41,42
 330 493 330 493 343.5 518.5 c 128,-1,43
 357 544 357 544 386 560 c 128,-1,44
 415 576 415 576 461 576 c 0,45,46
 496 576 496 576 529 560.5 c 128,-1,47
 562 545 562 545 583.5 509.5 c 128,-1,48
 605 474 605 474 605 413 c 0,49,50
 605 357 605 357 580.5 315.5 c 128,-1,51
 556 274 556 274 512 251.5 c 128,-1,52
 468 229 468 229 407 229 c 0,53,54
 339 229 339 229 298.5 250.5 c 128,-1,55
 258 272 258 272 240.5 307 c 128,-1,56
 223 342 223 342 223 382 c 0,57,58
 223 411 223 411 227.5 433.5 c 128,-1,59
 232 456 232 456 232 475 c 0,60,61
 232 489 232 489 227 499.5 c 128,-1,62
 222 510 222 510 204 510 c 0,63,64
 178 510 178 510 156.5 489 c 128,-1,65
 135 468 135 468 123 429 c 128,-1,66
 111 390 111 390 111 335 c 0,67,68
 111 246 111 246 145 184.5 c 128,-1,69
 179 123 179 123 244.5 91.5 c 128,-1,70
 310 60 310 60 402 60 c 0,71,72
 498 60 498 60 562.5 88 c 128,-1,73
 627 116 627 116 666 165 c 128,-1,74
 705 214 705 214 722 277 c 128,-1,75
 739 340 739 340 739 409 c 0,76,77
 739 513 739 513 708.5 582.5 c 128,-1,78
 678 652 678 652 627 692 c 128,-1,79
 576 732 576 732 515 749 c 128,-1,80
 454 766 454 766 394 766 c 0,81,82
 326 766 326 766 273 756 c 128,-1,83
 220 746 220 746 174.5 727.5 c 128,-1,84
 129 709 129 709 83 683 c 1,85,-1
 52 749 l 1,86,87
 99 775 99 775 152 794.5 c 128,-1,88
 205 814 205 814 265.5 825 c 128,-1,89
 326 836 326 836 394 836 c 0,90,91
 478 836 478 836 553.5 812 c 128,-1,92
 629 788 629 788 687.5 736.5 c 128,-1,93
 746 685 746 685 780 603.5 c 128,-1,94
 814 522 814 522 814 407 c 0,95,96
 814 319 814 319 790.5 243 c 128,-1,97
 767 167 767 167 717.5 110 c 128,-1,98
 668 53 668 53 589.5 21 c 128,-1,99
 511 -11 511 -11 400 -11 c 0,0,1
EndSplineSet
EndChar

StartChar: mbasinh
Encoding: 3513 3513 54
Width: 884
GlyphClass: 2
Flags: W
AnchorPoint: "Cursive-2" 55 0 entry 0
AnchorPoint: "Anchor-0" 884 -15 basechar 0
LayerCount: 2
Fore
SplineSet
300 -11 m 0,0,1
 223 -11 223 -11 164.5 25 c 128,-1,2
 106 61 106 61 73.5 130 c 128,-1,3
 41 199 41 199 41 299 c 0,4,5
 41 393 41 393 67.5 454 c 128,-1,6
 94 515 94 515 136.5 545.5 c 128,-1,7
 179 576 179 576 228 576 c 0,8,9
 262 576 262 576 280.5 563 c 128,-1,10
 299 550 299 550 306.5 532 c 128,-1,11
 314 514 314 514 314 498 c 0,12,13
 314 470 314 470 308.5 445 c 128,-1,14
 303 420 303 420 303 385 c 0,15,16
 303 345 303 345 328.5 319.5 c 128,-1,17
 354 294 354 294 417 294 c 0,18,19
 456 294 456 294 485 306.5 c 128,-1,20
 514 319 514 319 530.5 345.5 c 128,-1,21
 547 372 547 372 547 414 c 0,22,23
 547 460 547 460 526 486 c 128,-1,24
 505 512 505 512 469 512 c 0,25,26
 441 512 441 512 425.5 500 c 128,-1,27
 410 488 410 488 410 464 c 0,28,29
 410 442 410 442 425 429 c 128,-1,30
 440 416 440 416 466 416 c 0,31,32
 498 416 498 416 521 425 c 128,-1,33
 544 434 544 434 571 455 c 1,34,-1
 584 410 l 1,35,36
 560 388 560 388 531.5 371 c 128,-1,37
 503 354 503 354 455 354 c 0,38,39
 400 354 400 354 370 384.5 c 128,-1,40
 340 415 340 415 340 464 c 0,41,42
 340 493 340 493 353.5 518.5 c 128,-1,43
 367 544 367 544 396 560 c 128,-1,44
 425 576 425 576 471 576 c 0,45,46
 506 576 506 576 539 560.5 c 128,-1,47
 572 545 572 545 593.5 509.5 c 128,-1,48
 615 474 615 474 615 413 c 0,49,50
 615 357 615 357 591 315.5 c 128,-1,51
 567 274 567 274 522.5 251.5 c 128,-1,52
 478 229 478 229 417 229 c 0,53,54
 366 229 366 229 331 241.5 c 128,-1,55
 296 254 296 254 274.5 275.5 c 128,-1,56
 253 297 253 297 243.5 324.5 c 128,-1,57
 234 352 234 352 234 382 c 0,58,59
 234 411 234 411 238.5 433.5 c 128,-1,60
 243 456 243 456 243 475 c 0,61,62
 243 489 243 489 237.5 499.5 c 128,-1,63
 232 510 232 510 214 510 c 0,64,65
 192 510 192 510 169 487 c 128,-1,66
 146 464 146 464 130 418 c 128,-1,67
 114 372 114 372 114 303 c 0,68,69
 114 226 114 226 136 171 c 128,-1,70
 158 116 158 116 198.5 86.5 c 128,-1,71
 239 57 239 57 296 57 c 0,72,73
 307 57 307 57 317.5 58 c 128,-1,74
 328 59 328 59 341 61 c 1,75,-1
 380 1 l 1,76,77
 361 -5 361 -5 342 -8 c 128,-1,78
 323 -11 323 -11 300 -11 c 0,0,1
566 -10 m 0,79,80
 532 -10 532 -10 506.5 -7.5 c 128,-1,81
 481 -5 481 -5 462 1 c 1,82,-1
 501 61 l 1,83,84
 512 59 512 59 526.5 58 c 128,-1,85
 541 57 541 57 564 57 c 0,86,87
 618 57 618 57 656.5 80.5 c 128,-1,88
 695 104 695 104 720 146.5 c 128,-1,89
 745 189 745 189 756.5 246 c 128,-1,90
 768 303 768 303 768 369 c 0,91,92
 768 489 768 489 737 566.5 c 128,-1,93
 706 644 706 644 655.5 687.5 c 128,-1,94
 605 731 605 731 544.5 748.5 c 128,-1,95
 484 766 484 766 424 766 c 0,96,97
 350 766 350 766 294 756 c 128,-1,98
 238 746 238 746 191 727 c 128,-1,99
 144 708 144 708 97 682 c 1,100,-1
 65 748 l 1,101,102
 113 774 113 774 167 793.5 c 128,-1,103
 221 813 221 813 284 824.5 c 128,-1,104
 347 836 347 836 422 836 c 0,105,106
 503 836 503 836 578.5 812.5 c 128,-1,107
 654 789 654 789 713.5 734.5 c 128,-1,108
 773 680 773 680 808 590 c 128,-1,109
 843 500 843 500 843 366 c 0,110,111
 843 288 843 288 827 220 c 128,-1,112
 811 152 811 152 777.5 100.5 c 128,-1,113
 744 49 744 49 691.5 19.5 c 128,-1,114
 639 -10 639 -10 566 -10 c 0,79,80
421 166 m 0,115,116
 380 166 380 166 361.5 152 c 128,-1,117
 343 138 343 138 343 115 c 0,118,119
 343 94 343 94 355.5 83 c 128,-1,120
 368 72 368 72 387 67 c 1,121,-1
 380 1 l 1,122,-1
 343 36 l 1,123,124
 309 49 309 49 290.5 73 c 128,-1,125
 272 97 272 97 272 128 c 0,126,127
 272 160 272 160 289 182 c 128,-1,128
 306 204 306 204 338 215 c 128,-1,129
 370 226 370 226 415 226 c 2,130,-1
 428 226 l 2,131,132
 462 226 462 226 488 219.5 c 128,-1,133
 514 213 514 213 532 200.5 c 128,-1,134
 550 188 550 188 559.5 170 c 128,-1,135
 569 152 569 152 569 128 c 0,136,137
 569 97 569 97 551 73 c 128,-1,138
 533 49 533 49 499 36 c 1,139,-1
 462 1 l 1,140,-1
 455 67 l 1,141,142
 474 72 474 72 486.5 83 c 128,-1,143
 499 94 499 94 499 115 c 0,144,145
 499 138 499 138 481 152 c 128,-1,146
 463 166 463 166 421 166 c 0,115,116
EndSplineSet
EndChar

StartChar: yasinh
Encoding: 3514 3514 55
Width: 812
GlyphClass: 2
Flags: W
AnchorPoint: "Cursive-2" 51 0 entry 0
AnchorPoint: "Anchor-0" 812 -15 basechar 0
LayerCount: 2
Fore
SplineSet
576 -11 m 0,0,1
 531 -11 531 -11 499 1 c 128,-1,2
 467 13 467 13 444.5 33 c 128,-1,3
 422 53 422 53 405 77 c 1,4,5
 385 50 385 50 363 30 c 128,-1,6
 341 10 341 10 311 -0.5 c 128,-1,7
 281 -11 281 -11 236 -11 c 0,8,9
 180 -11 180 -11 134.5 14.5 c 128,-1,10
 89 40 89 40 62.5 92.5 c 128,-1,11
 36 145 36 145 36 226 c 0,12,13
 36 296 36 296 67.5 355 c 128,-1,14
 99 414 99 414 161.5 450 c 128,-1,15
 224 486 224 486 317 486 c 0,16,17
 330 486 330 486 342.5 485.5 c 128,-1,18
 355 485 355 485 365 483 c 1,19,-1
 359 416 l 1,20,21
 352 417 352 417 343.5 417.5 c 128,-1,22
 335 418 335 418 321 418 c 0,23,24
 255 418 255 418 207.5 394.5 c 128,-1,25
 160 371 160 371 134.5 326.5 c 128,-1,26
 109 282 109 282 109 220 c 0,27,28
 109 144 109 144 143.5 102 c 128,-1,29
 178 60 178 60 243 60 c 0,30,31
 279 60 279 60 303.5 70.5 c 128,-1,32
 328 81 328 81 343 100.5 c 128,-1,33
 358 120 358 120 364.5 147.5 c 128,-1,34
 371 175 371 175 371 208 c 2,35,-1
 371 214 l 1,36,-1
 438 214 l 1,37,-1
 438 208 l 2,38,39
 438 176 438 176 444.5 149 c 128,-1,40
 451 122 451 122 466 102 c 128,-1,41
 481 82 481 82 507 71 c 128,-1,42
 533 60 533 60 572 60 c 0,43,44
 634 60 634 60 668 99 c 128,-1,45
 702 138 702 138 702 218 c 0,46,47
 702 264 702 264 689.5 296.5 c 128,-1,48
 677 329 677 329 648 349 c 0,49,50
 619 370 619 370 573.5 379.5 c 128,-1,51
 528 389 528 389 460 389 c 2,52,-1
 418 389 l 1,53,-1
 418 430 l 2,54,55
 418 490 418 490 438 530.5 c 128,-1,56
 458 571 458 571 495.5 591.5 c 128,-1,57
 533 612 533 612 587 612 c 0,58,59
 654 612 654 612 692.5 582.5 c 128,-1,60
 731 553 731 553 731 496 c 0,61,62
 731 483 731 483 729 470.5 c 128,-1,63
 727 458 727 458 724 446 c 1,64,-1
 654 458 l 1,65,66
 656 463 656 463 657 472.5 c 128,-1,67
 658 482 658 482 658 487 c 0,68,69
 658 516 658 516 639 531 c 128,-1,70
 620 546 620 546 582 546 c 0,71,72
 543 546 543 546 517 523.5 c 128,-1,73
 491 501 491 501 489 452 c 1,74,-1
 473 455 l 1,75,-1
 488 455 l 2,76,77
 543 455 543 455 594.5 444.5 c 128,-1,78
 646 434 646 434 686.5 407.5 c 128,-1,79
 727 381 727 381 751 335 c 128,-1,80
 775 289 775 289 775 217 c 0,81,82
 775 140 775 140 748.5 89.5 c 128,-1,83
 722 39 722 39 677 14 c 128,-1,84
 632 -11 632 -11 576 -11 c 0,0,1
EndSplineSet
EndChar

StartChar: rasinh
Encoding: 3515 3515 56
Width: 702
GlyphClass: 2
Flags: W
AnchorPoint: "Cursive-2" 51 0 entry 0
AnchorPoint: "Anchor-0" 702 -15 basechar 0
LayerCount: 2
Fore
SplineSet
342 -11 m 0,0,1
 246 -11 246 -11 177.5 23 c 128,-1,2
 109 57 109 57 72.5 121.5 c 128,-1,3
 36 186 36 186 36 277 c 0,4,5
 36 339 36 339 54 386 c 128,-1,6
 72 433 72 433 106.5 469 c 128,-1,7
 141 505 141 505 190.5 533 c 128,-1,8
 240 561 240 561 302 586 c 1,9,10
 378 628 378 628 462.5 683 c 128,-1,11
 547 738 547 738 629 805 c 1,12,-1
 677 749 l 1,13,14
 626 705 626 705 570 667 c 128,-1,15
 514 629 514 629 460.5 599 c 128,-1,16
 407 569 407 569 362 550 c 1,17,-1
 320 521 l 1,18,19
 235 493 235 493 189 455 c 128,-1,20
 143 417 143 417 126 372.5 c 128,-1,21
 109 328 109 328 109 279 c 0,22,23
 109 215 109 215 133.5 165.5 c 128,-1,24
 158 116 158 116 210 88 c 128,-1,25
 262 60 262 60 343 60 c 0,26,27
 430 60 430 60 485 89 c 128,-1,28
 540 118 540 118 566.5 168 c 128,-1,29
 593 218 593 218 593 281 c 0,30,31
 593 352 593 352 563 402.5 c 128,-1,32
 533 453 533 453 478.5 479.5 c 128,-1,33
 424 506 424 506 349 506 c 0,34,35
 329 506 329 506 305.5 503.5 c 128,-1,36
 282 501 282 501 258.5 496.5 c 128,-1,37
 235 492 235 492 214 485 c 1,38,-1
 289 555 l 1,39,40
 306 562 306 562 326 564 c 128,-1,41
 346 566 346 566 373 566 c 0,42,43
 458 566 458 566 524 534 c 128,-1,44
 590 502 590 502 628 439 c 128,-1,45
 666 376 666 376 666 283 c 256,46,47
 666 190 666 190 626.5 124 c 128,-1,48
 587 58 587 58 514.5 23.5 c 128,-1,49
 442 -11 442 -11 342 -11 c 0,0,1
EndSplineSet
EndChar

StartChar: lasinh
Encoding: 3517 3517 57
Width: 852
GlyphClass: 2
Flags: W
AnchorPoint: "Cursive-2" 51 0 entry 0
LayerCount: 2
Fore
SplineSet
446 -204 m 0,0,1
 304 -204 304 -204 213.5 -154 c 128,-1,2
 123 -104 123 -104 79.5 -15.5 c 128,-1,3
 36 73 36 73 36 189 c 0,4,5
 36 287 36 287 66.5 365 c 128,-1,6
 97 443 97 443 155 498 c 128,-1,7
 213 553 213 553 295 582.5 c 128,-1,8
 377 612 377 612 480 612 c 0,9,10
 570 612 570 612 633 594 c 128,-1,11
 696 576 696 576 735 544.5 c 128,-1,12
 774 513 774 513 791.5 470.5 c 128,-1,13
 809 428 809 428 809 379 c 0,14,15
 809 326 809 326 785.5 284 c 128,-1,16
 762 242 762 242 714.5 218.5 c 128,-1,17
 667 195 667 195 596 195 c 0,18,19
 531 195 531 195 493 213 c 128,-1,20
 455 231 455 231 439 262.5 c 128,-1,21
 423 294 423 294 423 333 c 0,22,23
 423 349 423 349 428 365.5 c 128,-1,24
 433 382 433 382 440 396 c 1,25,-1
 483 374 l 1,26,-1
 441 367 l 1,27,-1
 276 367 l 1,28,-1
 276 434 l 1,29,-1
 649 434 l 1,30,-1
 649 367 l 1,31,-1
 468 367 l 1,32,-1
 529 398 l 1,33,34
 513 383 513 383 504.5 367.5 c 128,-1,35
 496 352 496 352 496 334 c 256,36,37
 496 316 496 316 504.5 300 c 128,-1,38
 513 284 513 284 534.5 274 c 128,-1,39
 556 264 556 264 595 264 c 0,40,41
 663 264 663 264 698.5 294 c 128,-1,42
 734 324 734 324 734 378 c 0,43,44
 734 426 734 426 711.5 463.5 c 128,-1,45
 689 501 689 501 634 522.5 c 128,-1,46
 579 544 579 544 483 544 c 0,47,48
 359 544 359 544 276 499.5 c 128,-1,49
 193 455 193 455 152 375 c 128,-1,50
 111 295 111 295 111 187 c 0,51,52
 111 83 111 83 151.5 11.5 c 128,-1,53
 192 -60 192 -60 267 -96 c 128,-1,54
 342 -132 342 -132 444 -132 c 0,55,56
 527 -132 527 -132 595.5 -105.5 c 128,-1,57
 664 -79 664 -79 704.5 -22.5 c 128,-1,58
 745 34 745 34 745 124 c 0,59,60
 745 129 745 129 745 141 c 128,-1,61
 745 153 745 153 743 162 c 1,62,-1
 815 166 l 1,63,64
 817 155 817 155 817.5 144.5 c 128,-1,65
 818 134 818 134 818 123 c 0,66,67
 818 38 818 38 788 -23.5 c 128,-1,68
 758 -85 758 -85 705.5 -125 c 128,-1,69
 653 -165 653 -165 586.5 -184.5 c 128,-1,70
 520 -204 520 -204 446 -204 c 0,0,1
EndSplineSet
EndChar

StartChar: vasinh
Encoding: 3520 3520 58
Width: 812
GlyphClass: 2
Flags: W
AnchorPoint: "Cursive-2" 51 0 entry 0
AnchorPoint: "Anchor-0" 812 -15 basechar 0
LayerCount: 2
Fore
SplineSet
358 -11 m 0,0,1
 257 -11 257 -11 184.5 20.5 c 128,-1,2
 112 52 112 52 74 110.5 c 128,-1,3
 36 169 36 169 36 248 c 0,4,5
 36 292 36 292 51.5 330.5 c 128,-1,6
 67 369 67 369 99 396 c 0,7,8
 133 425 133 425 189 440 c 128,-1,9
 245 455 245 455 333 455 c 2,10,-1
 389 455 l 1,11,12
 387 502 387 502 361 524 c 128,-1,13
 335 546 335 546 296 546 c 0,14,15
 259 546 259 546 239.5 531 c 128,-1,16
 220 516 220 516 220 487 c 0,17,18
 220 482 220 482 220.5 476.5 c 128,-1,19
 221 471 221 471 222 466 c 1,20,-1
 151 455 l 1,21,22
 150 463 150 463 148.5 473 c 128,-1,23
 147 483 147 483 147 496 c 0,24,25
 147 553 147 553 185.5 582.5 c 128,-1,26
 224 612 224 612 291 612 c 0,27,28
 345 612 345 612 383 591.5 c 128,-1,29
 421 571 421 571 440.5 530.5 c 128,-1,30
 460 490 460 490 460 430 c 2,31,-1
 460 389 l 1,32,-1
 330 389 l 2,33,34
 282 389 282 389 248 384 c 128,-1,35
 214 379 214 379 191 370 c 128,-1,36
 168 361 168 361 151 347 c 0,37,38
 128 328 128 328 118.5 302.5 c 128,-1,39
 109 277 109 277 109 246 c 0,40,41
 109 188 109 188 139 146 c 128,-1,42
 169 104 169 104 224.5 82 c 128,-1,43
 280 60 280 60 358 60 c 0,44,45
 457 60 457 60 523.5 91.5 c 128,-1,46
 590 123 590 123 629 175.5 c 128,-1,47
 668 228 668 228 684.5 291 c 128,-1,48
 701 354 701 354 701 418 c 0,49,50
 701 519 701 519 671 586 c 128,-1,51
 641 653 641 653 592 692.5 c 128,-1,52
 543 732 543 732 485 749 c 128,-1,53
 427 766 427 766 371 766 c 0,54,55
 281 766 281 766 210.5 744 c 128,-1,56
 140 722 140 722 78 686 c 1,57,-1
 45 751 l 1,58,59
 113 789 113 789 195 812.5 c 128,-1,60
 277 836 277 836 372 836 c 0,61,62
 451 836 451 836 523.5 812.5 c 128,-1,63
 596 789 596 789 653 739 c 128,-1,64
 710 689 710 689 743 609.5 c 128,-1,65
 776 530 776 530 776 418 c 0,66,67
 776 330 776 330 752 252.5 c 128,-1,68
 728 175 728 175 678 115.5 c 128,-1,69
 628 56 628 56 548.5 22.5 c 128,-1,70
 469 -11 469 -11 358 -11 c 0,0,1
EndSplineSet
EndChar

StartChar: shasinh
Encoding: 3521 3521 59
Width: 917
GlyphClass: 2
Flags: W
AnchorPoint: "Cursive-2" 53 0 entry 0
AnchorPoint: "Anchor-0" 917 -15 basechar 0
LayerCount: 2
Fore
SplineSet
317 -11 m 0,0,1
 227 -11 227 -11 164.5 26 c 128,-1,2
 102 63 102 63 70 132 c 128,-1,3
 38 201 38 201 38 296 c 0,4,5
 38 398 38 398 76 468.5 c 128,-1,6
 114 539 114 539 180.5 575.5 c 128,-1,7
 247 612 247 612 334 612 c 0,8,9
 342 612 342 612 357.5 611.5 c 128,-1,10
 373 611 373 611 384 609 c 1,11,-1
 380 541 l 1,12,13
 370 542 370 542 359 542.5 c 128,-1,14
 348 543 348 543 337 543 c 0,15,16
 220 543 220 543 166.5 477 c 128,-1,17
 113 411 113 411 113 291 c 0,18,19
 113 224 113 224 135 171.5 c 128,-1,20
 157 119 157 119 202 89.5 c 128,-1,21
 247 60 247 60 317 60 c 0,22,23
 377 60 377 60 417.5 81 c 128,-1,24
 458 102 458 102 478.5 139 c 128,-1,25
 499 176 499 176 499 224 c 0,26,27
 499 262 499 262 485.5 277 c 128,-1,28
 472 292 472 292 450 292 c 0,29,30
 437 292 437 292 425 288 c 128,-1,31
 413 284 413 284 401 274 c 1,32,-1
 330 296 l 1,33,34
 346 394 346 394 378 456 c 128,-1,35
 410 518 410 518 451 552 c 128,-1,36
 492 586 492 586 537.5 599 c 128,-1,37
 583 612 583 612 626 612 c 0,38,39
 711 612 711 612 767 573.5 c 128,-1,40
 823 535 823 535 851 469 c 128,-1,41
 879 403 879 403 879 319 c 0,42,43
 879 244 879 244 855 187.5 c 128,-1,44
 831 131 831 131 791.5 91.5 c 128,-1,45
 752 52 752 52 705.5 27.5 c 128,-1,46
 659 3 659 3 615 -10 c 1,47,-1
 590 52 l 1,48,-1
 632 67 l 2,49,50
 672 85 672 85 704 107 c 128,-1,51
 736 129 736 129 758 158.5 c 128,-1,52
 780 188 780 188 792 228 c 128,-1,53
 804 268 804 268 804 321 c 0,54,55
 804 393 804 393 780 442 c 128,-1,56
 756 491 756 491 714.5 516 c 128,-1,57
 673 541 673 541 619 541 c 0,58,59
 577 541 577 541 537.5 526 c 128,-1,60
 498 511 498 511 464.5 468 c 128,-1,61
 431 425 431 425 407 341 c 1,62,-1
 397 342 l 1,63,64
 408 350 408 350 425 354 c 128,-1,65
 442 358 442 358 456 358 c 0,66,67
 492 358 492 358 518 342.5 c 128,-1,68
 544 327 544 327 558 297 c 128,-1,69
 572 267 572 267 572 223 c 0,70,71
 572 156 572 156 542 103 c 128,-1,72
 512 50 512 50 455 19.5 c 128,-1,73
 398 -11 398 -11 317 -11 c 0,0,1
590 52 m 1,74,75
 604 57 604 57 608 66 c 128,-1,76
 612 75 612 75 612 87 c 0,77,78
 612 109 612 109 608 128.5 c 128,-1,79
 604 148 604 148 600 168.5 c 128,-1,80
 596 189 596 189 596 212 c 0,81,82
 596 258 596 258 614.5 285 c 128,-1,83
 633 312 633 312 661.5 323.5 c 128,-1,84
 690 335 690 335 719 335 c 0,85,86
 766 335 766 335 796 316 c 128,-1,87
 826 297 826 297 854 268 c 1,88,-1
 833 206 l 1,89,90
 806 238 806 238 782 253.5 c 128,-1,91
 758 269 758 269 725 269 c 0,92,93
 697 269 697 269 682 252.5 c 128,-1,94
 667 236 667 236 667 205 c 0,95,96
 667 190 667 190 669 177 c 128,-1,97
 671 164 671 164 673 149.5 c 128,-1,98
 675 135 675 135 675 114 c 0,99,100
 675 106 675 106 673 90 c 128,-1,101
 671 74 671 74 665 57.5 c 128,-1,102
 659 41 659 41 646 29 c 1,103,-1
 590 52 l 1,74,75
EndSplineSet
EndChar

StartChar: ssasinh
Encoding: 3522 3522 60
Width: 790
GlyphClass: 2
Flags: W
AnchorPoint: "Cursive-2" 51 0 entry 0
AnchorPoint: "Anchor-0" 790 -15 basechar 0
LayerCount: 2
Fore
SplineSet
394 -11 m 0,0,1
 274 -11 274 -11 194.5 20.5 c 128,-1,2
 115 52 115 52 75.5 111 c 128,-1,3
 36 170 36 170 36 251 c 0,4,5
 36 317 36 317 64 362.5 c 128,-1,6
 92 408 92 408 149 431.5 c 128,-1,7
 206 455 206 455 292 455 c 2,8,-1
 315 455 l 1,9,-1
 308 452 l 1,10,11
 307 501 307 501 280.5 523.5 c 128,-1,12
 254 546 254 546 215 546 c 0,13,14
 178 546 178 546 158.5 531 c 128,-1,15
 139 516 139 516 139 487 c 0,16,17
 139 482 139 482 140.5 472.5 c 128,-1,18
 142 463 142 463 143 458 c 1,19,-1
 73 446 l 1,20,21
 69 458 69 458 67.5 470.5 c 128,-1,22
 66 483 66 483 66 496 c 0,23,24
 66 553 66 553 104.5 582.5 c 128,-1,25
 143 612 143 612 210 612 c 0,26,27
 264 612 264 612 302 591.5 c 128,-1,28
 340 571 340 571 359.5 530.5 c 128,-1,29
 379 490 379 490 379 430 c 2,30,-1
 379 389 l 1,31,-1
 314 389 l 2,32,33
 247 389 247 389 209 380 c 128,-1,34
 171 371 171 371 148 351 c 0,35,36
 129 335 129 335 119 309.5 c 128,-1,37
 109 284 109 284 109 249 c 0,38,39
 109 196 109 196 138 153 c 128,-1,40
 167 110 167 110 230 85 c 128,-1,41
 293 60 293 60 395 60 c 0,42,43
 496 60 496 60 559 85 c 128,-1,44
 622 110 622 110 651.5 152.5 c 128,-1,45
 681 195 681 195 681 249 c 0,46,47
 681 288 681 288 669 315.5 c 128,-1,48
 657 343 657 343 633 359 c 0,49,50
 610 375 610 375 574.5 382 c 128,-1,51
 539 389 539 389 475 389 c 2,52,-1
 411 389 l 1,53,-1
 411 430 l 2,54,55
 411 490 411 490 430.5 530.5 c 128,-1,56
 450 571 450 571 487 591.5 c 128,-1,57
 524 612 524 612 576 612 c 0,58,59
 646 612 646 612 684.5 578.5 c 128,-1,60
 723 545 723 545 723 479 c 0,61,62
 723 447 723 447 713 420 c 128,-1,63
 703 393 703 393 686 371 c 0,64,65
 643 316 643 316 578.5 291 c 128,-1,66
 514 266 514 266 416 266 c 2,67,-1
 350 266 l 2,68,69
 313 266 313 266 292.5 258.5 c 128,-1,70
 272 251 272 251 272 227 c 0,71,72
 272 211 272 211 285 202 c 128,-1,73
 298 193 298 193 324 189 c 128,-1,74
 350 185 350 185 387 185 c 0,75,76
 438 185 438 185 464 191 c 128,-1,77
 490 197 490 197 499.5 208 c 128,-1,78
 509 219 509 219 509 234 c 0,79,80
 509 250 509 250 503 263 c 128,-1,81
 497 276 497 276 483 290 c 1,82,-1
 549 307 l 1,83,84
 564 290 564 290 570.5 270.5 c 128,-1,85
 577 251 577 251 577 232 c 0,86,87
 577 204 577 204 560.5 179 c 128,-1,88
 544 154 544 154 503 138.5 c 128,-1,89
 462 123 462 123 387 123 c 0,90,91
 293 123 293 123 248.5 152 c 128,-1,92
 204 181 204 181 204 231 c 0,93,94
 204 260 204 260 215.5 278.5 c 128,-1,95
 227 297 227 297 246 307 c 0,96,97
 269 319 269 319 297 323.5 c 128,-1,98
 325 328 325 328 367 328 c 2,99,-1
 423 328 l 2,100,101
 461 328 461 328 495.5 332.5 c 128,-1,102
 530 337 530 337 560.5 350 c 128,-1,103
 591 363 591 363 616 388 c 1,104,-1
 625 402 l 2,105,106
 639 417 639 417 645 435 c 128,-1,107
 651 453 651 453 651 470 c 0,108,109
 651 508 651 508 631 527 c 128,-1,110
 611 546 611 546 575 546 c 0,111,112
 536 546 536 546 510 523.5 c 128,-1,113
 484 501 484 501 482 452 c 1,114,-1
 478 455 l 1,115,-1
 498 455 l 2,116,117
 586 455 586 455 642.5 431.5 c 128,-1,118
 699 408 699 408 726.5 362.5 c 128,-1,119
 754 317 754 317 754 251 c 0,120,121
 754 170 754 170 714.5 111 c 128,-1,122
 675 52 675 52 595.5 20.5 c 128,-1,123
 516 -11 516 -11 394 -11 c 0,0,1
EndSplineSet
EndChar

StartChar: sasinh
Encoding: 3523 3523 61
Width: 824
GlyphClass: 2
Flags: W
AnchorPoint: "Cursive-2" 45 0 entry 0
AnchorPoint: "Anchor-0" 824 -15 basechar 0
LayerCount: 2
Fore
SplineSet
588 -11 m 0,0,1
 543 -11 543 -11 511.5 1 c 128,-1,2
 480 13 480 13 457.5 33 c 128,-1,3
 435 53 435 53 418 77 c 1,4,5
 398 50 398 50 375.5 30 c 128,-1,6
 353 10 353 10 323 -0.5 c 128,-1,7
 293 -11 293 -11 248 -11 c 0,8,9
 189 -11 189 -11 142.5 14 c 128,-1,10
 96 39 96 39 69.5 87 c 128,-1,11
 43 135 43 135 43 204 c 0,12,13
 43 246 43 246 56.5 284.5 c 128,-1,14
 70 323 70 323 101.5 354.5 c 128,-1,15
 133 386 133 386 185 406 c 1,16,-1
 187 397 l 1,17,18
 153 391 153 391 116 390 c 128,-1,19
 79 389 79 389 50 389 c 2,20,-1
 30 389 l 1,21,-1
 30 455 l 1,22,-1
 331 455 l 1,23,24
 329 502 329 502 303 524 c 128,-1,25
 277 546 277 546 238 546 c 0,26,27
 200 546 200 546 181 531 c 128,-1,28
 162 516 162 516 162 489 c 0,29,30
 162 487 162 487 162 484 c 128,-1,31
 162 481 162 481 163 478 c 1,32,-1
 90 474 l 1,33,34
 89 479 89 479 89 485.5 c 128,-1,35
 89 492 89 492 89 496 c 0,36,37
 89 553 89 553 127.5 582.5 c 128,-1,38
 166 612 166 612 233 612 c 0,39,40
 287 612 287 612 325 591.5 c 128,-1,41
 363 571 363 571 382.5 530.5 c 128,-1,42
 402 490 402 490 402 430 c 2,43,-1
 402 389 l 1,44,-1
 382 389 l 2,45,46
 347 389 347 389 310 387 c 128,-1,47
 273 385 273 385 238 375 c 128,-1,48
 203 365 203 365 173 340 c 0,49,50
 147 318 147 318 131.5 285 c 128,-1,51
 116 252 116 252 116 204 c 0,52,53
 116 134 116 134 152.5 97 c 128,-1,54
 189 60 189 60 250 60 c 0,55,56
 288 60 288 60 313.5 70.5 c 128,-1,57
 339 81 339 81 354.5 100.5 c 128,-1,58
 370 120 370 120 377 147.5 c 128,-1,59
 384 175 384 175 384 208 c 2,60,-1
 384 214 l 1,61,-1
 451 214 l 1,62,-1
 451 208 l 2,63,64
 451 176 451 176 457.5 149 c 128,-1,65
 464 122 464 122 479 102 c 128,-1,66
 494 82 494 82 520 71 c 128,-1,67
 546 60 546 60 585 60 c 0,68,69
 647 60 647 60 681 99 c 128,-1,70
 715 138 715 138 715 218 c 0,71,72
 715 264 715 264 702.5 296 c 128,-1,73
 690 328 690 328 661 349 c 0,74,75
 631 370 631 370 586 379.5 c 128,-1,76
 541 389 541 389 475 389 c 2,77,-1
 434 389 l 1,78,-1
 434 430 l 2,79,80
 434 490 434 490 454 530.5 c 128,-1,81
 474 571 474 571 511.5 591.5 c 128,-1,82
 549 612 549 612 603 612 c 0,83,84
 670 612 670 612 708.5 582.5 c 128,-1,85
 747 553 747 553 747 496 c 0,86,87
 747 483 747 483 745 470.5 c 128,-1,88
 743 458 743 458 740 446 c 1,89,-1
 670 458 l 1,90,91
 672 463 672 463 673 472.5 c 128,-1,92
 674 482 674 482 674 487 c 0,93,94
 674 516 674 516 655 531 c 128,-1,95
 636 546 636 546 598 546 c 0,96,97
 559 546 559 546 533 523.5 c 128,-1,98
 507 501 507 501 505 452 c 1,99,-1
 486 455 l 1,100,-1
 501 455 l 2,101,102
 556 455 556 455 607.5 444.5 c 128,-1,103
 659 434 659 434 699.5 407.5 c 128,-1,104
 740 381 740 381 764 335 c 128,-1,105
 788 289 788 289 788 217 c 0,106,107
 788 140 788 140 761.5 89.5 c 128,-1,108
 735 39 735 39 689.5 14 c 128,-1,109
 644 -11 644 -11 588 -11 c 0,0,1
EndSplineSet
EndChar

StartChar: hasinh
Encoding: 3524 3524 62
Width: 954
GlyphClass: 2
Flags: W
AnchorPoint: "Cursive-2" 51 0 entry 0
AnchorPoint: "Anchor-0" 954 -15 basechar 0
LayerCount: 2
Fore
SplineSet
326 -11 m 0,0,1
 239 -11 239 -11 173.5 19.5 c 128,-1,2
 108 50 108 50 72 108.5 c 128,-1,3
 36 167 36 167 36 251 c 0,4,5
 36 319 36 319 65 364 c 128,-1,6
 94 409 94 409 151 432 c 128,-1,7
 208 455 208 455 291 455 c 2,8,-1
 315 455 l 1,9,-1
 308 452 l 1,10,11
 307 501 307 501 280.5 523.5 c 128,-1,12
 254 546 254 546 215 546 c 0,13,14
 178 546 178 546 158.5 531 c 128,-1,15
 139 516 139 516 139 487 c 0,16,17
 139 482 139 482 140.5 472.5 c 128,-1,18
 142 463 142 463 143 458 c 1,19,-1
 73 446 l 1,20,21
 69 458 69 458 67.5 470.5 c 128,-1,22
 66 483 66 483 66 496 c 0,23,24
 66 553 66 553 104.5 582.5 c 128,-1,25
 143 612 143 612 210 612 c 0,26,27
 264 612 264 612 302 591.5 c 128,-1,28
 340 571 340 571 359.5 530.5 c 128,-1,29
 379 490 379 490 379 430 c 2,30,-1
 379 389 l 1,31,-1
 305 389 l 2,32,33
 244 389 244 389 207.5 380 c 128,-1,34
 171 371 171 371 148 351 c 0,35,36
 129 335 129 335 119 309.5 c 128,-1,37
 109 284 109 284 109 247 c 0,38,39
 109 189 109 189 135.5 147 c 128,-1,40
 162 105 162 105 210.5 82.5 c 128,-1,41
 259 60 259 60 326 60 c 0,42,43
 395 60 395 60 444 80 c 128,-1,44
 493 100 493 100 519 138 c 128,-1,45
 545 176 545 176 545 229 c 0,46,47
 545 263 545 263 532 277.5 c 128,-1,48
 519 292 519 292 498 292 c 0,49,50
 480 292 480 292 469.5 287.5 c 128,-1,51
 459 283 459 283 447 274 c 1,52,-1
 376 296 l 1,53,54
 391 394 391 394 422.5 455.5 c 128,-1,55
 454 517 454 517 495 551.5 c 128,-1,56
 536 586 536 586 579 599 c 128,-1,57
 622 612 622 612 661 612 c 0,58,59
 747 612 747 612 803.5 572.5 c 128,-1,60
 860 533 860 533 888 464.5 c 128,-1,61
 916 396 916 396 916 309 c 0,62,63
 916 207 916 207 880 137.5 c 128,-1,64
 844 68 844 68 780.5 32.5 c 128,-1,65
 717 -3 717 -3 634 -3 c 0,66,67
 619 -3 619 -3 606 -2 c 128,-1,68
 593 -1 593 -1 580 0 c 1,69,-1
 583 68 l 1,70,71
 591 67 591 67 601.5 66.5 c 128,-1,72
 612 66 612 66 625 66 c 0,73,74
 700 66 700 66 747.5 96 c 128,-1,75
 795 126 795 126 818 180.5 c 128,-1,76
 841 235 841 235 841 309 c 0,77,78
 841 376 841 376 820 428 c 128,-1,79
 799 480 799 480 758.5 510.5 c 128,-1,80
 718 541 718 541 657 541 c 0,81,82
 615 541 615 541 576.5 523.5 c 128,-1,83
 538 506 538 506 506 463 c 128,-1,84
 474 420 474 420 453 341 c 1,85,-1
 443 342 l 1,86,87
 455 350 455 350 471 354 c 128,-1,88
 487 358 487 358 503 358 c 0,89,90
 538 358 538 358 564 342.5 c 128,-1,91
 590 327 590 327 604 296.5 c 128,-1,92
 618 266 618 266 618 222 c 0,93,94
 618 180 618 180 602.5 139 c 128,-1,95
 587 98 587 98 553 64 c 128,-1,96
 519 30 519 30 463 9.5 c 128,-1,97
 407 -11 407 -11 326 -11 c 0,0,1
EndSplineSet
EndChar

StartChar: llasinh
Encoding: 3525 3525 63
Width: 758
GlyphClass: 2
Flags: W
AnchorPoint: "Cursive-2" 58 0 entry 0
LayerCount: 2
Fore
SplineSet
393 -211 m 0,0,1
 295 -211 295 -211 225.5 -185 c 128,-1,2
 156 -159 156 -159 112.5 -113 c 128,-1,3
 69 -67 69 -67 49 -8.5 c 128,-1,4
 29 50 29 50 29 114 c 0,5,6
 29 197 29 197 62 263 c 128,-1,7
 95 329 95 329 163 375 c 1,8,-1
 189 389 l 2,9,10
 228 412 228 412 277 426.5 c 128,-1,11
 326 441 326 441 389 448 c 128,-1,12
 452 455 452 455 532 455 c 2,13,-1
 640 455 l 1,14,15
 638 502 638 502 611 524 c 128,-1,16
 584 546 584 546 543 546 c 0,17,18
 511 546 511 546 489.5 531 c 128,-1,19
 468 516 468 516 462 480 c 1,20,-1
 395 480 l 1,21,22
 394 508 394 508 377 527 c 128,-1,23
 360 546 360 546 325 546 c 0,24,25
 294 546 294 546 272 529.5 c 128,-1,26
 250 513 250 513 238.5 482 c 128,-1,27
 227 451 227 451 227 405 c 0,28,29
 227 326 227 326 251.5 273.5 c 128,-1,30
 276 221 276 221 322.5 195 c 128,-1,31
 369 169 369 169 436 169 c 0,32,33
 530 169 530 169 580 202 c 128,-1,34
 630 235 630 235 637 309 c 1,35,-1
 708 305 l 1,36,37
 698 208 698 208 634.5 153.5 c 128,-1,38
 571 99 571 99 443 99 c 0,39,40
 351 99 351 99 293 129.5 c 128,-1,41
 235 160 235 160 204.5 213 c 128,-1,42
 174 266 174 266 164 333 c 0,43,44
 161 352 161 352 160 371.5 c 128,-1,45
 159 391 159 391 159 411 c 0,46,47
 159 472 159 472 179 517 c 128,-1,48
 199 562 199 562 236.5 587 c 128,-1,49
 274 612 274 612 324 612 c 0,50,51
 366 612 366 612 391 595 c 128,-1,52
 416 578 416 578 429 561 c 1,53,54
 449 584 449 584 478.5 598 c 128,-1,55
 508 612 508 612 545 612 c 0,56,57
 595 612 595 612 632 591.5 c 128,-1,58
 669 571 669 571 689.5 530.5 c 128,-1,59
 710 490 710 490 710 430 c 2,60,-1
 710 389 l 1,61,-1
 577 389 l 2,62,63
 500 389 500 389 440.5 385 c 128,-1,64
 381 381 381 381 335.5 372 c 128,-1,65
 290 363 290 363 255 348.5 c 128,-1,66
 220 334 220 334 192 313 c 2,67,-1
 176 302 l 1,68,69
 139 270 139 270 121.5 223 c 128,-1,70
 104 176 104 176 104 111 c 0,71,72
 104 35 104 35 137.5 -21.5 c 128,-1,73
 171 -78 171 -78 235.5 -108.5 c 128,-1,74
 300 -139 300 -139 393 -139 c 0,75,76
 462 -139 462 -139 514.5 -126 c 128,-1,77
 567 -113 567 -113 601.5 -88 c 128,-1,78
 636 -63 636 -63 653.5 -28 c 128,-1,79
 671 7 671 7 671 51 c 0,80,81
 671 56 671 56 671 63 c 128,-1,82
 671 70 671 70 670 77 c 1,83,-1
 743 81 l 1,84,85
 744 72 744 72 744.5 64.5 c 128,-1,86
 745 57 745 57 745 46 c 0,87,88
 745 -39 745 -39 700 -96 c 128,-1,89
 655 -153 655 -153 576 -182 c 128,-1,90
 497 -211 497 -211 393 -211 c 0,0,1
EndSplineSet
Substitution2: "Single Substitution lookup 7 subtable" lluvowelsinh
EndChar

StartChar: fasinh
Encoding: 3526 3526 64
Width: 844
GlyphClass: 2
Flags: W
AnchorPoint: "Cursive-2" 55 0 entry 0
AnchorPoint: "Anchor-0" 846 -15 basechar 0
LayerCount: 2
Fore
SplineSet
549 -11 m 0,0,1
 534 -11 534 -11 524.5 -10 c 128,-1,2
 515 -9 515 -9 501 -8 c 1,3,-1
 505 60 l 1,4,5
 514 59 514 59 522.5 58.5 c 128,-1,6
 531 58 531 58 540 58 c 0,7,8
 596 58 596 58 633.5 75.5 c 128,-1,9
 671 93 671 93 692.5 126 c 128,-1,10
 714 159 714 159 723 205 c 128,-1,11
 732 251 732 251 732 308 c 0,12,13
 732 377 732 377 715.5 430 c 128,-1,14
 699 483 699 483 665.5 512.5 c 128,-1,15
 632 542 632 542 581 542 c 0,16,17
 550 542 550 542 526.5 532 c 128,-1,18
 503 522 503 522 487 503 c 256,19,20
 471 484 471 484 463.5 454.5 c 128,-1,21
 456 425 456 425 456 381 c 2,22,-1
 456 347 l 1,23,-1
 389 347 l 1,24,-1
 389 381 l 2,25,26
 389 423 389 423 382 450 c 128,-1,27
 375 477 375 477 359 499 c 0,28,29
 344 519 344 519 320 530.5 c 128,-1,30
 296 542 296 542 263 542 c 0,31,32
 215 542 215 542 181 514 c 128,-1,33
 147 486 147 486 129.5 434 c 128,-1,34
 112 382 112 382 112 308 c 0,35,36
 112 252 112 252 121 206 c 128,-1,37
 130 160 130 160 151.5 127 c 128,-1,38
 173 94 173 94 210 76 c 128,-1,39
 247 58 247 58 304 58 c 0,40,41
 311 58 311 58 320.5 58.5 c 128,-1,42
 330 59 330 59 338 60 c 1,43,-1
 342 -8 l 1,44,45
 329 -9 329 -9 318.5 -10 c 128,-1,46
 308 -11 308 -11 294 -11 c 0,47,48
 208 -11 208 -11 151 26.5 c 128,-1,49
 94 64 94 64 66 135.5 c 128,-1,50
 38 207 38 207 38 308 c 256,51,52
 38 409 38 409 66.5 476.5 c 128,-1,53
 95 544 95 544 145.5 578 c 128,-1,54
 196 612 196 612 261 612 c 0,55,56
 323 612 323 612 361 584.5 c 128,-1,57
 399 557 399 557 422 517 c 1,58,59
 448 563 448 563 487 587.5 c 128,-1,60
 526 612 526 612 586 612 c 0,61,62
 650 612 650 612 699.5 578 c 128,-1,63
 749 544 749 544 777.5 476 c 128,-1,64
 806 408 806 408 806 307 c 0,65,66
 806 205 806 205 777 134 c 128,-1,67
 748 63 748 63 691 26 c 128,-1,68
 634 -11 634 -11 549 -11 c 0,0,1
EndSplineSet
EndChar

StartChar: viramasinh
Encoding: 3530 3530 65
Width: 0
GlyphClass: 4
Flags: W
LayerCount: 2
Fore
SplineSet
-208 524 m 1,0,-1
 -208 816 l 2,1,2
 -208 839 -208 839 -210 854 c 128,-1,3
 -212 869 -212 869 -217 878 c 0,4,5
 -222 889 -222 889 -231.5 897.5 c 128,-1,6
 -241 906 -241 906 -258 912 c 1,7,-1
 -232 973 l 1,8,9
 -201 964 -201 964 -185.5 950 c 128,-1,10
 -170 936 -170 936 -163 914 c 2,11,-1
 -140 853 l 1,12,-1
 -140 524 l 1,13,-1
 -208 524 l 1,0,-1
-107 781 m 0,14,15
 -141 781 -141 781 -163 787.5 c 128,-1,16
 -185 794 -185 794 -198 801 c 1,17,-1
 -183 852 l 1,18,19
 -170 847 -170 847 -151 842 c 128,-1,20
 -132 837 -132 837 -112 837 c 0,21,22
 -84 837 -84 837 -71 847.5 c 128,-1,23
 -58 858 -58 858 -58 879 c 0,24,25
 -58 898 -58 898 -68 907.5 c 128,-1,26
 -78 917 -78 917 -94 917 c 0,27,28
 -122 917 -122 917 -131 901 c 128,-1,29
 -140 885 -140 885 -140 857 c 2,30,-1
 -140 844 l 1,31,-1
 -175 904 l 1,32,33
 -168 932 -168 932 -147 952.5 c 128,-1,34
 -126 973 -126 973 -89 973 c 0,35,36
 -51 973 -51 973 -25.5 950 c 128,-1,37
 0 927 0 927 0 880 c 0,38,39
 0 836 0 836 -26 808.5 c 128,-1,40
 -52 781 -52 781 -107 781 c 0,14,15
EndSplineSet
EndChar

StartChar: aavowelsignsinh
Encoding: 3535 3535 66
Width: 343
Flags: W
LayerCount: 2
Fore
SplineSet
91 -11 m 0,0,1
 69 -11 69 -11 48.5 -7.5 c 128,-1,2
 28 -4 28 -4 9 1 c 1,3,-1
 22 66 l 1,4,5
 34 62 34 62 49 60 c 128,-1,6
 64 58 64 58 81 58 c 0,7,8
 109 58 109 58 135 66.5 c 128,-1,9
 161 75 161 75 182 98 c 128,-1,10
 203 121 203 121 215 163 c 128,-1,11
 227 205 227 205 227 272 c 256,12,13
 227 339 227 339 215 381 c 128,-1,14
 203 423 203 423 182 446 c 128,-1,15
 161 469 161 469 135 477.5 c 128,-1,16
 109 486 109 486 81 486 c 0,17,18
 62 486 62 486 48 483.5 c 128,-1,19
 34 481 34 481 22 477 c 1,20,-1
 9 542 l 1,21,22
 30 549 30 549 51.5 552 c 128,-1,23
 73 555 73 555 91 555 c 0,24,25
 128 555 128 555 165 543 c 128,-1,26
 202 531 202 531 233 500 c 128,-1,27
 264 469 264 469 283 413.5 c 128,-1,28
 302 358 302 358 302 272 c 256,29,30
 302 186 302 186 283 130.5 c 128,-1,31
 264 75 264 75 233 44 c 128,-1,32
 202 13 202 13 165 1 c 128,-1,33
 128 -11 128 -11 91 -11 c 0,0,1
EndSplineSet
EndChar

StartChar: aevowelsignsinh
Encoding: 3536 3536 67
Width: 309
Flags: W
LayerCount: 2
Fore
SplineSet
200 -165 m 0,0,1
 149 -165 149 -165 111.5 -146.5 c 128,-1,2
 74 -128 74 -128 53.5 -89 c 128,-1,3
 33 -50 33 -50 33 12 c 0,4,5
 33 41 33 41 40.5 75.5 c 128,-1,6
 48 110 48 110 68 151 c 128,-1,7
 88 192 88 192 124.5 240 c 128,-1,8
 161 288 161 288 219 344 c 1,9,-1
 230 338 l 1,10,11
 221 337 221 337 209 336 c 128,-1,12
 197 335 197 335 183 334.5 c 128,-1,13
 169 334 169 334 153 334 c 2,14,-1
 16 334 l 1,15,-1
 16 402 l 1,16,-1
 270 402 l 1,17,-1
 294 335 l 1,18,19
 238 275 238 275 201.5 230 c 128,-1,20
 165 185 165 185 144.5 148 c 128,-1,21
 124 111 124 111 115.5 78 c 128,-1,22
 107 45 107 45 107 10 c 0,23,24
 107 -32 107 -32 120.5 -55 c 128,-1,25
 134 -78 134 -78 157 -87 c 128,-1,26
 180 -96 180 -96 208 -96 c 0,27,28
 233 -96 233 -96 252.5 -91.5 c 128,-1,29
 272 -87 272 -87 298 -76 c 1,30,-1
 321 -140 l 1,31,32
 291 -152 291 -152 263 -158.5 c 128,-1,33
 235 -165 235 -165 200 -165 c 0,0,1
EndSplineSet
Substitution2: "Single Substitution lookup 71 subtable" raevowelsinh
EndChar

StartChar: aaevowelsignsinh
Encoding: 3537 3537 68
Width: 314
Flags: W
LayerCount: 2
Fore
SplineSet
200 -165 m 0,0,1
 149 -165 149 -165 111.5 -146.5 c 128,-1,2
 74 -128 74 -128 53.5 -92.5 c 128,-1,3
 33 -57 33 -57 33 -7 c 0,4,5
 33 38 33 38 57 75.5 c 128,-1,6
 81 113 81 113 122 144.5 c 128,-1,7
 163 176 163 176 215 201 c 1,8,-1
 225 193 l 1,9,10
 209 190 209 190 193 188 c 128,-1,11
 177 186 177 186 155 185 c 128,-1,12
 133 184 133 184 99 182 c 2,13,-1
 65 180 l 1,14,-1
 41 241 l 1,15,16
 73 263 73 263 105 283.5 c 128,-1,17
 137 304 137 304 170 324 c 128,-1,18
 203 344 203 344 236 362 c 1,19,-1
 208 337 l 1,20,21
 188 335 188 335 166.5 334.5 c 128,-1,22
 145 334 145 334 125 334 c 2,23,-1
 16 334 l 1,24,-1
 16 402 l 1,25,-1
 268 402 l 1,26,-1
 290 339 l 1,27,28
 270 325 270 325 238.5 304.5 c 128,-1,29
 207 284 207 284 170.5 261.5 c 128,-1,30
 134 239 134 239 98 219 c 1,31,-1
 99 231 l 1,32,33
 112 233 112 233 127.5 234.5 c 128,-1,34
 143 236 143 236 165 237.5 c 128,-1,35
 187 239 187 239 221 240 c 2,36,-1
 268 242 l 1,37,-1
 290 181 l 1,38,39
 222 144 222 144 181.5 114.5 c 128,-1,40
 141 85 141 85 124 56 c 128,-1,41
 107 27 107 27 107 -7 c 0,42,43
 107 -38 107 -38 120.5 -57.5 c 128,-1,44
 134 -77 134 -77 157 -86.5 c 128,-1,45
 180 -96 180 -96 208 -96 c 0,46,47
 231 -96 231 -96 249.5 -92.5 c 128,-1,48
 268 -89 268 -89 298 -76 c 1,49,-1
 321 -140 l 1,50,51
 291 -152 291 -152 263 -158.5 c 128,-1,52
 235 -165 235 -165 200 -165 c 0,0,1
EndSplineSet
Substitution2: "Single Substitution lookup 71 subtable" raaevowelsinh
EndChar

StartChar: ivowelsignsinh
Encoding: 3538 3538 69
Width: 0
GlyphClass: 4
Flags: W
LayerCount: 2
Fore
SplineSet
-312 876 m 0,0,1
 -232 876 -232 876 -178.5 861 c 128,-1,2
 -125 846 -125 846 -93 820.5 c 128,-1,3
 -61 795 -61 795 -47 763 c 128,-1,4
 -33 731 -33 731 -33 696 c 0,5,6
 -33 671 -33 671 -37 653.5 c 128,-1,7
 -41 636 -41 636 -46 623 c 1,8,-1
 -114 634 l 1,9,10
 -111 644 -111 644 -108 657.5 c 128,-1,11
 -105 671 -105 671 -105 693 c 0,12,13
 -105 724 -105 724 -123 749.5 c 128,-1,14
 -141 775 -141 775 -186 790.5 c 128,-1,15
 -231 806 -231 806 -312 806 c 256,16,17
 -393 806 -393 806 -438.5 790.5 c 128,-1,18
 -484 775 -484 775 -502 749 c 128,-1,19
 -520 723 -520 723 -520 692 c 0,20,21
 -520 673 -520 673 -516.5 658.5 c 128,-1,22
 -513 644 -513 644 -510 634 c 1,23,-1
 -579 623 l 1,24,25
 -583 636 -583 636 -587.5 653.5 c 128,-1,26
 -592 671 -592 671 -592 694 c 0,27,28
 -592 729 -592 729 -578 762 c 128,-1,29
 -564 795 -564 795 -531.5 820.5 c 128,-1,30
 -499 846 -499 846 -445 861 c 128,-1,31
 -391 876 -391 876 -312 876 c 0,0,1
EndSplineSet
EndChar

StartChar: iivowelsignsinh
Encoding: 3539 3539 70
Width: 0
GlyphClass: 4
Flags: W
LayerCount: 2
Fore
SplineSet
-312 876 m 0,0,1
 -235 876 -235 876 -181 862.5 c 128,-1,2
 -127 849 -127 849 -93 825 c 128,-1,3
 -59 801 -59 801 -43.5 770 c 128,-1,4
 -28 739 -28 739 -28 705 c 0,5,6
 -28 650 -28 650 -58.5 620.5 c 128,-1,7
 -89 591 -89 591 -150 591 c 0,8,9
 -195 591 -195 591 -222.5 605.5 c 128,-1,10
 -250 620 -250 620 -262.5 645.5 c 128,-1,11
 -275 671 -275 671 -275 704 c 0,12,13
 -275 745 -275 745 -251.5 776.5 c 128,-1,14
 -228 808 -228 808 -203 827 c 1,15,-1
 -147 797 l 1,16,17
 -176 780 -176 780 -192.5 757.5 c 128,-1,18
 -209 735 -209 735 -209 705 c 0,19,20
 -209 679 -209 679 -193.5 664.5 c 128,-1,21
 -178 650 -178 650 -150 650 c 0,22,23
 -124 650 -124 650 -111 663 c 128,-1,24
 -98 676 -98 676 -98 701 c 0,25,26
 -98 736 -98 736 -122.5 760 c 128,-1,27
 -147 784 -147 784 -197 794 c 0,28,29
 -220 799 -220 799 -249 802.5 c 128,-1,30
 -278 806 -278 806 -312 806 c 0,31,32
 -393 806 -393 806 -438.5 790.5 c 128,-1,33
 -484 775 -484 775 -502 749 c 128,-1,34
 -520 723 -520 723 -520 692 c 0,35,36
 -520 673 -520 673 -516.5 658.5 c 128,-1,37
 -513 644 -513 644 -510 634 c 1,38,-1
 -579 623 l 1,39,40
 -583 636 -583 636 -587.5 653.5 c 128,-1,41
 -592 671 -592 671 -592 694 c 0,42,43
 -592 729 -592 729 -578 762 c 128,-1,44
 -564 795 -564 795 -531.5 820.5 c 128,-1,45
 -499 846 -499 846 -445 861 c 128,-1,46
 -391 876 -391 876 -312 876 c 0,0,1
EndSplineSet
EndChar

StartChar: uvowelsignsinh
Encoding: 3540 3540 71
Width: 0
GlyphClass: 4
Flags: W
LayerCount: 2
Fore
SplineSet
-647 -140 m 0,0,1
 -647 -106 -647 -106 -631 -79 c 128,-1,2
 -615 -52 -615 -52 -586 -27 c 1,3,-1
 -536 -78 l 1,4,5
 -556 -92 -556 -92 -565.5 -107 c 128,-1,6
 -575 -122 -575 -122 -575 -137 c 0,7,8
 -575 -150 -575 -150 -569 -160 c 128,-1,9
 -563 -170 -563 -170 -552 -177 c 0,10,11
 -538 -186 -538 -186 -512 -189.5 c 128,-1,12
 -486 -193 -486 -193 -423 -193 c 2,13,-1
 -99 -193 l 1,14,-1
 -99 72 l 1,15,-1
 -27 72 l 1,16,-1
 -27 -261 l 1,17,-1
 -452 -261 l 2,18,19
 -496 -261 -496 -261 -526.5 -256.5 c 128,-1,20
 -557 -252 -557 -252 -577 -243 c 128,-1,21
 -597 -234 -597 -234 -611 -223 c 0,22,23
 -629 -208 -629 -208 -638 -187 c 128,-1,24
 -647 -166 -647 -166 -647 -140 c 0,0,1
EndSplineSet
Substitution2: "Single Substitution lookup 17 subtable" aevowelsignlowsinh
Substitution2: "Single Substitution lookup 7 subtable" aevowelsignsinh
EndChar

StartChar: uuvowelsignsinh
Encoding: 3542 3542 72
Width: 0
GlyphClass: 4
Flags: W
LayerCount: 2
Fore
SplineSet
-643 -141 m 0,0,1
 -643 -102 -643 -102 -626 -77 c 128,-1,2
 -609 -52 -609 -52 -581 -27 c 1,3,-1
 -531 -78 l 1,4,5
 -552 -94 -552 -94 -561 -107.5 c 128,-1,6
 -570 -121 -570 -121 -570 -139 c 0,7,8
 -570 -168 -570 -168 -551.5 -180.5 c 128,-1,9
 -533 -193 -533 -193 -507 -193 c 0,10,11
 -488 -193 -488 -193 -471 -188.5 c 128,-1,12
 -454 -184 -454 -184 -433 -175 c 128,-1,13
 -412 -166 -412 -166 -384 -153 c 0,14,15
 -343 -134 -343 -134 -314 -123 c 128,-1,16
 -285 -112 -285 -112 -253 -112 c 0,17,18
 -225 -112 -225 -112 -197.5 -120 c 128,-1,19
 -170 -128 -170 -128 -135.5 -147 c 128,-1,20
 -101 -166 -101 -166 -54 -201 c 1,21,-1
 -90 -215 l 1,22,23
 -91 -194 -91 -194 -92 -173 c 128,-1,24
 -93 -152 -93 -152 -93 -130 c 2,25,-1
 -93 72 l 1,26,-1
 -21 72 l 1,27,-1
 -21 -261 l 1,28,-1
 -73 -261 l 1,29,30
 -114 -230 -114 -230 -143 -213 c 128,-1,31
 -172 -196 -172 -196 -195.5 -189 c 128,-1,32
 -219 -182 -219 -182 -246 -182 c 256,33,34
 -273 -182 -273 -182 -300.5 -192 c 128,-1,35
 -328 -202 -328 -202 -360 -216 c 0,36,37
 -406 -238 -406 -238 -439 -249.5 c 128,-1,38
 -472 -261 -472 -261 -508 -261 c 0,39,40
 -538 -261 -538 -261 -569.5 -250 c 128,-1,41
 -601 -239 -601 -239 -622 -212.5 c 128,-1,42
 -643 -186 -643 -186 -643 -141 c 0,0,1
EndSplineSet
Substitution2: "Single Substitution lookup 17 subtable" aaevowelsignlowsinh
Substitution2: "Single Substitution lookup 7 subtable" aaevowelsignsinh
EndChar

StartChar: rvocalicvowelsignsinh
Encoding: 3544 3544 73
Width: 445
Flags: W
LayerCount: 2
Fore
SplineSet
173 -11 m 0,0,1
 107 -11 107 -11 65.5 31.5 c 128,-1,2
 24 74 24 74 24 153 c 0,3,4
 24 203 24 203 42.5 238 c 128,-1,5
 61 273 61 273 95 295 c 0,6,7
 116 309 116 309 143.5 318.5 c 128,-1,8
 171 328 171 328 213 332.5 c 128,-1,9
 255 337 255 337 321 337 c 2,10,-1
 359 337 l 1,11,-1
 345 271 l 1,12,-1
 287 271 l 2,13,14
 223 271 223 271 192.5 263.5 c 128,-1,15
 162 256 162 256 142 245 c 0,16,17
 117 230 117 230 107.5 205.5 c 128,-1,18
 98 181 98 181 98 153 c 0,19,20
 98 118 98 118 109.5 97 c 128,-1,21
 121 76 121 76 140.5 67 c 128,-1,22
 160 58 160 58 184 58 c 0,23,24
 211 58 211 58 230 65 c 128,-1,25
 249 72 249 72 265 85 c 1,26,-1
 306 85 l 1,27,-1
 371 45 l 1,28,-1
 330 0 l 1,29,-1
 290 24 l 1,30,31
 265 7 265 7 239 -2 c 128,-1,32
 213 -11 213 -11 173 -11 c 0,0,1
330 0 m 1,33,-1
 321 50 l 1,34,-1
 321 307 l 2,35,36
 321 363 321 363 310 400 c 128,-1,37
 299 437 299 437 273 458 c 0,38,39
 257 472 257 472 233 479 c 128,-1,40
 209 486 209 486 177 486 c 0,41,42
 138 486 138 486 107 479.5 c 128,-1,43
 76 473 76 473 54 465 c 1,44,-1
 33 530 l 1,45,46
 64 541 64 541 100 548 c 128,-1,47
 136 555 136 555 176 555 c 0,48,49
 228 555 228 555 264.5 543.5 c 128,-1,50
 301 532 301 532 327 509 c 0,51,52
 352 487 352 487 366.5 458.5 c 128,-1,53
 381 430 381 430 387.5 389 c 128,-1,54
 394 348 394 348 394 290 c 2,55,-1
 394 0 l 1,56,-1
 330 0 l 1,33,-1
EndSplineSet
EndChar

StartChar: evowelsignsinh
Encoding: 3545 3545 74
Width: 631
Flags: W
LayerCount: 2
Fore
SplineSet
335 -11 m 0,0,1
 251 -11 251 -11 193.5 13 c 128,-1,2
 136 37 136 37 101 77 c 128,-1,3
 66 117 66 117 50.5 167.5 c 128,-1,4
 35 218 35 218 35 270 c 0,5,6
 35 356 35 356 75 420 c 128,-1,7
 115 484 115 484 187 520 c 128,-1,8
 259 556 259 556 356 556 c 0,9,10
 430 556 430 556 487 545.5 c 128,-1,11
 544 535 544 535 601 512 c 1,12,-1
 575 446 l 1,13,14
 516 471 516 471 466 479 c 128,-1,15
 416 487 416 487 354 487 c 0,16,17
 288 487 288 487 232 465 c 128,-1,18
 176 443 176 443 142 395 c 128,-1,19
 108 347 108 347 108 268 c 0,20,21
 108 231 108 231 119 194 c 128,-1,22
 130 157 130 157 156 127 c 128,-1,23
 182 97 182 97 225.5 78.5 c 128,-1,24
 269 60 269 60 335 60 c 0,25,26
 410 60 410 60 453 78.5 c 128,-1,27
 496 97 496 97 514 128 c 128,-1,28
 532 159 532 159 532 196 c 0,29,30
 532 223 532 223 522.5 250 c 128,-1,31
 513 277 513 277 486 296.5 c 128,-1,32
 459 316 459 316 408 322 c 0,33,34
 403 322 403 322 391.5 322 c 128,-1,35
 380 322 380 322 370 322 c 0,36,37
 332 322 332 322 311 307 c 128,-1,38
 290 292 290 292 290 266 c 0,39,40
 290 247 290 247 301.5 231.5 c 128,-1,41
 313 216 313 216 341 216 c 0,42,43
 367 216 367 216 379.5 230 c 128,-1,44
 392 244 392 244 392 267 c 0,45,46
 392 281 392 281 388 299 c 128,-1,47
 384 317 384 317 373 331 c 1,48,-1
 445 325 l 1,49,50
 454 309 454 309 457 291 c 128,-1,51
 460 273 460 273 460 259 c 0,52,53
 460 198 460 198 426 174 c 128,-1,54
 392 150 392 150 343 150 c 0,55,56
 289 150 289 150 254 180 c 128,-1,57
 219 210 219 210 219 268 c 0,58,59
 219 324 219 324 262.5 355.5 c 128,-1,60
 306 387 306 387 376 387 c 0,61,62
 452 387 452 387 502.5 362 c 128,-1,63
 553 337 553 337 578.5 294.5 c 128,-1,64
 604 252 604 252 604 201 c 0,65,66
 604 140 604 140 577 92 c 128,-1,67
 550 44 550 44 490.5 16.5 c 128,-1,68
 431 -11 431 -11 335 -11 c 0,0,1
EndSplineSet
EndChar

StartChar: lvocalicvowelsignsinh
Encoding: 3551 3551 80
Width: 528
Flags: W
LayerCount: 2
Fore
SplineSet
277 -11 m 0,0,1
 247 -11 247 -11 219 -7 c 128,-1,2
 191 -3 191 -3 168 6 c 1,3,-1
 183 72 l 1,4,5
 203 65 203 65 221.5 61.5 c 128,-1,6
 240 58 240 58 267 58 c 0,7,8
 296 58 296 58 322 66.5 c 128,-1,9
 348 75 348 75 368 98 c 128,-1,10
 388 121 388 121 400 165 c 128,-1,11
 412 209 412 209 412 279 c 0,12,13
 412 333 412 333 404 372.5 c 128,-1,14
 396 412 396 412 381 438 c 128,-1,15
 366 464 366 464 345 477 c 128,-1,16
 324 490 324 490 299 490 c 0,17,18
 280 490 280 490 265.5 483.5 c 128,-1,19
 251 477 251 477 240 463 c 2,20,-1
 208 418 l 1,21,-1
 163 461 l 1,22,23
 186 504 186 504 220.5 529.5 c 128,-1,24
 255 555 255 555 307 555 c 0,25,26
 342 555 342 555 374.5 540.5 c 128,-1,27
 407 526 407 526 432.5 494 c 128,-1,28
 458 462 458 462 472.5 409 c 128,-1,29
 487 356 487 356 487 279 c 0,30,31
 487 189 487 189 468.5 132.5 c 128,-1,32
 450 76 450 76 419 44.5 c 128,-1,33
 388 13 388 13 351 1 c 128,-1,34
 314 -11 314 -11 277 -11 c 0,0,1
186 258 m 0,35,36
 125 258 125 258 90 282 c 128,-1,37
 55 306 55 306 40.5 343 c 128,-1,38
 26 380 26 380 26 419 c 0,39,40
 26 463 26 463 38 498 c 128,-1,41
 50 533 50 533 62 555 c 1,42,-1
 129 535 l 1,43,44
 114 507 114 507 105.5 478.5 c 128,-1,45
 97 450 97 450 97 418 c 0,46,47
 97 395 97 395 104.5 373 c 128,-1,48
 112 351 112 351 131 336.5 c 128,-1,49
 150 322 150 322 185 322 c 0,50,51
 214 322 214 322 237.5 336 c 128,-1,52
 261 350 261 350 261 382 c 0,53,54
 261 402 261 402 251.5 412 c 128,-1,55
 242 422 242 422 228 422 c 0,56,57
 221 422 221 422 216.5 421 c 128,-1,58
 212 420 212 420 208 418 c 1,59,-1
 200 462 l 1,60,61
 210 467 210 467 220.5 468.5 c 128,-1,62
 231 470 231 470 242 470 c 0,63,64
 280 470 280 470 304.5 447.5 c 128,-1,65
 329 425 329 425 329 380 c 0,66,67
 329 348 329 348 314.5 320 c 128,-1,68
 300 292 300 292 268.5 275 c 128,-1,69
 237 258 237 258 186 258 c 0,35,36
EndSplineSet
EndChar

StartChar: uni0DE6
Encoding: 3558 3558 81
Width: 325
Flags: W
LayerCount: 2
Fore
SplineSet
80 0 m 1,0,-1
 80 441 l 2,1,2
 80 467 80 467 77.5 483 c 128,-1,3
 75 499 75 499 70 509 c 0,4,5
 64 521 64 521 53.5 530 c 128,-1,6
 43 539 43 539 25 546 c 1,7,-1
 54 612 l 1,8,9
 87 602 87 602 104.5 587 c 128,-1,10
 122 572 122 572 129 548 c 2,11,-1
 154 481 l 1,12,-1
 154 0 l 1,13,-1
 80 0 l 1,0,-1
190 403 m 0,14,15
 153 403 153 403 129 410.5 c 128,-1,16
 105 418 105 418 91 425 c 1,17,-1
 107 480 l 1,18,19
 121 475 121 475 142 469.5 c 128,-1,20
 163 464 163 464 185 464 c 0,21,22
 215 464 215 464 229 475.5 c 128,-1,23
 243 487 243 487 243 510 c 0,24,25
 243 530 243 530 232 540.5 c 128,-1,26
 221 551 221 551 204 551 c 0,27,28
 174 551 174 551 164 533.5 c 128,-1,29
 154 516 154 516 154 486 c 2,30,-1
 154 472 l 1,31,-1
 116 537 l 1,32,33
 124 567 124 567 147 589.5 c 128,-1,34
 170 612 170 612 210 612 c 0,35,36
 251 612 251 612 279 586.5 c 128,-1,37
 307 561 307 561 307 511 c 0,38,39
 307 463 307 463 278.5 433 c 128,-1,40
 250 403 250 403 190 403 c 0,14,15
EndSplineSet
EndChar

StartChar: uni0DE7
Encoding: 3559 3559 82
Width: 835
Flags: W
LayerCount: 2
Fore
SplineSet
333 -11 m 0,0,1
 251 -11 251 -11 194 14 c 128,-1,2
 137 39 137 39 102 82 c 128,-1,3
 67 125 67 125 51 178 c 128,-1,4
 35 231 35 231 35 287 c 0,5,6
 35 387 35 387 77 460 c 128,-1,7
 119 533 119 533 193.5 572.5 c 128,-1,8
 268 612 268 612 367 612 c 0,9,10
 504 612 504 612 599.5 540.5 c 128,-1,11
 695 469 695 469 746.5 332.5 c 128,-1,12
 798 196 798 196 803 2 c 1,13,-1
 727 -1 l 1,14,15
 723 169 723 169 681 290.5 c 128,-1,16
 639 412 639 412 560.5 477 c 128,-1,17
 482 542 482 542 367 542 c 0,18,19
 298 542 298 542 239 515.5 c 128,-1,20
 180 489 180 489 144 433 c 128,-1,21
 108 377 108 377 108 287 c 0,22,23
 108 246 108 246 119 205.5 c 128,-1,24
 130 165 130 165 155 132.5 c 128,-1,25
 180 100 180 100 223.5 80.5 c 128,-1,26
 267 61 267 61 331 61 c 0,27,28
 397 61 397 61 437 80.5 c 128,-1,29
 477 100 477 100 495 134.5 c 128,-1,30
 513 169 513 169 513 213 c 0,31,32
 513 243 513 243 503.5 272.5 c 128,-1,33
 494 302 494 302 467 324 c 128,-1,34
 440 346 440 346 389 352 c 0,35,36
 384 352 384 352 372.5 352 c 128,-1,37
 361 352 361 352 351 352 c 0,38,39
 313 352 313 352 292 337 c 128,-1,40
 271 322 271 322 271 296 c 0,41,42
 271 277 271 277 282.5 261.5 c 128,-1,43
 294 246 294 246 322 246 c 0,44,45
 348 246 348 246 361 260 c 128,-1,46
 374 274 374 274 374 297 c 0,47,48
 374 311 374 311 369.5 329 c 128,-1,49
 365 347 365 347 354 361 c 1,50,-1
 426 355 l 1,51,52
 435 339 435 339 438 321 c 128,-1,53
 441 303 441 303 441 289 c 0,54,55
 441 228 441 228 407 204 c 128,-1,56
 373 180 373 180 324 180 c 0,57,58
 270 180 270 180 235 209.5 c 128,-1,59
 200 239 200 239 200 295 c 0,60,61
 200 354 200 354 244 385.5 c 128,-1,62
 288 417 288 417 360 417 c 0,63,64
 435 417 435 417 485 389.5 c 128,-1,65
 535 362 535 362 560 316 c 128,-1,66
 585 270 585 270 585 212 c 0,67,68
 585 150 585 150 559 99 c 128,-1,69
 533 48 533 48 477.5 18.5 c 128,-1,70
 422 -11 422 -11 333 -11 c 0,0,1
EndSplineSet
EndChar

StartChar: uni0DE8
Encoding: 3560 3560 83
Width: 1190
Flags: W
LayerCount: 2
Fore
SplineSet
694 344 m 1,0,1
 705 424 705 424 728 476 c 128,-1,2
 751 528 751 528 783 558 c 128,-1,3
 815 588 815 588 852 600 c 128,-1,4
 889 612 889 612 926 612 c 0,5,6
 1000 612 1000 612 1050 572.5 c 128,-1,7
 1100 533 1100 533 1125.5 464.5 c 128,-1,8
 1151 396 1151 396 1151 309 c 0,9,10
 1151 207 1151 207 1117.5 137.5 c 128,-1,11
 1084 68 1084 68 1027 32.5 c 128,-1,12
 970 -3 970 -3 898 -3 c 0,13,14
 890 -3 890 -3 878.5 -2 c 128,-1,15
 867 -1 867 -1 855 0 c 1,16,-1
 858 68 l 1,17,18
 865 67 865 67 874.5 66.5 c 128,-1,19
 884 66 884 66 893 66 c 0,20,21
 956 66 956 66 996.5 96 c 128,-1,22
 1037 126 1037 126 1056.5 180.5 c 128,-1,23
 1076 235 1076 235 1076 309 c 0,24,25
 1076 376 1076 376 1057.5 428 c 128,-1,26
 1039 480 1039 480 1003.5 510.5 c 128,-1,27
 968 541 968 541 918 541 c 0,28,29
 871 541 871 541 835 509 c 128,-1,30
 799 477 799 477 777.5 418 c 128,-1,31
 756 359 756 359 751 276 c 1,32,-1
 694 344 l 1,0,1
333 -11 m 0,33,34
 251 -11 251 -11 194 14 c 128,-1,35
 137 39 137 39 102 82 c 128,-1,36
 67 125 67 125 51 178 c 128,-1,37
 35 231 35 231 35 287 c 0,38,39
 35 387 35 387 77 460 c 128,-1,40
 119 533 119 533 193.5 572.5 c 128,-1,41
 268 612 268 612 367 612 c 0,42,43
 504 612 504 612 599 540.5 c 128,-1,44
 694 469 694 469 745 332.5 c 128,-1,45
 796 196 796 196 801 2 c 1,46,-1
 727 -1 l 1,47,48
 723 169 723 169 681 290.5 c 128,-1,49
 639 412 639 412 560.5 477 c 128,-1,50
 482 542 482 542 367 542 c 0,51,52
 298 542 298 542 239 515.5 c 128,-1,53
 180 489 180 489 144 433 c 128,-1,54
 108 377 108 377 108 287 c 0,55,56
 108 246 108 246 119 205.5 c 128,-1,57
 130 165 130 165 155 132.5 c 128,-1,58
 180 100 180 100 223.5 80.5 c 128,-1,59
 267 61 267 61 331 61 c 0,60,61
 397 61 397 61 437 80.5 c 128,-1,62
 477 100 477 100 495 134.5 c 128,-1,63
 513 169 513 169 513 212 c 0,64,65
 513 242 513 242 503.5 272 c 128,-1,66
 494 302 494 302 467 324 c 128,-1,67
 440 346 440 346 389 352 c 0,68,69
 384 352 384 352 372.5 352 c 128,-1,70
 361 352 361 352 351 352 c 0,71,72
 313 352 313 352 292 337 c 128,-1,73
 271 322 271 322 271 296 c 0,74,75
 271 277 271 277 282.5 261.5 c 128,-1,76
 294 246 294 246 322 246 c 0,77,78
 348 246 348 246 361 260 c 128,-1,79
 374 274 374 274 374 297 c 0,80,81
 374 311 374 311 369.5 329 c 128,-1,82
 365 347 365 347 354 361 c 1,83,-1
 426 355 l 1,84,85
 435 339 435 339 438 321 c 128,-1,86
 441 303 441 303 441 289 c 0,87,88
 441 228 441 228 407 204 c 128,-1,89
 373 180 373 180 324 180 c 0,90,91
 270 180 270 180 235 209.5 c 128,-1,92
 200 239 200 239 200 295 c 0,93,94
 200 354 200 354 244 385.5 c 128,-1,95
 288 417 288 417 360 417 c 0,96,97
 435 417 435 417 485 390 c 128,-1,98
 535 363 535 363 560 316.5 c 128,-1,99
 585 270 585 270 585 213 c 0,100,101
 585 150 585 150 559 99 c 128,-1,102
 533 48 533 48 477.5 18.5 c 128,-1,103
 422 -11 422 -11 333 -11 c 0,33,34
EndSplineSet
EndChar

StartChar: uni0DEA
Encoding: 3562 3562 85
Width: 790
Flags: W
LayerCount: 2
Fore
SplineSet
394 -11 m 0,0,1
 275 -11 275 -11 195 19 c 128,-1,2
 115 49 115 49 75.5 104 c 128,-1,3
 36 159 36 159 36 234 c 0,4,5
 36 291 36 291 64 334 c 128,-1,6
 92 377 92 377 149.5 401 c 128,-1,7
 207 425 207 425 296 425 c 2,8,-1
 315 425 l 1,9,-1
 308 423 l 1,10,11
 307 487 307 487 279 516.5 c 128,-1,12
 251 546 251 546 204 546 c 0,13,14
 175 546 175 546 156 534.5 c 128,-1,15
 137 523 137 523 137 497 c 0,16,17
 137 475 137 475 148.5 466.5 c 128,-1,18
 160 458 160 458 176 458 c 0,19,20
 194 458 194 458 205.5 467 c 128,-1,21
 217 476 217 476 224 489 c 1,22,-1
 280 456 l 1,23,24
 264 434 264 434 235 418.5 c 128,-1,25
 206 403 206 403 165 403 c 0,26,27
 125 403 125 403 94.5 425 c 128,-1,28
 64 447 64 447 64 496 c 0,29,30
 64 534 64 534 82.5 560 c 128,-1,31
 101 586 101 586 132.5 599 c 128,-1,32
 164 612 164 612 203 612 c 0,33,34
 261 612 261 612 300 588.5 c 128,-1,35
 339 565 339 565 359 521 c 128,-1,36
 379 477 379 477 379 417 c 2,37,-1
 379 359 l 1,38,-1
 302 359 l 2,39,40
 239 359 239 359 204 351 c 128,-1,41
 169 343 169 343 146 324 c 0,42,43
 129 309 129 309 119 286.5 c 128,-1,44
 109 264 109 264 109 232 c 0,45,46
 109 184 109 184 138 145 c 128,-1,47
 167 106 167 106 230 83 c 128,-1,48
 293 60 293 60 395 60 c 0,49,50
 496 60 496 60 559 82.5 c 128,-1,51
 622 105 622 105 651.5 144 c 128,-1,52
 681 183 681 183 681 232 c 0,53,54
 681 264 681 264 671 286.5 c 128,-1,55
 661 309 661 309 642 324 c 0,56,57
 619 343 619 343 582.5 351 c 128,-1,58
 546 359 546 359 485 359 c 2,59,-1
 411 359 l 1,60,-1
 411 412 l 2,61,62
 411 463 411 463 425 500.5 c 128,-1,63
 439 538 439 538 464.5 564 c 128,-1,64
 490 590 490 590 525 604 c 1,65,-1
 547 605 l 2,66,67
 556 607 556 607 567.5 609.5 c 128,-1,68
 579 612 579 612 595 612 c 0,69,70
 653 612 653 612 688.5 582.5 c 128,-1,71
 724 553 724 553 724 499 c 0,72,73
 724 447 724 447 692 424 c 128,-1,74
 660 401 660 401 613 401 c 0,75,76
 568 401 568 401 542 419 c 128,-1,77
 516 437 516 437 504.5 465.5 c 128,-1,78
 493 494 493 494 493 525 c 2,79,-1
 493 543 l 2,80,81
 493 605 493 605 525.5 657 c 128,-1,82
 558 709 558 709 611.5 748 c 128,-1,83
 665 787 665 787 729 810 c 1,84,-1
 759 747 l 1,85,86
 719 734 719 734 681 714 c 128,-1,87
 643 694 643 694 613.5 666 c 128,-1,88
 584 638 584 638 569 601 c 1,89,-1
 566 586 l 2,90,91
 562 573 562 573 560.5 557 c 128,-1,92
 559 541 559 541 559 520 c 0,93,94
 559 485 559 485 573 469.5 c 128,-1,95
 587 454 587 454 612 454 c 0,96,97
 627 454 627 454 639 463 c 128,-1,98
 651 472 651 472 651 498 c 0,99,100
 651 517 651 517 636 532.5 c 128,-1,101
 621 548 621 548 588 548 c 0,102,103
 559 548 559 548 534 534.5 c 128,-1,104
 509 521 509 521 494 496 c 128,-1,105
 479 471 479 471 479 434 c 2,106,-1
 479 418 l 1,107,-1
 472 425 l 1,108,-1
 503 425 l 2,109,110
 523 425 523 425 540.5 423.5 c 128,-1,111
 558 422 558 422 574 420 c 0,112,113
 669 407 669 407 711.5 358 c 128,-1,114
 754 309 754 309 754 234 c 256,115,116
 754 159 754 159 714 104 c 128,-1,117
 674 49 674 49 594.5 19 c 128,-1,118
 515 -11 515 -11 394 -11 c 0,0,1
EndSplineSet
EndChar

StartChar: uni0DEB
Encoding: 3563 3563 86
Width: 577
Flags: W
LayerCount: 2
Fore
SplineSet
490 -271 m 0,0,1
 440 -271 440 -271 405.5 -253 c 128,-1,2
 371 -235 371 -235 353 -201 c 128,-1,3
 335 -167 335 -167 335 -121 c 0,4,5
 335 -84 335 -84 350 -52 c 128,-1,6
 365 -20 365 -20 393.5 7.5 c 128,-1,7
 422 35 422 35 460 56 c 1,8,-1
 495 69 l 1,9,-1
 513 28 l 1,10,11
 464 0 464 0 436.5 -38 c 128,-1,12
 409 -76 409 -76 409 -119 c 0,13,14
 409 -161 409 -161 433.5 -182 c 128,-1,15
 458 -203 458 -203 505 -203 c 0,16,17
 523 -203 523 -203 541.5 -199 c 128,-1,18
 560 -195 560 -195 576 -188 c 1,19,-1
 592 -252 l 1,20,21
 568 -263 568 -263 543 -267 c 128,-1,22
 518 -271 518 -271 490 -271 c 0,0,1
344 -11 m 0,23,24
 251 -11 251 -11 182 14.5 c 128,-1,25
 113 40 113 40 74.5 91 c 128,-1,26
 36 142 36 142 36 217 c 0,27,28
 36 279 36 279 64.5 321.5 c 128,-1,29
 93 364 93 364 140 387 c 0,30,31
 168 401 168 401 200.5 409 c 128,-1,32
 233 417 233 417 282.5 421 c 128,-1,33
 332 425 332 425 409 425 c 2,34,-1
 476 425 l 1,35,36
 475 484 475 484 446.5 515 c 128,-1,37
 418 546 418 546 365 546 c 0,38,39
 328 546 328 546 310 533.5 c 128,-1,40
 292 521 292 521 292 499 c 256,41,42
 292 477 292 477 303 467.5 c 128,-1,43
 314 458 314 458 333 458 c 256,44,45
 352 458 352 458 364 468 c 128,-1,46
 376 478 376 478 384 496 c 1,47,-1
 440 465 l 1,48,49
 419 436 419 436 394 425 c 128,-1,50
 369 414 369 414 319 414 c 0,51,52
 279 414 279 414 249 433 c 128,-1,53
 219 452 219 452 219 501 c 0,54,55
 219 554 219 554 259.5 583 c 128,-1,56
 300 612 300 612 365 612 c 0,57,58
 426 612 426 612 466 587 c 128,-1,59
 506 562 506 562 526.5 518 c 128,-1,60
 547 474 547 474 547 418 c 2,61,-1
 547 359 l 1,62,-1
 384 359 l 2,63,64
 318 359 318 359 278.5 355.5 c 128,-1,65
 239 352 239 352 214.5 344.5 c 128,-1,66
 190 337 190 337 170 325 c 0,67,68
 142 309 142 309 127 280.5 c 128,-1,69
 112 252 112 252 112 214 c 0,70,71
 112 175 112 175 135 139.5 c 128,-1,72
 158 104 158 104 210.5 82 c 128,-1,73
 263 60 263 60 352 60 c 0,74,75
 387 60 387 60 419.5 64.5 c 128,-1,76
 452 69 452 69 484 79 c 128,-1,77
 516 89 516 89 548 104 c 1,78,-1
 569 37 l 1,79,80
 531 18 531 18 492.5 7.5 c 128,-1,81
 454 -3 454 -3 416.5 -7 c 128,-1,82
 379 -11 379 -11 344 -11 c 0,23,24
EndSplineSet
EndChar

StartChar: uni0DEC
Encoding: 3564 3564 87
Width: 898
Flags: W
LayerCount: 2
Fore
SplineSet
685 -11 m 0,0,1
 634 -11 634 -11 595.5 10 c 128,-1,2
 557 31 557 31 535.5 72.5 c 128,-1,3
 514 114 514 114 514 174 c 0,4,5
 514 235 514 235 539 276 c 128,-1,6
 564 317 564 317 605 338 c 128,-1,7
 646 359 646 359 695 359 c 0,8,9
 735 359 735 359 764 350.5 c 128,-1,10
 793 342 793 342 810 334 c 1,11,-1
 801 271 l 1,12,13
 782 280 782 280 759 286 c 128,-1,14
 736 292 736 292 702 292 c 0,15,16
 643 292 643 292 615 257 c 128,-1,17
 587 222 587 222 587 175 c 0,18,19
 587 111 587 111 615.5 84.5 c 128,-1,20
 644 58 644 58 687 58 c 0,21,22
 712 58 712 58 736 68 c 128,-1,23
 760 78 760 78 775.5 106.5 c 128,-1,24
 791 135 791 135 791 190 c 0,25,26
 791 218 791 218 787.5 243.5 c 128,-1,27
 784 269 784 269 776 292 c 2,28,-1
 772 309 l 1,29,30
 750 368 750 368 704 408.5 c 128,-1,31
 658 449 658 449 593 469.5 c 128,-1,32
 528 490 528 490 447 490 c 0,33,34
 365 490 365 490 302 469.5 c 128,-1,35
 239 449 239 449 196 412.5 c 128,-1,36
 153 376 153 376 130.5 326.5 c 128,-1,37
 108 277 108 277 108 218 c 0,38,39
 108 162 108 162 126 127 c 128,-1,40
 144 92 144 92 177 75.5 c 128,-1,41
 210 59 210 59 253 59 c 0,42,43
 281 59 281 59 308 68 c 128,-1,44
 335 77 335 77 360 94 c 1,45,-1
 397 36 l 1,46,47
 367 13 367 13 329 1 c 128,-1,48
 291 -11 291 -11 248 -11 c 0,49,50
 189 -11 189 -11 140 14.5 c 128,-1,51
 91 40 91 40 62.5 92.5 c 128,-1,52
 34 145 34 145 34 227 c 0,53,54
 34 297 34 297 62 358 c 128,-1,55
 90 419 90 419 142.5 464.5 c 128,-1,56
 195 510 195 510 270.5 536 c 128,-1,57
 346 562 346 562 442 562 c 0,58,59
 546 562 546 562 625 534.5 c 128,-1,60
 704 507 704 507 757 457 c 128,-1,61
 810 407 810 407 837 339 c 128,-1,62
 864 271 864 271 864 190 c 0,63,64
 864 116 864 116 841 72 c 128,-1,65
 818 28 818 28 777.5 8.5 c 128,-1,66
 737 -11 737 -11 685 -11 c 0,0,1
EndSplineSet
EndChar

StartChar: uni0DED
Encoding: 3565 3565 88
Width: 398
Flags: W
LayerCount: 2
Fore
SplineSet
248 -11 m 0,0,1
 192 -11 192 -11 150.5 9 c 128,-1,2
 109 29 109 29 87 72 c 128,-1,3
 65 115 65 115 65 183 c 0,4,5
 65 215 65 215 73 253 c 128,-1,6
 81 291 81 291 102.5 336 c 128,-1,7
 124 381 124 381 164 434 c 128,-1,8
 204 487 204 487 267 548 c 1,9,-1
 281 535 l 1,10,11
 271 534 271 534 258 533 c 128,-1,12
 245 532 245 532 229.5 531.5 c 128,-1,13
 214 531 214 531 196 531 c 2,14,-1
 38 531 l 1,15,-1
 38 601 l 1,16,-1
 325 601 l 1,17,-1
 349 544 l 1,18,19
 268 457 268 457 222.5 395 c 128,-1,20
 177 333 177 333 158.5 283 c 128,-1,21
 140 233 140 233 140 181 c 0,22,23
 140 135 140 135 155 108.5 c 128,-1,24
 170 82 170 82 196.5 71 c 128,-1,25
 223 60 223 60 257 60 c 0,26,27
 284 60 284 60 306.5 64.5 c 128,-1,28
 329 69 329 69 358 82 c 1,29,-1
 381 16 l 1,30,31
 348 3 348 3 317 -4 c 128,-1,32
 286 -11 286 -11 248 -11 c 0,0,1
EndSplineSet
EndChar

StartChar: uni0DEE
Encoding: 3566 3566 89
Width: 702
Flags: W
LayerCount: 2
Fore
SplineSet
342 -11 m 0,0,1
 246 -11 246 -11 177.5 23 c 128,-1,2
 109 57 109 57 72.5 121.5 c 128,-1,3
 36 186 36 186 36 277 c 0,4,5
 36 339 36 339 54 386 c 128,-1,6
 72 433 72 433 106.5 469 c 128,-1,7
 141 505 141 505 190.5 533 c 128,-1,8
 240 561 240 561 302 586 c 1,9,10
 378 628 378 628 462.5 683 c 128,-1,11
 547 738 547 738 629 805 c 1,12,-1
 677 749 l 1,13,14
 626 705 626 705 566 663 c 128,-1,15
 506 621 506 621 446.5 586.5 c 128,-1,16
 387 552 387 552 334 530 c 1,17,-1
 319 517 l 1,18,19
 234 489 234 489 188.5 452 c 128,-1,20
 143 415 143 415 126 371.5 c 128,-1,21
 109 328 109 328 109 279 c 0,22,23
 109 215 109 215 133.5 165.5 c 128,-1,24
 158 116 158 116 210 88 c 128,-1,25
 262 60 262 60 343 60 c 0,26,27
 435 60 435 60 489.5 87 c 128,-1,28
 544 114 544 114 568.5 161 c 128,-1,29
 593 208 593 208 593 267 c 0,30,31
 593 342 593 342 564 386.5 c 128,-1,32
 535 431 535 431 484 450.5 c 128,-1,33
 433 470 433 470 367 470 c 0,34,35
 346 470 346 470 319.5 468 c 128,-1,36
 293 466 293 466 272 461 c 1,37,-1
 264 518 l 1,38,39
 287 526 287 526 320.5 531 c 128,-1,40
 354 536 354 536 373 536 c 0,41,42
 458 536 458 536 524 508.5 c 128,-1,43
 590 481 590 481 628 422.5 c 128,-1,44
 666 364 666 364 666 270 c 0,45,46
 666 181 666 181 628 118 c 128,-1,47
 590 55 590 55 518 22 c 128,-1,48
 446 -11 446 -11 342 -11 c 0,0,1
EndSplineSet
EndChar

StartChar: u111E1
Encoding: 70113 70113 91
Width: 860
Flags: W
LayerCount: 2
Fore
SplineSet
333 -11 m 0,0,1
 251 -11 251 -11 194 14 c 128,-1,2
 137 39 137 39 102 82 c 128,-1,3
 67 125 67 125 51 178 c 128,-1,4
 35 231 35 231 35 287 c 0,5,6
 35 387 35 387 77 460 c 128,-1,7
 119 533 119 533 193.5 572.5 c 128,-1,8
 268 612 268 612 367 612 c 0,9,10
 519 612 519 612 617.5 522.5 c 128,-1,11
 716 433 716 433 747 265 c 2,12,-1
 796 2 l 1,13,-1
 727 0 l 1,14,15
 723 170 723 170 681 291.5 c 128,-1,16
 639 413 639 413 560.5 477.5 c 128,-1,17
 482 542 482 542 367 542 c 0,18,19
 298 542 298 542 239 515.5 c 128,-1,20
 180 489 180 489 144 433 c 128,-1,21
 108 377 108 377 108 287 c 0,22,23
 108 246 108 246 119 205.5 c 128,-1,24
 130 165 130 165 155 132.5 c 128,-1,25
 180 100 180 100 223.5 80.5 c 128,-1,26
 267 61 267 61 331 61 c 0,27,28
 430 61 430 61 471.5 104 c 128,-1,29
 513 147 513 147 513 213 c 0,30,31
 513 243 513 243 503.5 272.5 c 128,-1,32
 494 302 494 302 467 324 c 128,-1,33
 440 346 440 346 389 352 c 0,34,35
 384 352 384 352 372.5 352 c 128,-1,36
 361 352 361 352 351 352 c 0,37,38
 313 352 313 352 292 337 c 128,-1,39
 271 322 271 322 271 296 c 0,40,41
 271 277 271 277 282.5 261.5 c 128,-1,42
 294 246 294 246 322 246 c 0,43,44
 348 246 348 246 361 260 c 128,-1,45
 374 274 374 274 374 297 c 0,46,47
 374 311 374 311 369.5 329 c 128,-1,48
 365 347 365 347 354 361 c 1,49,-1
 426 355 l 1,50,51
 435 339 435 339 438 321 c 128,-1,52
 441 303 441 303 441 289 c 0,53,54
 441 228 441 228 407 204 c 128,-1,55
 373 180 373 180 324 180 c 0,56,57
 270 180 270 180 235 209.5 c 128,-1,58
 200 239 200 239 200 295 c 0,59,60
 200 354 200 354 244 385.5 c 128,-1,61
 288 417 288 417 360 417 c 0,62,63
 435 417 435 417 485 389.5 c 128,-1,64
 535 362 535 362 560 316 c 128,-1,65
 585 270 585 270 585 212 c 0,66,67
 585 150 585 150 559 99 c 128,-1,68
 533 48 533 48 477.5 18.5 c 128,-1,69
 422 -11 422 -11 333 -11 c 0,0,1
737 288 m 1,70,71
 730 338 730 338 728.5 390.5 c 128,-1,72
 727 443 727 443 727 485 c 2,73,-1
 727 601 l 1,74,-1
 800 601 l 1,75,-1
 800 0 l 1,76,-1
 734 0 l 1,77,-1
 737 288 l 1,70,71
EndSplineSet
EndChar

StartChar: u111E2
Encoding: 70114 70114 92
Width: 1160
Flags: W
LayerCount: 2
Fore
SplineSet
324 180 m 0,0,1
 270 180 270 180 235 209.5 c 128,-1,2
 200 239 200 239 200 295 c 0,3,4
 200 354 200 354 244 385.5 c 128,-1,5
 288 417 288 417 360 417 c 0,6,7
 435 417 435 417 485 390 c 128,-1,8
 535 363 535 363 560 316.5 c 128,-1,9
 585 270 585 270 585 213 c 0,10,11
 585 149 585 149 559 98.5 c 128,-1,12
 533 48 533 48 477.5 18.5 c 128,-1,13
 422 -11 422 -11 333 -11 c 0,14,15
 252 -11 252 -11 195 14 c 128,-1,16
 138 39 138 39 102.5 82 c 128,-1,17
 67 125 67 125 51 178 c 128,-1,18
 35 231 35 231 35 287 c 0,19,20
 35 387 35 387 77 460 c 128,-1,21
 119 533 119 533 193.5 572.5 c 128,-1,22
 268 612 268 612 367 612 c 0,23,24
 455 612 455 612 516 585 c 128,-1,25
 577 558 577 558 619.5 512.5 c 128,-1,26
 662 467 662 467 692.5 409 c 128,-1,27
 723 351 723 351 749 288 c 0,28,29
 780 214 780 214 805 168.5 c 128,-1,30
 830 123 830 123 853 99.5 c 128,-1,31
 876 76 876 76 900 68 c 128,-1,32
 924 60 924 60 952 60 c 0,33,34
 996 60 996 60 1022 80.5 c 128,-1,35
 1048 101 1048 101 1063.5 134.5 c 128,-1,36
 1079 168 1079 168 1089 207 c 1,37,-1
 1160 184 l 1,38,39
 1145 130 1145 130 1121 85.5 c 128,-1,40
 1097 41 1097 41 1056 15 c 128,-1,41
 1015 -11 1015 -11 950 -11 c 0,42,43
 910 -11 910 -11 875.5 -1 c 128,-1,44
 841 9 841 9 811 34.5 c 128,-1,45
 781 60 781 60 751.5 108.5 c 128,-1,46
 722 157 722 157 690 233 c 0,47,48
 662 302 662 302 633.5 358.5 c 128,-1,49
 605 415 605 415 569 456 c 128,-1,50
 533 497 533 497 484.5 519.5 c 128,-1,51
 436 542 436 542 367 542 c 256,52,53
 298 542 298 542 239 515.5 c 128,-1,54
 180 489 180 489 144 433 c 128,-1,55
 108 377 108 377 108 287 c 0,56,57
 108 246 108 246 119 205.5 c 128,-1,58
 130 165 130 165 156 132.5 c 128,-1,59
 182 100 182 100 225 80.5 c 128,-1,60
 268 61 268 61 331 61 c 0,61,62
 430 61 430 61 471.5 104 c 128,-1,63
 513 147 513 147 513 213 c 0,64,65
 513 243 513 243 503.5 272.5 c 128,-1,66
 494 302 494 302 467 324 c 128,-1,67
 440 346 440 346 389 352 c 0,68,69
 384 352 384 352 372.5 352 c 128,-1,70
 361 352 361 352 351 352 c 0,71,72
 313 352 313 352 292 337 c 128,-1,73
 271 322 271 322 271 296 c 0,74,75
 271 277 271 277 282.5 261.5 c 128,-1,76
 294 246 294 246 322 246 c 0,77,78
 348 246 348 246 361 260 c 128,-1,79
 374 274 374 274 374 297 c 0,80,81
 374 311 374 311 369.5 329 c 128,-1,82
 365 347 365 347 354 361 c 1,83,-1
 426 355 l 1,84,85
 435 339 435 339 438 321 c 128,-1,86
 441 303 441 303 441 289 c 0,87,88
 441 228 441 228 407 204 c 128,-1,89
 373 180 373 180 324 180 c 0,0,1
EndSplineSet
EndChar

